Source-HROTd_VROTd_SLENx_SANGn.ufo
<glyph name="quotedbl" format="2">
  <advance width="518"/>
  <unicode hex="0022"/>
  <outline>
    <contour>
      <point x="40" y="344" type="line"/>
      <point x="40" y="518" type="line"/>
      <point x="56" y="518" type="line"/>
      <point x="56" y="344" type="line"/>
    </contour>
    <contour>
      <point x="202" y="390" type="line"/>
      <point x="51" y="336" type="line" smooth="yes"/>
      <point x="43" y="334"/>
      <point x="36" y="343"/>
      <point x="42" y="349" type="curve" smooth="yes"/>
      <point x="92" y="403" type="line"/>
      <point x="104" y="393" type="line"/>
      <point x="54" y="339" type="line" smooth="yes"/>
      <point x="48" y="332"/>
      <point x="37" y="349"/>
      <point x="45" y="352" type="curve" smooth="yes"/>
      <point x="196" y="406" type="line"/>
    </contour>
    <contour>
      <point x="72" y="679" type="line"/>
      <point x="56" y="517" type="line" smooth="yes"/>
      <point x="55" y="510"/>
      <point x="37" y="519"/>
      <point x="43" y="524" type="curve" smooth="yes"/>
      <point x="228" y="686" type="line"/>
      <point x="238" y="674" type="line"/>
      <point x="53" y="512" type="line" smooth="yes"/>
      <point x="48" y="507"/>
      <point x="39" y="512"/>
      <point x="40" y="519" type="curve" smooth="yes"/>
      <point x="56" y="681" type="line"/>
    </contour>
    <contour>
      <point x="261" y="344" type="line"/>
      <point x="261" y="518" type="line"/>
      <point x="277" y="518" type="line"/>
      <point x="277" y="344" type="line"/>
    </contour>
    <contour>
      <point x="423" y="390" type="line"/>
      <point x="272" y="336" type="line" smooth="yes"/>
      <point x="264" y="334"/>
      <point x="257" y="343"/>
      <point x="263" y="349" type="curve" smooth="yes"/>
      <point x="313" y="403" type="line"/>
      <point x="325" y="393" type="line"/>
      <point x="275" y="339" type="line" smooth="yes"/>
      <point x="269" y="332"/>
      <point x="258" y="349"/>
      <point x="266" y="352" type="curve" smooth="yes"/>
      <point x="417" y="406" type="line"/>
    </contour>
    <contour>
      <point x="293" y="679" type="line"/>
      <point x="277" y="517" type="line" smooth="yes"/>
      <point x="276" y="510"/>
      <point x="258" y="519"/>
      <point x="264" y="524" type="curve" smooth="yes"/>
      <point x="449" y="686" type="line"/>
      <point x="459" y="674" type="line"/>
      <point x="274" y="512" type="line" smooth="yes"/>
      <point x="269" y="507"/>
      <point x="260" y="512"/>
      <point x="261" y="519" type="curve" smooth="yes"/>
      <point x="277" y="681" type="line"/>
    </contour>
  </outline>
</glyph>
<glyph name="numbersign" format="2">
  <advance width="680"/>
  <unicode hex="0023"/>
  <outline>
    <contour>
      <point x="156" y="521" type="line"/>
      <point x="143" y="361" type="line" smooth="yes"/>
      <point x="143" y="361"/>
      <point x="143" y="361"/>
      <point x="143" y="361" type="curve" smooth="yes"/>
      <point x="123" y="117" type="line" smooth="yes"/>
      <point x="123" y="117"/>
      <point x="123" y="117"/>
      <point x="123" y="117" type="curve" smooth="yes"/>
      <point x="111" y="-43" type="line"/>
      <point x="95" y="-41" type="line"/>
      <point x="107" y="119" type="line" smooth="yes"/>
      <point x="107" y="119"/>
      <point x="107" y="119"/>
      <point x="107" y="119" type="curve" smooth="yes"/>
      <point x="127" y="363" type="line" smooth="yes"/>
      <point x="127" y="363"/>
      <point x="127" y="363"/>
      <point x="127" y="363" type="curve" smooth="yes"/>
      <point x="140" y="523" type="line"/>
    </contour>
    <contour>
      <point x="385" y="521" type="line"/>
      <point x="373" y="361" type="line" smooth="yes"/>
      <point x="373" y="361"/>
      <point x="373" y="361"/>
      <point x="373" y="361" type="curve" smooth="yes"/>
      <point x="353" y="117" type="line" smooth="yes"/>
      <point x="353" y="117"/>
      <point x="353" y="117"/>
      <point x="353" y="117" type="curve" smooth="yes"/>
      <point x="340" y="-43" type="line"/>
      <point x="324" y="-41" type="line"/>
      <point x="337" y="119" type="line" smooth="yes"/>
      <point x="337" y="119"/>
      <point x="337" y="119"/>
      <point x="337" y="119" type="curve" smooth="yes"/>
      <point x="357" y="363" type="line" smooth="yes"/>
      <point x="357" y="363"/>
      <point x="357" y="363"/>
      <point x="357" y="363" type="curve" smooth="yes"/>
      <point x="369" y="523" type="line"/>
    </contour>
    <contour>
      <point x="463" y="110" type="line"/>
      <point x="345" y="110" type="line"/>
      <point x="345" y="110"/>
      <point x="345" y="110"/>
      <point x="345" y="110" type="curve"/>
      <point x="115" y="110" type="line"/>
      <point x="115" y="110"/>
      <point x="115" y="110"/>
      <point x="115" y="110" type="curve"/>
      <point x="17" y="110" type="line"/>
      <point x="17" y="126" type="line"/>
      <point x="115" y="126" type="line"/>
      <point x="115" y="126"/>
      <point x="115" y="126"/>
      <point x="115" y="126" type="curve"/>
      <point x="345" y="126" type="line"/>
      <point x="345" y="126"/>
      <point x="345" y="126"/>
      <point x="345" y="126" type="curve"/>
      <point x="463" y="126" type="line"/>
    </contour>
    <contour>
      <point x="463" y="354" type="line"/>
      <point x="365" y="354" type="line"/>
      <point x="365" y="354"/>
      <point x="365" y="354"/>
      <point x="365" y="354" type="curve"/>
      <point x="135" y="354" type="line"/>
      <point x="135" y="354"/>
      <point x="135" y="354"/>
      <point x="135" y="354" type="curve"/>
      <point x="17" y="354" type="line"/>
      <point x="17" y="370" type="line"/>
      <point x="135" y="370" type="line"/>
      <point x="135" y="370"/>
      <point x="135" y="370"/>
      <point x="135" y="370" type="curve"/>
      <point x="365" y="370" type="line"/>
      <point x="365" y="370"/>
      <point x="365" y="370"/>
      <point x="365" y="370" type="curve"/>
      <point x="463" y="370" type="line"/>
    </contour>
    <contour>
      <point x="61" y="150" type="line"/>
      <point x="23" y="112" type="line" smooth="yes"/>
      <point x="17" y="107"/>
      <point x="7" y="112"/>
      <point x="9" y="120" type="curve" smooth="yes"/>
      <point x="47" y="283" type="line"/>
      <point x="63" y="279" type="line"/>
      <point x="25" y="116" type="line" smooth="yes"/>
      <point x="23" y="108"/>
      <point x="6" y="118"/>
      <point x="11" y="124" type="curve" smooth="yes"/>
      <point x="49" y="162" type="line"/>
    </contour>
    <contour>
      <point x="61" y="393" type="line"/>
      <point x="23" y="356" type="line" smooth="yes"/>
      <point x="17" y="351"/>
      <point x="7" y="356"/>
      <point x="9" y="364" type="curve" smooth="yes"/>
      <point x="47" y="526" type="line"/>
      <point x="63" y="522" type="line"/>
      <point x="25" y="360" type="line" smooth="yes"/>
      <point x="23" y="352"/>
      <point x="6" y="362"/>
      <point x="11" y="368" type="curve" smooth="yes"/>
      <point x="49" y="405" type="line"/>
    </contour>
    <contour>
      <point x="631" y="275" type="line"/>
      <point x="469" y="112" type="line" smooth="yes"/>
      <point x="463" y="107"/>
      <point x="453" y="124"/>
      <point x="461" y="126" type="curve" smooth="yes"/>
      <point x="623" y="164" type="line"/>
      <point x="627" y="148" type="line"/>
      <point x="465" y="110" type="line" smooth="yes"/>
      <point x="457" y="108"/>
      <point x="452" y="118"/>
      <point x="457" y="124" type="curve" smooth="yes"/>
      <point x="619" y="287" type="line"/>
    </contour>
    <contour>
      <point x="631" y="518" type="line"/>
      <point x="469" y="356" type="line" smooth="yes"/>
      <point x="463" y="351"/>
      <point x="453" y="368"/>
      <point x="461" y="370" type="curve" smooth="yes"/>
      <point x="623" y="407" type="line"/>
      <point x="627" y="391" type="line"/>
      <point x="465" y="354" type="line" smooth="yes"/>
      <point x="457" y="352"/>
      <point x="452" y="362"/>
      <point x="457" y="368" type="curve" smooth="yes"/>
      <point x="619" y="530" type="line"/>
    </contour>
    <contour>
      <point x="198" y="678" type="line"/>
      <point x="156" y="520" type="line" smooth="yes"/>
      <point x="154" y="512"/>
      <point x="137" y="522"/>
      <point x="143" y="528" type="curve" smooth="yes"/>
      <point x="310" y="686" type="line"/>
      <point x="320" y="674" type="line"/>
      <point x="153" y="516" type="line" smooth="yes"/>
      <point x="148" y="511"/>
      <point x="138" y="516"/>
      <point x="140" y="524" type="curve" smooth="yes"/>
      <point x="182" y="682" type="line"/>
    </contour>
    <contour>
      <point x="427" y="678" type="line"/>
      <point x="385" y="520" type="line" smooth="yes"/>
      <point x="383" y="512"/>
      <point x="366" y="522"/>
      <point x="372" y="528" type="curve" smooth="yes"/>
      <point x="539" y="686" type="line"/>
      <point x="549" y="674" type="line"/>
      <point x="382" y="516" type="line" smooth="yes"/>
      <point x="377" y="511"/>
      <point x="367" y="516"/>
      <point x="369" y="524" type="curve" smooth="yes"/>
      <point x="411" y="682" type="line"/>
    </contour>
    <contour>
      <point x="492" y="-8" type="line"/>
      <point x="334" y="-50" type="line" smooth="yes"/>
      <point x="327" y="-52"/>
      <point x="321" y="-43"/>
      <point x="326" y="-37" type="curve" smooth="yes"/>
      <point x="359" y="5" type="line"/>
      <point x="371" y="-5" type="line"/>
      <point x="338" y="-47" type="line" smooth="yes"/>
      <point x="334" y="-53"/>
      <point x="323" y="-36"/>
      <point x="330" y="-34" type="curve" smooth="yes"/>
      <point x="488" y="8" type="line"/>
    </contour>
    <contour>
      <point x="263" y="-8" type="line"/>
      <point x="105" y="-50" type="line" smooth="yes"/>
      <point x="98" y="-52"/>
      <point x="92" y="-43"/>
      <point x="97" y="-37" type="curve" smooth="yes"/>
      <point x="130" y="5" type="line"/>
      <point x="142" y="-5" type="line"/>
      <point x="109" y="-47" type="line" smooth="yes"/>
      <point x="105" y="-53"/>
      <point x="94" y="-36"/>
      <point x="101" y="-34" type="curve" smooth="yes"/>
      <point x="259" y="8" type="line"/>
    </contour>
    <contour>
      <point x="309" y="518" type="line"/>
      <point x="141" y="356" type="line" smooth="yes"/>
      <point x="133" y="349"/>
      <point x="122" y="360"/>
      <point x="129" y="367" type="curve" smooth="yes"/>
      <point x="162" y="404" type="line"/>
      <point x="174" y="394" type="line"/>
      <point x="141" y="357" type="line" smooth="yes"/>
      <point x="134" y="349"/>
      <point x="122" y="361"/>
      <point x="129" y="368" type="curve" smooth="yes"/>
      <point x="297" y="530" type="line"/>
    </contour>
    <contour>
      <point x="186" y="522" type="line"/>
      <point x="143" y="360" type="line" smooth="yes"/>
      <point x="141" y="354"/>
      <point x="127" y="368"/>
      <point x="133" y="370" type="curve" smooth="yes"/>
      <point x="291" y="407" type="line"/>
      <point x="295" y="391" type="line"/>
      <point x="137" y="354" type="line" smooth="yes"/>
      <point x="131" y="353"/>
      <point x="126" y="358"/>
      <point x="127" y="364" type="curve" smooth="yes"/>
      <point x="170" y="526" type="line"/>
    </contour>
    <contour>
      <point x="538" y="518" type="line"/>
      <point x="371" y="356" type="line" smooth="yes"/>
      <point x="363" y="349"/>
      <point x="352" y="360"/>
      <point x="359" y="367" type="curve" smooth="yes"/>
      <point x="391" y="404" type="line"/>
      <point x="403" y="394" type="line"/>
      <point x="371" y="357" type="line" smooth="yes"/>
      <point x="364" y="349"/>
      <point x="352" y="361"/>
      <point x="359" y="368" type="curve" smooth="yes"/>
      <point x="526" y="530" type="line"/>
    </contour>
    <contour>
      <point x="415" y="522" type="line"/>
      <point x="373" y="360" type="line" smooth="yes"/>
      <point x="371" y="354"/>
      <point x="357" y="368"/>
      <point x="363" y="370" type="curve" smooth="yes"/>
      <point x="520" y="407" type="line"/>
      <point x="524" y="391" type="line"/>
      <point x="367" y="354" type="line" smooth="yes"/>
      <point x="361" y="353"/>
      <point x="356" y="358"/>
      <point x="357" y="364" type="curve" smooth="yes"/>
      <point x="399" y="526" type="line"/>
    </contour>
    <contour>
      <point x="289" y="275" type="line"/>
      <point x="121" y="112" type="line" smooth="yes"/>
      <point x="113" y="105"/>
      <point x="102" y="116"/>
      <point x="109" y="123" type="curve" smooth="yes"/>
      <point x="142" y="161" type="line"/>
      <point x="154" y="151" type="line"/>
      <point x="121" y="113" type="line" smooth="yes"/>
      <point x="114" y="105"/>
      <point x="102" y="117"/>
      <point x="109" y="124" type="curve" smooth="yes"/>
      <point x="277" y="287" type="line"/>
    </contour>
    <contour>
      <point x="166" y="279" type="line"/>
      <point x="123" y="116" type="line" smooth="yes"/>
      <point x="121" y="110"/>
      <point x="107" y="124"/>
      <point x="113" y="126" type="curve" smooth="yes"/>
      <point x="271" y="164" type="line"/>
      <point x="275" y="148" type="line"/>
      <point x="117" y="110" type="line" smooth="yes"/>
      <point x="111" y="109"/>
      <point x="106" y="114"/>
      <point x="107" y="120" type="curve" smooth="yes"/>
      <point x="150" y="283" type="line"/>
    </contour>
    <contour>
      <point x="518" y="275" type="line"/>
      <point x="351" y="112" type="line" smooth="yes"/>
      <point x="343" y="105"/>
      <point x="332" y="115"/>
      <point x="339" y="123" type="curve" smooth="yes"/>
      <point x="371" y="161" type="line"/>
      <point x="383" y="151" type="line"/>
      <point x="351" y="113" type="line" smooth="yes"/>
      <point x="345" y="105"/>
      <point x="332" y="117"/>
      <point x="339" y="124" type="curve" smooth="yes"/>
      <point x="506" y="287" type="line"/>
    </contour>
    <contour>
      <point x="395" y="279" type="line"/>
      <point x="353" y="116" type="line" smooth="yes"/>
      <point x="351" y="110"/>
      <point x="337" y="124"/>
      <point x="343" y="126" type="curve" smooth="yes"/>
      <point x="500" y="164" type="line"/>
      <point x="504" y="148" type="line"/>
      <point x="347" y="110" type="line" smooth="yes"/>
      <point x="341" y="109"/>
      <point x="336" y="114"/>
      <point x="337" y="120" type="curve" smooth="yes"/>
      <point x="379" y="283" type="line"/>
    </contour>
  </outline>
</glyph>
<glyph name="dollar" format="2">
  <advance width="540"/>
  <unicode hex="0024"/>
  <outline>
    <contour>
      <point x="19" y="10" type="line"/>
      <point x="63" y="-5"/>
      <point x="109" y="-12"/>
      <point x="152" y="-12" type="curve"/>
      <point x="152" y="-12"/>
      <point x="152" y="-12"/>
      <point x="152" y="-12" type="curve"/>
      <point x="255" y="-12"/>
      <point x="322" y="26"/>
      <point x="322" y="102" type="curve"/>
      <point x="322" y="102"/>
      <point x="322" y="102"/>
      <point x="322" y="102" type="curve"/>
      <point x="322" y="170"/>
      <point x="246" y="202"/>
      <point x="175" y="233" type="curve"/>
      <point x="175" y="233"/>
      <point x="175" y="233"/>
      <point x="175" y="233" type="curve"/>
      <point x="95" y="268"/>
      <point x="18" y="303"/>
      <point x="18" y="380" type="curve"/>
      <point x="18" y="380"/>
      <point x="18" y="380"/>
      <point x="18" y="380" type="curve"/>
      <point x="18" y="459"/>
      <point x="91" y="506"/>
      <point x="185" y="506" type="curve"/>
      <point x="185" y="506"/>
      <point x="185" y="506"/>
      <point x="185" y="506" type="curve"/>
      <point x="236" y="506"/>
      <point x="277" y="499"/>
      <point x="317" y="486" type="curve"/>
      <point x="311" y="470" type="line"/>
      <point x="273" y="483"/>
      <point x="234" y="490"/>
      <point x="185" y="490" type="curve"/>
      <point x="185" y="490"/>
      <point x="185" y="490"/>
      <point x="185" y="490" type="curve"/>
      <point x="101" y="490"/>
      <point x="34" y="451"/>
      <point x="34" y="380" type="curve"/>
      <point x="34" y="380"/>
      <point x="34" y="380"/>
      <point x="34" y="380" type="curve"/>
      <point x="34" y="311"/>
      <point x="110" y="278"/>
      <point x="181" y="247" type="curve"/>
      <point x="181" y="247"/>
      <point x="181" y="247"/>
      <point x="181" y="247" type="curve"/>
      <point x="262" y="212"/>
      <point x="338" y="178"/>
      <point x="338" y="102" type="curve"/>
      <point x="338" y="102"/>
      <point x="338" y="102"/>
      <point x="338" y="102" type="curve"/>
      <point x="338" y="18"/>
      <point x="265" y="-28"/>
      <point x="152" y="-28" type="curve"/>
      <point x="152" y="-28"/>
      <point x="152" y="-28"/>
      <point x="152" y="-28" type="curve"/>
      <point x="107" y="-28"/>
      <point x="59" y="-21"/>
      <point x="13" y="-6" type="curve"/>
    </contour>
    <contour>
      <point x="177" y="499" type="line"/>
      <point x="184" y="609" type="line"/>
      <point x="200" y="607" type="line"/>
      <point x="193" y="497" type="line"/>
    </contour>
    <contour>
      <point x="136" y="-137" type="line"/>
      <point x="144" y="-19" type="line"/>
      <point x="160" y="-21" type="line"/>
      <point x="152" y="-139" type="line"/>
    </contour>
    <contour>
      <point x="482" y="628" type="line"/>
      <point x="320" y="472" type="line" smooth="yes"/>
      <point x="314" y="467"/>
      <point x="307" y="486"/>
      <point x="314" y="486" type="curve" smooth="yes"/>
      <point x="476" y="478" type="line"/>
      <point x="476" y="462" type="line"/>
      <point x="314" y="470" type="line" smooth="yes"/>
      <point x="307" y="470"/>
      <point x="303" y="479"/>
      <point x="308" y="484" type="curve" smooth="yes"/>
      <point x="470" y="640" type="line"/>
    </contour>
    <contour>
      <point x="60" y="40" type="line"/>
      <point x="22" y="-3" type="line" smooth="yes"/>
      <point x="17" y="-9"/>
      <point x="7" y="-5"/>
      <point x="8" y="3" type="curve" smooth="yes"/>
      <point x="46" y="212" type="line"/>
      <point x="62" y="210" type="line"/>
      <point x="24" y="1" type="line" smooth="yes"/>
      <point x="22" y="-7"/>
      <point x="5" y="1"/>
      <point x="10" y="7" type="curve" smooth="yes"/>
      <point x="48" y="50" type="line"/>
    </contour>
    <contour>
      <point x="240" y="768" type="line"/>
      <point x="200" y="606" type="line" smooth="yes"/>
      <point x="198" y="598"/>
      <point x="181" y="608"/>
      <point x="186" y="614" type="curve" smooth="yes"/>
      <point x="355" y="776" type="line"/>
      <point x="367" y="764" type="line"/>
      <point x="198" y="602" type="line" smooth="yes"/>
      <point x="192" y="597"/>
      <point x="182" y="602"/>
      <point x="184" y="610" type="curve" smooth="yes"/>
      <point x="224" y="772" type="line"/>
    </contour>
    <contour>
      <point x="306" y="-108" type="line"/>
      <point x="146" y="-146" type="line" smooth="yes"/>
      <point x="138" y="-148"/>
      <point x="133" y="-139"/>
      <point x="138" y="-133" type="curve" smooth="yes"/>
      <point x="169" y="-95" type="line"/>
      <point x="181" y="-105" type="line"/>
      <point x="150" y="-143" type="line" smooth="yes"/>
      <point x="145" y="-149"/>
      <point x="135" y="-132"/>
      <point x="142" y="-130" type="curve" smooth="yes"/>
      <point x="302" y="-92" type="line"/>
    </contour>
    <contour>
      <point x="234" y="651" type="line"/>
      <point x="193" y="496" type="line" smooth="yes"/>
      <point x="191" y="488"/>
      <point x="174" y="498"/>
      <point x="179" y="504" type="curve" smooth="yes"/>
      <point x="346" y="664" type="line"/>
      <point x="358" y="652" type="line"/>
      <point x="191" y="492" type="line" smooth="yes"/>
      <point x="185" y="487"/>
      <point x="175" y="492"/>
      <point x="177" y="500" type="curve" smooth="yes"/>
      <point x="218" y="655" type="line"/>
    </contour>
    <contour>
      <point x="312" y="13" type="line"/>
      <point x="154" y="-28" type="line" smooth="yes"/>
      <point x="147" y="-30"/>
      <point x="141" y="-21"/>
      <point x="146" y="-15" type="curve" smooth="yes"/>
      <point x="179" y="25" type="line"/>
      <point x="191" y="15" type="line"/>
      <point x="158" y="-25" type="line" smooth="yes"/>
      <point x="153" y="-31"/>
      <point x="142" y="-14"/>
      <point x="150" y="-12" type="curve" smooth="yes"/>
      <point x="308" y="29" type="line"/>
    </contour>
  </outline>
</glyph>
<glyph name="parenleft" format="2">
  <advance width="481"/>
  <unicode hex="0028"/>
  <outline>
    <contour>
      <point x="271" y="636" type="line"/>
      <point x="135" y="595"/>
      <point x="27" y="466"/>
      <point x="27" y="240" type="curve"/>
      <point x="27" y="240"/>
      <point x="27" y="240"/>
      <point x="27" y="240" type="curve"/>
      <point x="27" y="14"/>
      <point x="135" y="-115"/>
      <point x="271" y="-156" type="curve"/>
      <point x="267" y="-172" type="line"/>
      <point x="125" y="-129"/>
      <point x="11" y="6"/>
      <point x="11" y="240" type="curve"/>
      <point x="11" y="240"/>
      <point x="11" y="240"/>
      <point x="11" y="240" type="curve"/>
      <point x="11" y="474"/>
      <point x="125" y="609"/>
      <point x="267" y="652" type="curve"/>
    </contour>
    <contour>
      <point x="437" y="828" type="line"/>
      <point x="275" y="639" type="line" smooth="yes"/>
      <point x="270" y="633"/>
      <point x="260" y="650"/>
      <point x="267" y="652" type="curve" smooth="yes"/>
      <point x="429" y="686" type="line"/>
      <point x="433" y="670" type="line"/>
      <point x="271" y="636" type="line" smooth="yes"/>
      <point x="263" y="635"/>
      <point x="258" y="643"/>
      <point x="263" y="649" type="curve" smooth="yes"/>
      <point x="425" y="838" type="line"/>
    </contour>
    <contour>
      <point x="437" y="-4" type="line"/>
      <point x="275" y="-170" type="line" smooth="yes"/>
      <point x="270" y="-175"/>
      <point x="261" y="-157"/>
      <point x="268" y="-156" type="curve" smooth="yes"/>
      <point x="430" y="-145" type="line"/>
      <point x="432" y="-161" type="line"/>
      <point x="270" y="-172" type="line" smooth="yes"/>
      <point x="262" y="-172"/>
      <point x="258" y="-164"/>
      <point x="263" y="-158" type="curve" smooth="yes"/>
      <point x="425" y="8" type="line"/>
    </contour>
  </outline>
</glyph>
<glyph name="plus" format="2">
  <advance width="540"/>
  <unicode hex="002B"/>
  <outline>
    <contour>
      <point x="338" y="202" type="line"/>
      <point x="2" y="202" type="line"/>
      <point x="2" y="218" type="line"/>
      <point x="338" y="218" type="line"/>
    </contour>
    <contour>
      <point x="176" y="382" type="line"/>
      <point x="176" y="36" type="line"/>
      <point x="160" y="36" type="line"/>
      <point x="160" y="382" type="line"/>
    </contour>
    <contour>
      <point x="46" y="241" type="line"/>
      <point x="8" y="204" type="line" smooth="yes"/>
      <point x="2" y="199"/>
      <point x="-8" y="204"/>
      <point x="-6" y="212" type="curve" smooth="yes"/>
      <point x="32" y="376" type="line"/>
      <point x="48" y="372" type="line"/>
      <point x="10" y="208" type="line" smooth="yes"/>
      <point x="8" y="200"/>
      <point x="-9" y="210"/>
      <point x="-4" y="216" type="curve" smooth="yes"/>
      <point x="34" y="253" type="line"/>
    </contour>
    <contour>
      <point x="506" y="368" type="line"/>
      <point x="344" y="204" type="line" smooth="yes"/>
      <point x="338" y="199"/>
      <point x="328" y="216"/>
      <point x="336" y="218" type="curve" smooth="yes"/>
      <point x="498" y="255" type="line"/>
      <point x="502" y="239" type="line"/>
      <point x="340" y="202" type="line" smooth="yes"/>
      <point x="332" y="200"/>
      <point x="327" y="210"/>
      <point x="332" y="216" type="curve" smooth="yes"/>
      <point x="494" y="380" type="line"/>
    </contour>
    <contour>
      <point x="211" y="542" type="line"/>
      <point x="176" y="380" type="line" smooth="yes"/>
      <point x="174" y="373"/>
      <point x="157" y="382"/>
      <point x="162" y="388" type="curve" smooth="yes"/>
      <point x="328" y="550" type="line"/>
      <point x="340" y="538" type="line"/>
      <point x="174" y="376" type="line" smooth="yes"/>
      <point x="168" y="371"/>
      <point x="159" y="376"/>
      <point x="160" y="384" type="curve" smooth="yes"/>
      <point x="195" y="546" type="line"/>
    </contour>
    <contour>
      <point x="336" y="66" type="line"/>
      <point x="170" y="28" type="line" smooth="yes"/>
      <point x="162" y="26"/>
      <point x="157" y="36"/>
      <point x="162" y="41" type="curve" smooth="yes"/>
      <point x="197" y="79" type="line"/>
      <point x="209" y="69" type="line"/>
      <point x="174" y="31" type="line" smooth="yes"/>
      <point x="169" y="25"/>
      <point x="159" y="42"/>
      <point x="166" y="44" type="curve" smooth="yes"/>
      <point x="332" y="82" type="line"/>
    </contour>
    <contour>
      <point x="209" y="242" type="line"/>
      <point x="174" y="205" type="line" smooth="yes"/>
      <point x="167" y="197"/>
      <point x="155" y="208"/>
      <point x="162" y="216" type="curve" smooth="yes"/>
      <point x="328" y="380" type="line"/>
      <point x="340" y="368" type="line"/>
      <point x="174" y="204" type="line" smooth="yes"/>
      <point x="166" y="197"/>
      <point x="155" y="208"/>
      <point x="162" y="215" type="curve" smooth="yes"/>
      <point x="197" y="252" type="line"/>
    </contour>
    <contour>
      <point x="211" y="372" type="line"/>
      <point x="176" y="208" type="line" smooth="yes"/>
      <point x="175" y="203"/>
      <point x="161" y="217"/>
      <point x="166" y="218" type="curve" smooth="yes"/>
      <point x="332" y="255" type="line"/>
      <point x="336" y="239" type="line"/>
      <point x="170" y="202" type="line" smooth="yes"/>
      <point x="164" y="201"/>
      <point x="159" y="206"/>
      <point x="160" y="212" type="curve" smooth="yes"/>
      <point x="195" y="376" type="line"/>
    </contour>
  </outline>
</glyph>
<glyph name="comma" format="2">
  <advance width="274"/>
  <unicode hex="002C"/>
  <outline>
    <contour>
      <point x="21" y="-123" type="line"/>
      <point x="72" y="-90"/>
      <point x="72" y="-48"/>
      <point x="41" y="-6" type="curve"/>
      <point x="55" y="4" type="line"/>
      <point x="90" y="-46"/>
      <point x="90" y="-98"/>
      <point x="29" y="-137" type="curve"/>
    </contour>
    <contour>
      <point x="68" y="160" type="line"/>
      <point x="56" y="-2" type="line" smooth="yes"/>
      <point x="55" y="-9"/>
      <point x="37" y="0"/>
      <point x="43" y="5" type="curve" smooth="yes"/>
      <point x="222" y="167" type="line"/>
      <point x="232" y="155" type="line"/>
      <point x="53" y="-7" type="line" smooth="yes"/>
      <point x="48" y="-12"/>
      <point x="39" y="-8"/>
      <point x="40" y="0" type="curve" smooth="yes"/>
      <point x="52" y="162" type="line"/>
    </contour>
  </outline>
</glyph>
<glyph name="hyphen" format="2">
  <advance width="340"/>
  <unicode hex="002D"/>
  <outline>
    <contour>
      <point x="145" y="227" type="line"/>
      <point x="-1" y="194" type="line"/>
      <point x="-5" y="210" type="line"/>
      <point x="141" y="243" type="line"/>
    </contour>
    <contour>
      <point x="39" y="219" type="line"/>
      <point x="1" y="195" type="line" smooth="yes"/>
      <point x="-5" y="191"/>
      <point x="-13" y="197"/>
      <point x="-11" y="204" type="curve" smooth="yes"/>
      <point x="27" y="353" type="line"/>
      <point x="43" y="349" type="line"/>
      <point x="5" y="200" type="line" smooth="yes"/>
      <point x="3" y="193"/>
      <point x="-13" y="205"/>
      <point x="-7" y="209" type="curve" smooth="yes"/>
      <point x="31" y="233" type="line"/>
    </contour>
    <contour>
      <point x="311" y="406" type="line"/>
      <point x="149" y="230" type="line" smooth="yes"/>
      <point x="143" y="224"/>
      <point x="133" y="240"/>
      <point x="141" y="243" type="curve" smooth="yes"/>
      <point x="303" y="294" type="line"/>
      <point x="307" y="278" type="line"/>
      <point x="145" y="227" type="line" smooth="yes"/>
      <point x="138" y="225"/>
      <point x="132" y="234"/>
      <point x="137" y="240" type="curve" smooth="yes"/>
      <point x="299" y="416" type="line"/>
    </contour>
  </outline>
</glyph>
<glyph name="zero" format="2">
  <advance width="646"/>
  <unicode hex="0030"/>
  <outline>
    <contour>
      <point x="223" y="542" type="curve"/>
      <point x="223" y="542"/>
      <point x="223" y="542"/>
      <point x="223" y="542" type="curve"/>
      <point x="357" y="542"/>
      <point x="442" y="417"/>
      <point x="442" y="239" type="curve"/>
      <point x="442" y="239"/>
      <point x="442" y="239"/>
      <point x="442" y="239" type="curve"/>
      <point x="442" y="61"/>
      <point x="357" y="-62"/>
      <point x="223" y="-62" type="curve"/>
      <point x="223" y="-62"/>
      <point x="223" y="-62"/>
      <point x="223" y="-62" type="curve"/>
      <point x="89" y="-62"/>
      <point x="4" y="63"/>
      <point x="4" y="241" type="curve"/>
      <point x="4" y="241"/>
      <point x="4" y="241"/>
      <point x="4" y="241" type="curve"/>
      <point x="4" y="419"/>
      <point x="89" y="542"/>
    </contour>
    <contour>
      <point x="223" y="526" type="curve"/>
      <point x="97" y="526"/>
      <point x="20" y="409"/>
      <point x="20" y="241" type="curve"/>
      <point x="20" y="241"/>
      <point x="20" y="241"/>
      <point x="20" y="241" type="curve"/>
      <point x="20" y="73"/>
      <point x="97" y="-46"/>
      <point x="223" y="-46" type="curve"/>
      <point x="223" y="-46"/>
      <point x="223" y="-46"/>
      <point x="223" y="-46" type="curve"/>
      <point x="349" y="-46"/>
      <point x="426" y="71"/>
      <point x="426" y="239" type="curve"/>
      <point x="426" y="239"/>
      <point x="426" y="239"/>
      <point x="426" y="239" type="curve"/>
      <point x="426" y="407"/>
      <point x="349" y="526"/>
      <point x="223" y="526" type="curve"/>
      <point x="223" y="526"/>
      <point x="223" y="526"/>
    </contour>
  </outline>
</glyph>
<glyph name="two" format="2">
  <advance width="519"/>
  <unicode hex="0032"/>
  <outline>
    <contour>
      <point x="9" y="517" type="line"/>
      <point x="47" y="529"/>
      <point x="86" y="536"/>
      <point x="124" y="536" type="curve"/>
      <point x="124" y="536"/>
      <point x="124" y="536"/>
      <point x="124" y="536" type="curve"/>
      <point x="235" y="536"/>
      <point x="302" y="482"/>
      <point x="302" y="394" type="curve"/>
      <point x="302" y="394"/>
      <point x="302" y="394"/>
      <point x="302" y="394" type="curve"/>
      <point x="302" y="315"/>
      <point x="252" y="259"/>
      <point x="192" y="197" type="curve" smooth="yes"/>
      <point x="192" y="197"/>
      <point x="192" y="197"/>
      <point x="192" y="197" type="curve" smooth="yes"/>
      <point x="130" y="135"/>
      <point x="58" y="67"/>
      <point x="21" y="-38" type="curve" smooth="yes"/>
      <point x="19" y="-43"/>
      <point x="8" y="-27"/>
      <point x="14" y="-27" type="curve" smooth="yes"/>
      <point x="73" y="-31"/>
      <point x="211" y="-29"/>
      <point x="296" y="-22" type="curve"/>
      <point x="298" y="-38" type="line"/>
      <point x="211" y="-45"/>
      <point x="73" y="-47"/>
      <point x="12" y="-43" type="curve" smooth="yes"/>
      <point x="7" y="-43"/>
      <point x="4" y="-37"/>
      <point x="5" y="-32" type="curve" smooth="yes"/>
      <point x="44" y="75"/>
      <point x="118" y="145"/>
      <point x="180" y="209" type="curve" smooth="yes"/>
      <point x="180" y="209"/>
      <point x="180" y="209"/>
      <point x="180" y="209" type="curve" smooth="yes"/>
      <point x="238" y="267"/>
      <point x="286" y="319"/>
      <point x="286" y="394" type="curve"/>
      <point x="286" y="394"/>
      <point x="286" y="394"/>
      <point x="286" y="394" type="curve"/>
      <point x="286" y="474"/>
      <point x="225" y="520"/>
      <point x="124" y="520" type="curve"/>
      <point x="124" y="520"/>
      <point x="124" y="520"/>
      <point x="124" y="520" type="curve"/>
      <point x="88" y="520"/>
      <point x="51" y="513"/>
      <point x="13" y="501" type="curve"/>
    </contour>
    <contour>
      <point x="47" y="492" type="line"/>
      <point x="9" y="501" type="line" smooth="yes"/>
      <point x="5" y="502"/>
      <point x="2" y="507"/>
      <point x="3" y="511" type="curve" smooth="yes"/>
      <point x="41" y="666" type="line"/>
      <point x="57" y="662" type="line"/>
      <point x="19" y="507" type="line" smooth="yes"/>
      <point x="18" y="503"/>
      <point x="9" y="518"/>
      <point x="13" y="517" type="curve" smooth="yes"/>
      <point x="51" y="508" type="line"/>
    </contour>
    <contour>
      <point x="485" y="161" type="line"/>
      <point x="303" y="-35" type="line" smooth="yes"/>
      <point x="298" y="-41"/>
      <point x="288" y="-24"/>
      <point x="296" y="-22" type="curve" smooth="yes"/>
      <point x="458" y="8" type="line"/>
      <point x="460" y="-8" type="line"/>
      <point x="298" y="-38" type="line" smooth="yes"/>
      <point x="291" y="-39"/>
      <point x="286" y="-30"/>
      <point x="291" y="-25" type="curve" smooth="yes"/>
      <point x="473" y="171" type="line"/>
    </contour>
    <contour>
      <point x="34" y="-3" type="line"/>
      <point x="20" y="-38" type="line" smooth="yes"/>
      <point x="17" y="-46"/>
      <point x="2" y="-34"/>
      <point x="8" y="-29" type="curve" smooth="yes"/>
      <point x="209" y="131" type="line"/>
      <point x="219" y="119" type="line"/>
      <point x="18" y="-41" type="line" smooth="yes"/>
      <point x="12" y="-46"/>
      <point x="3" y="-40"/>
      <point x="6" y="-32" type="curve" smooth="yes"/>
      <point x="20" y="3" type="line"/>
    </contour>
  </outline>
</glyph>
<glyph name="three" format="2">
  <advance width="523"/>
  <unicode hex="0033"/>
  <outline>
    <contour>
      <point x="28" y="516" type="line"/>
      <point x="92" y="522"/>
      <point x="170" y="525"/>
      <point x="280" y="525" type="curve" smooth="yes"/>
      <point x="286" y="525"/>
      <point x="290" y="518"/>
      <point x="287" y="512" type="curve" smooth="yes"/>
      <point x="113" y="261" type="line" smooth="yes"/>
      <point x="109" y="256"/>
      <point x="100" y="274"/>
      <point x="107" y="274" type="curve" smooth="yes"/>
      <point x="255" y="265"/>
      <point x="326" y="197"/>
      <point x="326" y="104" type="curve"/>
      <point x="326" y="104"/>
      <point x="326" y="104"/>
      <point x="326" y="104" type="curve"/>
      <point x="326" y="3"/>
      <point x="240" y="-60"/>
      <point x="121" y="-60" type="curve"/>
      <point x="121" y="-60"/>
      <point x="121" y="-60"/>
      <point x="121" y="-60" type="curve"/>
      <point x="86" y="-60"/>
      <point x="51" y="-53"/>
      <point x="17" y="-41" type="curve"/>
      <point x="23" y="-25" type="line"/>
      <point x="55" y="-37"/>
      <point x="88" y="-44"/>
      <point x="121" y="-44" type="curve"/>
      <point x="121" y="-44"/>
      <point x="121" y="-44"/>
      <point x="121" y="-44" type="curve"/>
      <point x="230" y="-44"/>
      <point x="310" y="11"/>
      <point x="310" y="104" type="curve"/>
      <point x="310" y="104"/>
      <point x="310" y="104"/>
      <point x="310" y="104" type="curve"/>
      <point x="310" y="191"/>
      <point x="243" y="249"/>
      <point x="105" y="258" type="curve" smooth="yes"/>
      <point x="99" y="258"/>
      <point x="96" y="265"/>
      <point x="99" y="271" type="curve" smooth="yes"/>
      <point x="273" y="522" type="line" smooth="yes"/>
      <point x="277" y="527"/>
      <point x="286" y="509"/>
      <point x="280" y="509" type="curve" smooth="yes"/>
      <point x="170" y="509"/>
      <point x="94" y="506"/>
      <point x="30" y="500" type="curve"/>
    </contour>
    <contour>
      <point x="70" y="517" type="line"/>
      <point x="32" y="501" type="line" smooth="yes"/>
      <point x="26" y="498"/>
      <point x="20" y="503"/>
      <point x="21" y="510" type="curve" smooth="yes"/>
      <point x="59" y="682" type="line"/>
      <point x="75" y="678" type="line"/>
      <point x="37" y="506" type="line" smooth="yes"/>
      <point x="35" y="500"/>
      <point x="20" y="513"/>
      <point x="26" y="515" type="curve" smooth="yes"/>
      <point x="64" y="531" type="line"/>
    </contour>
    <contour>
      <point x="64" y="9" type="line"/>
      <point x="26" y="-38" type="line" smooth="yes"/>
      <point x="21" y="-44"/>
      <point x="11" y="-40"/>
      <point x="12" y="-32" type="curve" smooth="yes"/>
      <point x="50" y="178" type="line"/>
      <point x="66" y="176" type="line"/>
      <point x="28" y="-34" type="line" smooth="yes"/>
      <point x="26" y="-43"/>
      <point x="9" y="-34"/>
      <point x="14" y="-28" type="curve" smooth="yes"/>
      <point x="52" y="19" type="line"/>
    </contour>
    <contour>
      <point x="270" y="556" type="line"/>
      <point x="287" y="520" type="line" smooth="yes"/>
      <point x="289" y="516"/>
      <point x="271" y="520"/>
      <point x="275" y="523" type="curve" smooth="yes"/>
      <point x="493" y="686" type="line"/>
      <point x="503" y="674" type="line"/>
      <point x="285" y="511" type="line" smooth="yes"/>
      <point x="281" y="508"/>
      <point x="275" y="509"/>
      <point x="273" y="514" type="curve" smooth="yes"/>
      <point x="256" y="550" type="line"/>
    </contour>
    <contour>
      <point x="102" y="314" type="line"/>
      <point x="114" y="268" type="line" smooth="yes"/>
      <point x="115" y="263"/>
      <point x="97" y="269"/>
      <point x="101" y="273" type="curve" smooth="yes"/>
      <point x="308" y="421" type="line"/>
      <point x="318" y="407" type="line"/>
      <point x="111" y="259" type="line" smooth="yes"/>
      <point x="106" y="256"/>
      <point x="100" y="259"/>
      <point x="98" y="264" type="curve" smooth="yes"/>
      <point x="86" y="310" type="line"/>
    </contour>
  </outline>
</glyph>
<glyph name="five" format="2">
  <advance width="527"/>
  <unicode hex="0035"/>
  <outline>
    <contour>
      <point x="15" y="-25" type="line"/>
      <point x="49" y="-37"/>
      <point x="83" y="-44"/>
      <point x="116" y="-44" type="curve"/>
      <point x="116" y="-44"/>
      <point x="116" y="-44"/>
      <point x="116" y="-44" type="curve"/>
      <point x="225" y="-44"/>
      <point x="302" y="14"/>
      <point x="302" y="114" type="curve"/>
      <point x="302" y="114"/>
      <point x="302" y="114"/>
      <point x="302" y="114" type="curve"/>
      <point x="302" y="218"/>
      <point x="217" y="278"/>
      <point x="33" y="253" type="curve" smooth="yes"/>
      <point x="28" y="252"/>
      <point x="24" y="257"/>
      <point x="24" y="262" type="curve" smooth="yes"/>
      <point x="48" y="517" type="line" smooth="yes"/>
      <point x="48" y="521"/>
      <point x="52" y="524"/>
      <point x="56" y="524" type="curve" smooth="yes"/>
      <point x="287" y="523" type="line"/>
      <point x="287" y="507" type="line"/>
      <point x="56" y="508" type="line" smooth="yes"/>
      <point x="52" y="508"/>
      <point x="64" y="519"/>
      <point x="64" y="515" type="curve" smooth="yes"/>
      <point x="40" y="260" type="line" smooth="yes"/>
      <point x="39" y="255"/>
      <point x="26" y="268"/>
      <point x="31" y="269" type="curve" smooth="yes"/>
      <point x="227" y="296"/>
      <point x="318" y="226"/>
      <point x="318" y="114" type="curve"/>
      <point x="318" y="114"/>
      <point x="318" y="114"/>
      <point x="318" y="114" type="curve"/>
      <point x="318" y="6"/>
      <point x="235" y="-60"/>
      <point x="116" y="-60" type="curve"/>
      <point x="116" y="-60"/>
      <point x="116" y="-60"/>
      <point x="116" y="-60" type="curve"/>
      <point x="81" y="-60"/>
      <point x="45" y="-53"/>
      <point x="9" y="-39" type="curve"/>
    </contour>
    <contour>
      <point x="455" y="674" type="line"/>
      <point x="293" y="509" type="line" smooth="yes"/>
      <point x="288" y="504"/>
      <point x="279" y="523"/>
      <point x="287" y="523" type="curve" smooth="yes"/>
      <point x="449" y="532" type="line"/>
      <point x="449" y="516" type="line"/>
      <point x="287" y="507" type="line" smooth="yes"/>
      <point x="280" y="507"/>
      <point x="276" y="515"/>
      <point x="281" y="521" type="curve" smooth="yes"/>
      <point x="443" y="686" type="line"/>
    </contour>
    <contour>
      <point x="56" y="9" type="line"/>
      <point x="18" y="-37" type="line" smooth="yes"/>
      <point x="13" y="-43"/>
      <point x="3" y="-39"/>
      <point x="4" y="-31" type="curve" smooth="yes"/>
      <point x="42" y="178" type="line"/>
      <point x="58" y="176" type="line"/>
      <point x="20" y="-33" type="line" smooth="yes"/>
      <point x="18" y="-42"/>
      <point x="1" y="-33"/>
      <point x="6" y="-27" type="curve" smooth="yes"/>
      <point x="44" y="19" type="line"/>
    </contour>
    <contour>
      <point x="66" y="284" type="line"/>
      <point x="38" y="255" type="line" smooth="yes"/>
      <point x="30" y="248"/>
      <point x="19" y="259"/>
      <point x="26" y="267" type="curve" smooth="yes"/>
      <point x="197" y="433" type="line"/>
      <point x="209" y="421" type="line"/>
      <point x="38" y="255" type="line" smooth="yes"/>
      <point x="30" y="248"/>
      <point x="19" y="259"/>
      <point x="26" y="267" type="curve" smooth="yes"/>
      <point x="54" y="296" type="line"/>
    </contour>
    <contour>
      <point x="218" y="544" type="line"/>
      <point x="58" y="508" type="line" smooth="yes"/>
      <point x="52" y="507"/>
      <point x="47" y="512"/>
      <point x="48" y="518" type="curve" smooth="yes"/>
      <point x="88" y="682" type="line"/>
      <point x="104" y="678" type="line"/>
      <point x="64" y="514" type="line" smooth="yes"/>
      <point x="62" y="508"/>
      <point x="48" y="523"/>
      <point x="54" y="524" type="curve" smooth="yes"/>
      <point x="214" y="560" type="line"/>
    </contour>
  </outline>
</glyph>
<glyph name="six" format="2">
  <advance width="570"/>
  <unicode hex="0036"/>
  <outline>
    <contour>
      <point x="96" y="-36" type="line"/>
      <point x="51" y="-4"/>
      <point x="25" y="49"/>
      <point x="25" y="114" type="curve"/>
      <point x="25" y="114"/>
      <point x="25" y="114"/>
      <point x="25" y="114" type="curve"/>
      <point x="25" y="217"/>
      <point x="98" y="288"/>
      <point x="208" y="288" type="curve"/>
      <point x="208" y="288"/>
      <point x="208" y="288"/>
      <point x="208" y="288" type="curve"/>
      <point x="296" y="288"/>
      <point x="374" y="228"/>
      <point x="374" y="116" type="curve"/>
      <point x="374" y="116"/>
      <point x="374" y="116"/>
      <point x="374" y="116" type="curve"/>
      <point x="374" y="15"/>
      <point x="302" y="-64"/>
      <point x="192" y="-64" type="curve"/>
      <point x="192" y="-64"/>
      <point x="192" y="-64"/>
      <point x="192" y="-64" type="curve"/>
      <point x="84" y="-64"/>
      <point x="0" y="22"/>
      <point x="0" y="207" type="curve" smooth="yes"/>
      <point x="0" y="207"/>
      <point x="0" y="207"/>
      <point x="0" y="207" type="curve" smooth="yes"/>
      <point x="-3" y="450"/>
      <point x="95" y="536"/>
      <point x="232" y="536" type="curve"/>
      <point x="232" y="536"/>
      <point x="232" y="536"/>
      <point x="232" y="536" type="curve"/>
      <point x="265" y="536"/>
      <point x="300" y="530"/>
      <point x="337" y="517" type="curve"/>
      <point x="331" y="501" type="line"/>
      <point x="296" y="514"/>
      <point x="263" y="520"/>
      <point x="232" y="520" type="curve"/>
      <point x="232" y="520"/>
      <point x="232" y="520"/>
      <point x="232" y="520" type="curve"/>
      <point x="101" y="520"/>
      <point x="13" y="438"/>
      <point x="16" y="207" type="curve" smooth="yes"/>
      <point x="16" y="207"/>
      <point x="16" y="207"/>
      <point x="16" y="207" type="curve" smooth="yes"/>
      <point x="16" y="34"/>
      <point x="90" y="-48"/>
      <point x="192" y="-48" type="curve"/>
      <point x="192" y="-48"/>
      <point x="192" y="-48"/>
      <point x="192" y="-48" type="curve"/>
      <point x="292" y="-48"/>
      <point x="358" y="23"/>
      <point x="358" y="116" type="curve"/>
      <point x="358" y="116"/>
      <point x="358" y="116"/>
      <point x="358" y="116" type="curve"/>
      <point x="358" y="218"/>
      <point x="288" y="272"/>
      <point x="208" y="272" type="curve"/>
      <point x="208" y="272"/>
      <point x="208" y="272"/>
      <point x="208" y="272" type="curve"/>
      <point x="108" y="272"/>
      <point x="41" y="209"/>
      <point x="41" y="114" type="curve"/>
      <point x="41" y="114"/>
      <point x="41" y="114"/>
      <point x="41" y="114" type="curve"/>
      <point x="41" y="55"/>
      <point x="65" y="6"/>
      <point x="106" y="-24" type="curve"/>
    </contour>
    <contour>
      <point x="190" y="385" type="line"/>
      <point x="106" y="309"/>
      <point x="35" y="187"/>
      <point x="52" y="39" type="curve"/>
      <point x="36" y="37" type="line"/>
      <point x="19" y="191"/>
      <point x="92" y="317"/>
      <point x="180" y="397" type="curve"/>
    </contour>
    <contour>
      <point x="502" y="658" type="line"/>
      <point x="340" y="503" type="line" smooth="yes"/>
      <point x="334" y="498"/>
      <point x="327" y="517"/>
      <point x="334" y="517" type="curve" smooth="yes"/>
      <point x="496" y="509" type="line"/>
      <point x="496" y="493" type="line"/>
      <point x="334" y="501" type="line" smooth="yes"/>
      <point x="327" y="501"/>
      <point x="323" y="510"/>
      <point x="328" y="515" type="curve" smooth="yes"/>
      <point x="490" y="670" type="line"/>
    </contour>
  </outline>
</glyph>
<glyph name="eight" format="2">
  <advance width="568"/>
  <unicode hex="0038"/>
  <outline>
    <contour>
      <point x="185" y="264" type="curve"/>
      <point x="185" y="264"/>
      <point x="185" y="264"/>
      <point x="185" y="264" type="curve"/>
      <point x="270" y="264"/>
      <point x="331" y="311"/>
      <point x="331" y="398" type="curve"/>
      <point x="331" y="398"/>
      <point x="331" y="398"/>
      <point x="331" y="398" type="curve"/>
      <point x="331" y="474"/>
      <point x="269" y="528"/>
      <point x="185" y="528" type="curve"/>
      <point x="185" y="528"/>
      <point x="185" y="528"/>
      <point x="185" y="528" type="curve"/>
      <point x="100" y="528"/>
      <point x="37" y="474"/>
      <point x="37" y="398" type="curve"/>
      <point x="37" y="398"/>
      <point x="37" y="398"/>
      <point x="37" y="398" type="curve"/>
      <point x="37" y="311"/>
      <point x="100" y="264"/>
    </contour>
    <contour>
      <point x="185" y="-64" type="curve"/>
      <point x="185" y="-64"/>
      <point x="185" y="-64"/>
      <point x="185" y="-64" type="curve"/>
      <point x="79" y="-64"/>
      <point x="3" y="3"/>
      <point x="3" y="96" type="curve"/>
      <point x="3" y="96"/>
      <point x="3" y="96"/>
      <point x="3" y="96" type="curve"/>
      <point x="3" y="203"/>
      <point x="82" y="264"/>
      <point x="185" y="264" type="curve"/>
      <point x="185" y="264"/>
      <point x="185" y="264"/>
      <point x="185" y="264" type="curve"/>
      <point x="286" y="264"/>
      <point x="365" y="203"/>
      <point x="365" y="96" type="curve"/>
      <point x="365" y="96"/>
      <point x="365" y="96"/>
      <point x="365" y="96" type="curve"/>
      <point x="365" y="3"/>
      <point x="289" y="-64"/>
    </contour>
    <contour>
      <point x="185" y="248" type="curve"/>
      <point x="92" y="248"/>
      <point x="21" y="302"/>
      <point x="21" y="398" type="curve"/>
      <point x="21" y="398"/>
      <point x="21" y="398"/>
      <point x="21" y="398" type="curve"/>
      <point x="21" y="482"/>
      <point x="90" y="544"/>
      <point x="185" y="544" type="curve"/>
      <point x="185" y="544"/>
      <point x="185" y="544"/>
      <point x="185" y="544" type="curve"/>
      <point x="279" y="544"/>
      <point x="347" y="482"/>
      <point x="347" y="398" type="curve"/>
      <point x="347" y="398"/>
      <point x="347" y="398"/>
      <point x="347" y="398" type="curve"/>
      <point x="347" y="302"/>
      <point x="278" y="248"/>
      <point x="185" y="248" type="curve"/>
      <point x="185" y="248"/>
      <point x="185" y="248"/>
    </contour>
    <contour>
      <point x="185" y="-48" type="curve"/>
      <point x="279" y="-48"/>
      <point x="349" y="11"/>
      <point x="349" y="96" type="curve"/>
      <point x="349" y="96"/>
      <point x="349" y="96"/>
      <point x="349" y="96" type="curve"/>
      <point x="349" y="193"/>
      <point x="278" y="248"/>
      <point x="185" y="248" type="curve"/>
      <point x="185" y="248"/>
      <point x="185" y="248"/>
      <point x="185" y="248" type="curve"/>
      <point x="90" y="248"/>
      <point x="19" y="193"/>
      <point x="19" y="96" type="curve"/>
      <point x="19" y="96"/>
      <point x="19" y="96"/>
      <point x="19" y="96" type="curve"/>
      <point x="19" y="11"/>
      <point x="89" y="-48"/>
      <point x="185" y="-48" type="curve"/>
      <point x="185" y="-48"/>
      <point x="185" y="-48"/>
    </contour>
    <contour>
      <point x="137" y="362" type="line"/>
      <point x="192" y="260" type="line" smooth="yes"/>
      <point x="194" y="256"/>
      <point x="178" y="262"/>
      <point x="182" y="263" type="curve" smooth="yes"/>
      <point x="436" y="365" type="line"/>
      <point x="442" y="351" type="line"/>
      <point x="188" y="249" type="line" smooth="yes"/>
      <point x="184" y="247"/>
      <point x="180" y="249"/>
      <point x="178" y="252" type="curve" smooth="yes"/>
      <point x="123" y="354" type="line"/>
    </contour>
  </outline>
</glyph>
<glyph name="nine" format="2">
  <advance width="570"/>
  <unicode hex="0039"/>
  <outline>
    <contour>
      <point x="274" y="514" type="line"/>
      <point x="319" y="482"/>
      <point x="345" y="429"/>
      <point x="345" y="364" type="curve"/>
      <point x="345" y="364"/>
      <point x="345" y="364"/>
      <point x="345" y="364" type="curve"/>
      <point x="345" y="261"/>
      <point x="272" y="190"/>
      <point x="162" y="190" type="curve"/>
      <point x="162" y="190"/>
      <point x="162" y="190"/>
      <point x="162" y="190" type="curve"/>
      <point x="74" y="190"/>
      <point x="-4" y="250"/>
      <point x="-4" y="362" type="curve"/>
      <point x="-4" y="362"/>
      <point x="-4" y="362"/>
      <point x="-4" y="362" type="curve"/>
      <point x="-4" y="463"/>
      <point x="68" y="542"/>
      <point x="178" y="542" type="curve"/>
      <point x="178" y="542"/>
      <point x="178" y="542"/>
      <point x="178" y="542" type="curve"/>
      <point x="286" y="542"/>
      <point x="370" y="456"/>
      <point x="370" y="271" type="curve" smooth="yes"/>
      <point x="370" y="271"/>
      <point x="370" y="271"/>
      <point x="370" y="271" type="curve" smooth="yes"/>
      <point x="373" y="28"/>
      <point x="275" y="-58"/>
      <point x="138" y="-58" type="curve"/>
      <point x="138" y="-58"/>
      <point x="138" y="-58"/>
      <point x="138" y="-58" type="curve"/>
      <point x="105" y="-58"/>
      <point x="70" y="-52"/>
      <point x="33" y="-39" type="curve"/>
      <point x="39" y="-23" type="line"/>
      <point x="74" y="-36"/>
      <point x="107" y="-42"/>
      <point x="138" y="-42" type="curve"/>
      <point x="138" y="-42"/>
      <point x="138" y="-42"/>
      <point x="138" y="-42" type="curve"/>
      <point x="269" y="-42"/>
      <point x="357" y="40"/>
      <point x="354" y="271" type="curve" smooth="yes"/>
      <point x="354" y="271"/>
      <point x="354" y="271"/>
      <point x="354" y="271" type="curve" smooth="yes"/>
      <point x="354" y="444"/>
      <point x="280" y="526"/>
      <point x="178" y="526" type="curve"/>
      <point x="178" y="526"/>
      <point x="178" y="526"/>
      <point x="178" y="526" type="curve"/>
      <point x="78" y="526"/>
      <point x="12" y="455"/>
      <point x="12" y="362" type="curve"/>
      <point x="12" y="362"/>
      <point x="12" y="362"/>
      <point x="12" y="362" type="curve"/>
      <point x="12" y="260"/>
      <point x="82" y="206"/>
      <point x="162" y="206" type="curve"/>
      <point x="162" y="206"/>
      <point x="162" y="206"/>
      <point x="162" y="206" type="curve"/>
      <point x="262" y="206"/>
      <point x="329" y="269"/>
      <point x="329" y="364" type="curve"/>
      <point x="329" y="364"/>
      <point x="329" y="364"/>
      <point x="329" y="364" type="curve"/>
      <point x="329" y="423"/>
      <point x="305" y="472"/>
      <point x="264" y="502" type="curve"/>
    </contour>
    <contour>
      <point x="380" y="293" type="line"/>
      <point x="403" y="310"/>
      <point x="387" y="362"/>
      <point x="320" y="435" type="curve"/>
      <point x="332" y="445" type="line"/>
      <point x="416" y="355"/>
      <point x="418" y="301"/>
      <point x="390" y="281" type="curve"/>
    </contour>
    <contour>
      <point x="80" y="9" type="line"/>
      <point x="42" y="-36" type="line" smooth="yes"/>
      <point x="37" y="-42"/>
      <point x="27" y="-38"/>
      <point x="28" y="-30" type="curve" smooth="yes"/>
      <point x="66" y="178" type="line"/>
      <point x="82" y="176" type="line"/>
      <point x="44" y="-32" type="line" smooth="yes"/>
      <point x="42" y="-41"/>
      <point x="25" y="-32"/>
      <point x="30" y="-26" type="curve" smooth="yes"/>
      <point x="68" y="19" type="line"/>
    </contour>
  </outline>
</glyph>
<glyph name="colon" format="2">
  <advance width="271"/>
  <unicode hex="003A"/>
  <outline>
    <contour>
      <point x="63" y="160" type="line"/>
      <point x="43" y="-20" type="line" smooth="yes"/>
      <point x="42" y="-25"/>
      <point x="29" y="-12"/>
      <point x="34" y="-11" type="curve" smooth="yes"/>
      <point x="215" y="8" type="line"/>
      <point x="217" y="-8" type="line"/>
      <point x="36" y="-27" type="line" smooth="yes"/>
      <point x="31" y="-27"/>
      <point x="26" y="-23"/>
      <point x="27" y="-18" type="curve" smooth="yes"/>
      <point x="47" y="162" type="line"/>
    </contour>
    <contour>
      <point x="61" y="-6" type="line"/>
      <point x="41" y="-25" type="line" smooth="yes"/>
      <point x="33" y="-32"/>
      <point x="22" y="-21"/>
      <point x="29" y="-13" type="curve" smooth="yes"/>
      <point x="210" y="167" type="line"/>
      <point x="222" y="155" type="line"/>
      <point x="41" y="-25" type="line" smooth="yes"/>
      <point x="33" y="-32"/>
      <point x="22" y="-20"/>
      <point x="29" y="-13" type="curve" smooth="yes"/>
      <point x="49" y="6" type="line"/>
    </contour>
    <contour>
      <point x="63" y="522" type="line"/>
      <point x="43" y="342" type="line" smooth="yes"/>
      <point x="42" y="337"/>
      <point x="29" y="350"/>
      <point x="34" y="351" type="curve" smooth="yes"/>
      <point x="215" y="370" type="line"/>
      <point x="217" y="354" type="line"/>
      <point x="36" y="335" type="line" smooth="yes"/>
      <point x="31" y="335"/>
      <point x="26" y="339"/>
      <point x="27" y="344" type="curve" smooth="yes"/>
      <point x="47" y="524" type="line"/>
    </contour>
    <contour>
      <point x="61" y="356" type="line"/>
      <point x="41" y="337" type="line" smooth="yes"/>
      <point x="33" y="330"/>
      <point x="22" y="341"/>
      <point x="29" y="349" type="curve" smooth="yes"/>
      <point x="210" y="529" type="line"/>
      <point x="222" y="517" type="line"/>
      <point x="41" y="337" type="line" smooth="yes"/>
      <point x="33" y="330"/>
      <point x="22" y="342"/>
      <point x="29" y="349" type="curve" smooth="yes"/>
      <point x="49" y="368" type="line"/>
    </contour>
  </outline>
</glyph>
<glyph name="equal" format="2">
  <advance width="490"/>
  <unicode hex="003D"/>
  <outline>
    <contour>
      <point x="288" y="80" type="line"/>
      <point x="2" y="80" type="line"/>
      <point x="2" y="96" type="line"/>
      <point x="288" y="96" type="line"/>
    </contour>
    <contour>
      <point x="46" y="119" type="line"/>
      <point x="8" y="82" type="line" smooth="yes"/>
      <point x="2" y="77"/>
      <point x="-8" y="82"/>
      <point x="-6" y="90" type="curve" smooth="yes"/>
      <point x="32" y="254" type="line"/>
      <point x="48" y="250" type="line"/>
      <point x="10" y="86" type="line" smooth="yes"/>
      <point x="8" y="78"/>
      <point x="-9" y="88"/>
      <point x="-4" y="94" type="curve" smooth="yes"/>
      <point x="34" y="131" type="line"/>
    </contour>
    <contour>
      <point x="456" y="246" type="line"/>
      <point x="294" y="82" type="line" smooth="yes"/>
      <point x="288" y="77"/>
      <point x="278" y="94"/>
      <point x="286" y="96" type="curve" smooth="yes"/>
      <point x="448" y="133" type="line"/>
      <point x="452" y="117" type="line"/>
      <point x="290" y="80" type="line" smooth="yes"/>
      <point x="282" y="78"/>
      <point x="277" y="88"/>
      <point x="282" y="94" type="curve" smooth="yes"/>
      <point x="444" y="258" type="line"/>
    </contour>
    <contour>
      <point x="288" y="320" type="line"/>
      <point x="2" y="320" type="line"/>
      <point x="2" y="336" type="line"/>
      <point x="288" y="336" type="line"/>
    </contour>
    <contour>
      <point x="46" y="359" type="line"/>
      <point x="8" y="322" type="line" smooth="yes"/>
      <point x="2" y="317"/>
      <point x="-8" y="322"/>
      <point x="-6" y="330" type="curve" smooth="yes"/>
      <point x="32" y="494" type="line"/>
      <point x="48" y="490" type="line"/>
      <point x="10" y="326" type="line" smooth="yes"/>
      <point x="8" y="318"/>
      <point x="-9" y="328"/>
      <point x="-4" y="334" type="curve" smooth="yes"/>
      <point x="34" y="371" type="line"/>
    </contour>
    <contour>
      <point x="456" y="486" type="line"/>
      <point x="294" y="322" type="line" smooth="yes"/>
      <point x="288" y="317"/>
      <point x="278" y="334"/>
      <point x="286" y="336" type="curve" smooth="yes"/>
      <point x="448" y="373" type="line"/>
      <point x="452" y="357" type="line"/>
      <point x="290" y="320" type="line" smooth="yes"/>
      <point x="282" y="318"/>
      <point x="277" y="328"/>
      <point x="282" y="334" type="curve" smooth="yes"/>
      <point x="444" y="498" type="line"/>
    </contour>
  </outline>
</glyph>
<glyph name="A" format="2">
  <advance width="670"/>
  <unicode hex="0041"/>
  <outline>
    <contour>
      <point x="5" y="-27" type="line"/>
      <point x="54" y="111" type="line" smooth="yes"/>
      <point x="54" y="111"/>
      <point x="54" y="111"/>
      <point x="54" y="111" type="curve" smooth="yes"/>
      <point x="196" y="503" type="line" smooth="yes"/>
      <point x="198" y="506"/>
      <point x="201" y="508"/>
      <point x="204" y="508" type="curve" smooth="yes"/>
      <point x="260" y="508" type="line" smooth="yes"/>
      <point x="263" y="508"/>
      <point x="266" y="506"/>
      <point x="268" y="503" type="curve" smooth="yes"/>
      <point x="411" y="111" type="line" smooth="yes"/>
      <point x="411" y="111"/>
      <point x="411" y="111"/>
      <point x="411" y="111" type="curve" smooth="yes"/>
      <point x="458" y="-27" type="line"/>
      <point x="442" y="-33" type="line"/>
      <point x="395" y="105" type="line" smooth="yes"/>
      <point x="395" y="105"/>
      <point x="396" y="105"/>
      <point x="395" y="105" type="curve" smooth="yes"/>
      <point x="252" y="497" type="line" smooth="yes"/>
      <point x="251" y="500"/>
      <point x="263" y="492"/>
      <point x="260" y="492" type="curve" smooth="yes"/>
      <point x="204" y="492" type="line" smooth="yes"/>
      <point x="201" y="492"/>
      <point x="213" y="500"/>
      <point x="212" y="497" type="curve" smooth="yes"/>
      <point x="70" y="105" type="line" smooth="yes"/>
      <point x="70" y="105"/>
      <point x="70" y="105"/>
      <point x="70" y="105" type="curve" smooth="yes"/>
      <point x="21" y="-33" type="line"/>
    </contour>
    <contour>
      <point x="403" y="100" type="line"/>
      <point x="62" y="100" type="line"/>
      <point x="62" y="116" type="line"/>
      <point x="403" y="116" type="line"/>
    </contour>
    <contour>
      <point x="266" y="678" type="line"/>
      <point x="212" y="498" type="line" smooth="yes"/>
      <point x="210" y="493"/>
      <point x="200" y="509"/>
      <point x="205" y="508" type="curve" smooth="yes"/>
      <point x="329" y="491" type="line" smooth="yes"/>
      <point x="339" y="490"/>
      <point x="336" y="473"/>
      <point x="326" y="475" type="curve" smooth="yes"/>
      <point x="258" y="492" type="line" smooth="yes"/>
      <point x="252" y="494"/>
      <point x="250" y="501"/>
      <point x="254" y="505" type="curve" smooth="yes"/>
      <point x="406" y="685" type="line"/>
      <point x="418" y="675" type="line"/>
      <point x="266" y="495" type="line" smooth="yes"/>
      <point x="262" y="490"/>
      <point x="256" y="509"/>
      <point x="262" y="508" type="curve" smooth="yes"/>
      <point x="330" y="491" type="line" smooth="yes"/>
      <point x="340" y="488"/>
      <point x="337" y="474"/>
      <point x="327" y="475" type="curve" smooth="yes"/>
      <point x="203" y="492" type="line" smooth="yes"/>
      <point x="198" y="493"/>
      <point x="195" y="498"/>
      <point x="196" y="502" type="curve" smooth="yes"/>
      <point x="250" y="682" type="line"/>
    </contour>
    <contour>
      <point x="256" y="265" type="line"/>
      <point x="67" y="102" type="line" smooth="yes"/>
      <point x="61" y="96"/>
      <point x="52" y="114"/>
      <point x="60" y="116" type="curve" smooth="yes"/>
      <point x="208" y="154" type="line"/>
      <point x="212" y="138" type="line"/>
      <point x="64" y="100" type="line" smooth="yes"/>
      <point x="56" y="98"/>
      <point x="50" y="109"/>
      <point x="57" y="114" type="curve" smooth="yes"/>
      <point x="246" y="277" type="line"/>
    </contour>
    <contour>
      <point x="413" y="271" type="line"/>
      <point x="411" y="108" type="line" smooth="yes"/>
      <point x="411" y="101"/>
      <point x="393" y="109"/>
      <point x="398" y="114" type="curve" smooth="yes"/>
      <point x="441" y="152" type="line"/>
      <point x="451" y="140" type="line"/>
      <point x="408" y="102" type="line" smooth="yes"/>
      <point x="403" y="97"/>
      <point x="395" y="101"/>
      <point x="395" y="108" type="curve" smooth="yes"/>
      <point x="397" y="271" type="line"/>
    </contour>
    <contour>
      <point x="201" y="-8" type="line"/>
      <point x="14" y="-38" type="line" smooth="yes"/>
      <point x="11" y="-38"/>
      <point x="8" y="-37"/>
      <point x="6" y="-34" type="curve" smooth="yes"/>
      <point x="-12" y="-4" type="line"/>
      <point x="2" y="4" type="line"/>
      <point x="20" y="-26" type="line" smooth="yes"/>
      <point x="22" y="-29"/>
      <point x="9" y="-23"/>
      <point x="12" y="-22" type="curve" smooth="yes"/>
      <point x="199" y="8" type="line"/>
    </contour>
    <contour>
      <point x="676" y="-8" type="line"/>
      <point x="451" y="-38" type="line" smooth="yes"/>
      <point x="446" y="-39"/>
      <point x="441" y="-34"/>
      <point x="442" y="-28" type="curve" smooth="yes"/>
      <point x="448" y="2" type="line"/>
      <point x="464" y="-2" type="line"/>
      <point x="458" y="-32" type="line" smooth="yes"/>
      <point x="457" y="-37"/>
      <point x="444" y="-23"/>
      <point x="449" y="-22" type="curve" smooth="yes"/>
      <point x="674" y="8" type="line"/>
    </contour>
  </outline>
</glyph>
<glyph name="C" format="2">
  <advance width="610"/>
  <unicode hex="0043"/>
  <outline>
    <contour>
      <point x="385" y="500" type="line"/>
      <point x="351" y="512"/>
      <point x="308" y="520"/>
      <point x="274" y="520" type="curve"/>
      <point x="274" y="520"/>
      <point x="274" y="520"/>
      <point x="274" y="520" type="curve"/>
      <point x="119" y="520"/>
      <point x="21" y="407"/>
      <point x="21" y="239" type="curve"/>
      <point x="21" y="239"/>
      <point x="21" y="239"/>
      <point x="21" y="239" type="curve"/>
      <point x="21" y="71"/>
      <point x="120" y="-40"/>
      <point x="274" y="-40" type="curve"/>
      <point x="274" y="-40"/>
      <point x="274" y="-40"/>
      <point x="274" y="-40" type="curve"/>
      <point x="308" y="-40"/>
      <point x="354" y="-33"/>
      <point x="385" y="-22" type="curve"/>
      <point x="391" y="-36" type="line"/>
      <point x="358" y="-49"/>
      <point x="310" y="-56"/>
      <point x="274" y="-56" type="curve"/>
      <point x="274" y="-56"/>
      <point x="274" y="-56"/>
      <point x="274" y="-56" type="curve"/>
      <point x="112" y="-56"/>
      <point x="5" y="61"/>
      <point x="5" y="239" type="curve"/>
      <point x="5" y="239"/>
      <point x="5" y="239"/>
      <point x="5" y="239" type="curve"/>
      <point x="5" y="417"/>
      <point x="111" y="536"/>
      <point x="274" y="536" type="curve"/>
      <point x="274" y="536"/>
      <point x="274" y="536"/>
      <point x="274" y="536" type="curve"/>
      <point x="310" y="536"/>
      <point x="355" y="528"/>
      <point x="391" y="514" type="curve"/>
    </contour>
    <contour>
      <point x="555" y="652" type="line"/>
      <point x="393" y="501" type="line" smooth="yes"/>
      <point x="388" y="496"/>
      <point x="382" y="516"/>
      <point x="389" y="515" type="curve" smooth="yes"/>
      <point x="551" y="498" type="line"/>
      <point x="549" y="482" type="line"/>
      <point x="387" y="499" type="line" smooth="yes"/>
      <point x="380" y="500"/>
      <point x="378" y="508"/>
      <point x="383" y="513" type="curve" smooth="yes"/>
      <point x="545" y="664" type="line"/>
    </contour>
    <contour>
      <point x="556" y="185" type="line"/>
      <point x="394" y="-34" type="line" smooth="yes"/>
      <point x="390" y="-40"/>
      <point x="378" y="-24"/>
      <point x="386" y="-21" type="curve" smooth="yes"/>
      <point x="548" y="30" type="line"/>
      <point x="552" y="14" type="line"/>
      <point x="390" y="-37" type="line" smooth="yes"/>
      <point x="383" y="-39"/>
      <point x="377" y="-30"/>
      <point x="382" y="-24" type="curve" smooth="yes"/>
      <point x="544" y="195" type="line"/>
    </contour>
  </outline>
</glyph>
<glyph name="D" format="2">
  <advance width="691"/>
  <unicode hex="0044"/>
  <outline>
    <contour>
      <point x="64" y="-38" type="line" smooth="yes"/>
      <point x="64" y="-42"/>
      <point x="52" y="-30"/>
      <point x="56" y="-30" type="curve" smooth="yes"/>
      <point x="206" y="-30" type="line"/>
      <point x="206" y="-30"/>
      <point x="206" y="-30"/>
      <point x="206" y="-30" type="curve"/>
      <point x="363" y="-30"/>
      <point x="470" y="77"/>
      <point x="470" y="241" type="curve"/>
      <point x="470" y="241"/>
      <point x="470" y="241"/>
      <point x="470" y="241" type="curve"/>
      <point x="470" y="404"/>
      <point x="363" y="510"/>
      <point x="206" y="510" type="curve"/>
      <point x="206" y="510"/>
      <point x="206" y="510"/>
      <point x="206" y="510" type="curve"/>
      <point x="56" y="510" type="line" smooth="yes"/>
      <point x="52" y="510"/>
      <point x="64" y="522"/>
      <point x="64" y="518" type="curve" smooth="yes"/>
    </contour>
    <contour>
      <point x="236" y="119" type="line"/>
      <point x="61" y="-44" type="line" smooth="yes"/>
      <point x="56" y="-49"/>
      <point x="48" y="-45"/>
      <point x="48" y="-38" type="curve" smooth="yes"/>
      <point x="49" y="0" type="line"/>
      <point x="65" y="0" type="line"/>
      <point x="64" y="-38" type="line" smooth="yes"/>
      <point x="64" y="-45"/>
      <point x="45" y="-37"/>
      <point x="51" y="-32" type="curve" smooth="yes"/>
      <point x="226" y="131" type="line"/>
    </contour>
    <contour>
      <point x="65" y="680" type="line"/>
      <point x="64" y="518" type="line" smooth="yes"/>
      <point x="64" y="513"/>
      <point x="49" y="525"/>
      <point x="54" y="526" type="curve" smooth="yes"/>
      <point x="229" y="563" type="line"/>
      <point x="233" y="547" type="line"/>
      <point x="58" y="510" type="line" smooth="yes"/>
      <point x="53" y="509"/>
      <point x="48" y="513"/>
      <point x="48" y="518" type="curve" smooth="yes"/>
      <point x="49" y="680" type="line"/>
    </contour>
    <contour>
      <point x="48" y="-38" type="curve" smooth="yes"/>
      <point x="48" y="518" type="line" smooth="yes"/>
      <point x="48" y="522"/>
      <point x="52" y="526"/>
      <point x="56" y="526" type="curve" smooth="yes"/>
      <point x="206" y="526" type="line"/>
      <point x="206" y="526"/>
      <point x="206" y="526"/>
      <point x="206" y="526" type="curve"/>
      <point x="371" y="526"/>
      <point x="486" y="414"/>
      <point x="486" y="241" type="curve"/>
      <point x="486" y="241"/>
      <point x="486" y="241"/>
      <point x="486" y="241" type="curve"/>
      <point x="486" y="67"/>
      <point x="371" y="-46"/>
      <point x="206" y="-46" type="curve"/>
      <point x="206" y="-46"/>
      <point x="206" y="-46"/>
      <point x="206" y="-46" type="curve"/>
      <point x="56" y="-46" type="line" smooth="yes"/>
      <point x="52" y="-46"/>
      <point x="48" y="-42"/>
    </contour>
  </outline>
</glyph>
<glyph name="E" format="2">
  <advance width="549"/>
  <unicode hex="0045"/>
  <outline>
    <contour>
      <point x="313" y="503" type="line"/>
      <point x="243" y="508"/>
      <point x="125" y="512"/>
      <point x="56" y="510" type="curve" smooth="yes"/>
      <point x="52" y="510"/>
      <point x="64" y="522"/>
      <point x="64" y="518" type="curve" smooth="yes"/>
      <point x="64" y="-38" type="line" smooth="yes"/>
      <point x="64" y="-42"/>
      <point x="52" y="-30"/>
      <point x="56" y="-30" type="curve" smooth="yes"/>
      <point x="127" y="-32"/>
      <point x="241" y="-29"/>
      <point x="311" y="-23" type="curve"/>
      <point x="313" y="-39" type="line"/>
      <point x="241" y="-45"/>
      <point x="127" y="-48"/>
      <point x="56" y="-46" type="curve" smooth="yes"/>
      <point x="51" y="-46"/>
      <point x="48" y="-42"/>
      <point x="48" y="-38" type="curve" smooth="yes"/>
      <point x="48" y="518" type="line" smooth="yes"/>
      <point x="48" y="522"/>
      <point x="51" y="526"/>
      <point x="56" y="526" type="curve" smooth="yes"/>
      <point x="125" y="528"/>
      <point x="243" y="524"/>
      <point x="315" y="519" type="curve"/>
    </contour>
    <contour>
      <point x="287" y="242" type="line"/>
      <point x="56" y="242" type="line"/>
      <point x="56" y="258" type="line"/>
      <point x="287" y="258" type="line"/>
    </contour>
    <contour>
      <point x="236" y="119" type="line"/>
      <point x="61" y="-44" type="line" smooth="yes"/>
      <point x="56" y="-49"/>
      <point x="48" y="-45"/>
      <point x="48" y="-38" type="curve" smooth="yes"/>
      <point x="49" y="0" type="line"/>
      <point x="65" y="0" type="line"/>
      <point x="64" y="-38" type="line" smooth="yes"/>
      <point x="64" y="-45"/>
      <point x="45" y="-37"/>
      <point x="51" y="-32" type="curve" smooth="yes"/>
      <point x="226" y="131" type="line"/>
    </contour>
    <contour>
      <point x="65" y="680" type="line"/>
      <point x="64" y="518" type="line" smooth="yes"/>
      <point x="64" y="513"/>
      <point x="49" y="525"/>
      <point x="54" y="526" type="curve" smooth="yes"/>
      <point x="229" y="563" type="line"/>
      <point x="233" y="547" type="line"/>
      <point x="58" y="510" type="line" smooth="yes"/>
      <point x="53" y="509"/>
      <point x="48" y="513"/>
      <point x="48" y="518" type="curve" smooth="yes"/>
      <point x="49" y="680" type="line"/>
    </contour>
    <contour>
      <point x="482" y="674" type="line"/>
      <point x="320" y="505" type="line" smooth="yes"/>
      <point x="315" y="500"/>
      <point x="306" y="518"/>
      <point x="313" y="519" type="curve" smooth="yes"/>
      <point x="475" y="532" type="line"/>
      <point x="477" y="516" type="line"/>
      <point x="315" y="503" type="line" smooth="yes"/>
      <point x="307" y="502"/>
      <point x="303" y="511"/>
      <point x="308" y="517" type="curve" smooth="yes"/>
      <point x="470" y="686" type="line"/>
    </contour>
    <contour>
      <point x="500" y="161" type="line"/>
      <point x="318" y="-36" type="line" smooth="yes"/>
      <point x="313" y="-42"/>
      <point x="303" y="-25"/>
      <point x="310" y="-23" type="curve" smooth="yes"/>
      <point x="472" y="8" type="line"/>
      <point x="476" y="-8" type="line"/>
      <point x="314" y="-39" type="line" smooth="yes"/>
      <point x="306" y="-40"/>
      <point x="301" y="-31"/>
      <point x="306" y="-26" type="curve" smooth="yes"/>
      <point x="488" y="171" type="line"/>
    </contour>
    <contour>
      <point x="455" y="427" type="line"/>
      <point x="293" y="245" type="line" smooth="yes"/>
      <point x="288" y="239"/>
      <point x="279" y="257"/>
      <point x="286" y="258" type="curve" smooth="yes"/>
      <point x="448" y="277" type="line"/>
      <point x="450" y="261" type="line"/>
      <point x="288" y="242" type="line" smooth="yes"/>
      <point x="281" y="241"/>
      <point x="276" y="250"/>
      <point x="281" y="255" type="curve" smooth="yes"/>
      <point x="443" y="437" type="line"/>
    </contour>
    <contour>
      <point x="232" y="404" type="line"/>
      <point x="61" y="244" type="line" smooth="yes"/>
      <point x="55" y="239"/>
      <point x="46" y="256"/>
      <point x="54" y="258" type="curve" smooth="yes"/>
      <point x="225" y="298" type="line"/>
      <point x="229" y="282" type="line"/>
      <point x="58" y="242" type="line" smooth="yes"/>
      <point x="50" y="240"/>
      <point x="45" y="250"/>
      <point x="51" y="256" type="curve" smooth="yes"/>
      <point x="222" y="416" type="line"/>
    </contour>
  </outline>
</glyph>
<glyph name="F" format="2">
  <advance width="521"/>
  <unicode hex="0046"/>
  <outline>
    <contour>
      <point x="287" y="222" type="line"/>
      <point x="56" y="222" type="line"/>
      <point x="56" y="238" type="line"/>
      <point x="287" y="238" type="line"/>
    </contour>
    <contour>
      <point x="65" y="680" type="line"/>
      <point x="64" y="518" type="line" smooth="yes"/>
      <point x="64" y="513"/>
      <point x="49" y="525"/>
      <point x="54" y="526" type="curve" smooth="yes"/>
      <point x="229" y="563" type="line"/>
      <point x="233" y="547" type="line"/>
      <point x="58" y="510" type="line" smooth="yes"/>
      <point x="53" y="509"/>
      <point x="48" y="513"/>
      <point x="48" y="518" type="curve" smooth="yes"/>
      <point x="49" y="680" type="line"/>
    </contour>
    <contour>
      <point x="482" y="674" type="line"/>
      <point x="320" y="505" type="line" smooth="yes"/>
      <point x="315" y="500"/>
      <point x="306" y="518"/>
      <point x="313" y="519" type="curve" smooth="yes"/>
      <point x="475" y="532" type="line"/>
      <point x="477" y="516" type="line"/>
      <point x="315" y="503" type="line" smooth="yes"/>
      <point x="307" y="502"/>
      <point x="303" y="511"/>
      <point x="308" y="517" type="curve" smooth="yes"/>
      <point x="470" y="686" type="line"/>
    </contour>
    <contour>
      <point x="455" y="407" type="line"/>
      <point x="293" y="225" type="line" smooth="yes"/>
      <point x="288" y="219"/>
      <point x="279" y="237"/>
      <point x="286" y="238" type="curve" smooth="yes"/>
      <point x="448" y="257" type="line"/>
      <point x="450" y="241" type="line"/>
      <point x="288" y="222" type="line" smooth="yes"/>
      <point x="281" y="221"/>
      <point x="276" y="230"/>
      <point x="281" y="235" type="curve" smooth="yes"/>
      <point x="443" y="417" type="line"/>
    </contour>
    <contour>
      <point x="232" y="384" type="line"/>
      <point x="61" y="224" type="line" smooth="yes"/>
      <point x="55" y="219"/>
      <point x="46" y="236"/>
      <point x="54" y="238" type="curve" smooth="yes"/>
      <point x="225" y="278" type="line"/>
      <point x="229" y="262" type="line"/>
      <point x="58" y="222" type="line" smooth="yes"/>
      <point x="50" y="220"/>
      <point x="45" y="230"/>
      <point x="51" y="236" type="curve" smooth="yes"/>
      <point x="222" y="396" type="line"/>
    </contour>
    <contour>
      <point x="313" y="503" type="line"/>
      <point x="243" y="508"/>
      <point x="125" y="512"/>
      <point x="56" y="510" type="curve" smooth="yes"/>
      <point x="52" y="510"/>
      <point x="64" y="522"/>
      <point x="64" y="518" type="curve" smooth="yes"/>
      <point x="64" y="-38" type="line"/>
      <point x="48" y="-38" type="line"/>
      <point x="48" y="518" type="line" smooth="yes"/>
      <point x="48" y="522"/>
      <point x="51" y="526"/>
      <point x="56" y="526" type="curve" smooth="yes"/>
      <point x="125" y="528"/>
      <point x="243" y="524"/>
      <point x="315" y="519" type="curve"/>
    </contour>
    <contour>
      <point x="256" y="-8" type="line"/>
      <point x="58" y="-46" type="line" smooth="yes"/>
      <point x="52" y="-47"/>
      <point x="48" y="-43"/>
      <point x="48" y="-38" type="curve" smooth="yes"/>
      <point x="49" y="0" type="line"/>
      <point x="65" y="0" type="line"/>
      <point x="64" y="-38" type="line" smooth="yes"/>
      <point x="64" y="-43"/>
      <point x="49" y="-31"/>
      <point x="54" y="-30" type="curve" smooth="yes"/>
      <point x="252" y="8" type="line"/>
    </contour>
  </outline>
</glyph>
<glyph name="H" format="2">
  <advance width="703"/>
  <unicode hex="0048"/>
  <outline>
    <contour>
      <point x="64" y="518" type="line"/>
      <point x="64" y="254" type="line"/>
      <point x="64" y="254"/>
      <point x="64" y="254"/>
      <point x="64" y="254" type="curve"/>
      <point x="64" y="-38" type="line"/>
      <point x="48" y="-38" type="line"/>
      <point x="48" y="254" type="line"/>
      <point x="48" y="254"/>
      <point x="48" y="254"/>
      <point x="48" y="254" type="curve"/>
      <point x="48" y="518" type="line"/>
    </contour>
    <contour>
      <point x="455" y="518" type="line"/>
      <point x="456" y="254" type="line" smooth="yes"/>
      <point x="456" y="254"/>
      <point x="456" y="254"/>
      <point x="456" y="254" type="curve" smooth="yes"/>
      <point x="456" y="-38" type="line"/>
      <point x="440" y="-38" type="line"/>
      <point x="440" y="254" type="line" smooth="yes"/>
      <point x="440" y="254"/>
      <point x="440" y="254"/>
      <point x="440" y="254" type="curve" smooth="yes"/>
      <point x="439" y="518" type="line"/>
    </contour>
    <contour>
      <point x="448" y="246" type="line"/>
      <point x="56" y="246" type="line"/>
      <point x="56" y="262" type="line"/>
      <point x="448" y="262" type="line"/>
    </contour>
    <contour>
      <point x="233" y="412" type="line"/>
      <point x="62" y="248" type="line" smooth="yes"/>
      <point x="56" y="243"/>
      <point x="46" y="260"/>
      <point x="54" y="262" type="curve" smooth="yes"/>
      <point x="225" y="299" type="line"/>
      <point x="229" y="283" type="line"/>
      <point x="58" y="246" type="line" smooth="yes"/>
      <point x="50" y="244"/>
      <point x="45" y="254"/>
      <point x="50" y="260" type="curve" smooth="yes"/>
      <point x="221" y="424" type="line"/>
    </contour>
    <contour>
      <point x="256" y="-8" type="line"/>
      <point x="58" y="-46" type="line" smooth="yes"/>
      <point x="52" y="-47"/>
      <point x="48" y="-43"/>
      <point x="48" y="-38" type="curve" smooth="yes"/>
      <point x="49" y="0" type="line"/>
      <point x="65" y="0" type="line"/>
      <point x="64" y="-38" type="line" smooth="yes"/>
      <point x="64" y="-43"/>
      <point x="49" y="-31"/>
      <point x="54" y="-30" type="curve" smooth="yes"/>
      <point x="252" y="8" type="line"/>
    </contour>
    <contour>
      <point x="65" y="680" type="line"/>
      <point x="64" y="518" type="line" smooth="yes"/>
      <point x="64" y="511"/>
      <point x="46" y="520"/>
      <point x="51" y="524" type="curve" smooth="yes"/>
      <point x="249" y="686" type="line"/>
      <point x="259" y="674" type="line"/>
      <point x="61" y="512" type="line" smooth="yes"/>
      <point x="56" y="508"/>
      <point x="48" y="511"/>
      <point x="48" y="518" type="curve" smooth="yes"/>
      <point x="49" y="680" type="line"/>
    </contour>
    <contour>
      <point x="482" y="286" type="line"/>
      <point x="454" y="249" type="line" smooth="yes"/>
      <point x="449" y="242"/>
      <point x="439" y="247"/>
      <point x="440" y="255" type="curve" smooth="yes"/>
      <point x="468" y="419" type="line"/>
      <point x="484" y="417" type="line"/>
      <point x="456" y="253" type="line" smooth="yes"/>
      <point x="454" y="244"/>
      <point x="437" y="252"/>
      <point x="442" y="259" type="curve" smooth="yes"/>
      <point x="470" y="296" type="line"/>
    </contour>
    <contour>
      <point x="648" y="-8" type="line"/>
      <point x="450" y="-46" type="line" smooth="yes"/>
      <point x="444" y="-47"/>
      <point x="440" y="-43"/>
      <point x="440" y="-38" type="curve" smooth="yes"/>
      <point x="441" y="0" type="line"/>
      <point x="457" y="0" type="line"/>
      <point x="456" y="-38" type="line" smooth="yes"/>
      <point x="456" y="-43"/>
      <point x="441" y="-31"/>
      <point x="446" y="-30" type="curve" smooth="yes"/>
      <point x="644" y="8" type="line"/>
    </contour>
    <contour>
      <point x="457" y="680" type="line"/>
      <point x="455" y="518" type="line" smooth="yes"/>
      <point x="455" y="511"/>
      <point x="437" y="520"/>
      <point x="442" y="524" type="curve" smooth="yes"/>
      <point x="641" y="686" type="line"/>
      <point x="651" y="674" type="line"/>
      <point x="452" y="512" type="line" smooth="yes"/>
      <point x="447" y="508"/>
      <point x="439" y="511"/>
      <point x="439" y="518" type="curve" smooth="yes"/>
      <point x="441" y="680" type="line"/>
    </contour>
  </outline>
</glyph>
<glyph name="J" format="2">
  <advance width="467"/>
  <unicode hex="004A"/>
  <outline>
    <contour>
      <point x="231" y="680" type="line"/>
      <point x="230" y="518" type="line" smooth="yes"/>
      <point x="230" y="511"/>
      <point x="212" y="520"/>
      <point x="217" y="524" type="curve" smooth="yes"/>
      <point x="415" y="686" type="line"/>
      <point x="425" y="674" type="line"/>
      <point x="227" y="512" type="line" smooth="yes"/>
      <point x="222" y="508"/>
      <point x="214" y="511"/>
      <point x="214" y="518" type="curve" smooth="yes"/>
      <point x="215" y="680" type="line"/>
    </contour>
    <contour>
      <point x="230" y="518" type="line"/>
      <point x="230" y="134" type="line"/>
      <point x="230" y="134"/>
      <point x="230" y="134"/>
      <point x="230" y="134" type="curve"/>
      <point x="230" y="19"/>
      <point x="166" y="-53"/>
      <point x="59" y="-54" type="curve" smooth="yes"/>
      <point x="59" y="-54"/>
      <point x="59" y="-54"/>
      <point x="59" y="-54" type="curve" smooth="yes"/>
      <point x="34" y="-54"/>
      <point x="7" y="-49"/>
      <point x="-21" y="-40" type="curve"/>
      <point x="-15" y="-24" type="line"/>
      <point x="11" y="-33"/>
      <point x="36" y="-38"/>
      <point x="59" y="-38" type="curve" smooth="yes"/>
      <point x="59" y="-38"/>
      <point x="59" y="-38"/>
      <point x="59" y="-38" type="curve" smooth="yes"/>
      <point x="158" y="-37"/>
      <point x="214" y="29"/>
      <point x="214" y="134" type="curve"/>
      <point x="214" y="134"/>
      <point x="214" y="134"/>
      <point x="214" y="134" type="curve"/>
      <point x="214" y="518" type="line"/>
    </contour>
    <contour>
      <point x="26" y="10" type="line"/>
      <point x="-12" y="-37" type="line" smooth="yes"/>
      <point x="-17" y="-43"/>
      <point x="-27" y="-39"/>
      <point x="-26" y="-31" type="curve" smooth="yes"/>
      <point x="12" y="187" type="line"/>
      <point x="28" y="185" type="line"/>
      <point x="-10" y="-33" type="line" smooth="yes"/>
      <point x="-12" y="-42"/>
      <point x="-29" y="-33"/>
      <point x="-24" y="-27" type="curve" smooth="yes"/>
      <point x="14" y="20" type="line"/>
    </contour>
  </outline>
</glyph>
<glyph name="P" format="2">
  <advance width="588"/>
  <unicode hex="0050"/>
  <outline>
    <contour>
      <point x="56" y="200" type="line"/>
      <point x="217" y="200" type="line"/>
      <point x="217" y="200"/>
      <point x="217" y="200"/>
      <point x="217" y="200" type="curve"/>
      <point x="323" y="200"/>
      <point x="386" y="262"/>
      <point x="386" y="355" type="curve"/>
      <point x="386" y="355"/>
      <point x="386" y="355"/>
      <point x="386" y="355" type="curve"/>
      <point x="386" y="448"/>
      <point x="323" y="510"/>
      <point x="217" y="510" type="curve"/>
      <point x="217" y="510"/>
      <point x="217" y="510"/>
      <point x="217" y="510" type="curve"/>
      <point x="56" y="510" type="line" smooth="yes"/>
      <point x="52" y="510"/>
      <point x="64" y="522"/>
      <point x="64" y="518" type="curve" smooth="yes"/>
      <point x="64" y="-38" type="line"/>
      <point x="48" y="-38" type="line"/>
      <point x="48" y="518" type="line" smooth="yes"/>
      <point x="48" y="522"/>
      <point x="52" y="526"/>
      <point x="56" y="526" type="curve" smooth="yes"/>
      <point x="217" y="526" type="line"/>
      <point x="217" y="526"/>
      <point x="217" y="526"/>
      <point x="217" y="526" type="curve"/>
      <point x="333" y="526"/>
      <point x="402" y="456"/>
      <point x="402" y="355" type="curve"/>
      <point x="402" y="355"/>
      <point x="402" y="355"/>
      <point x="402" y="355" type="curve"/>
      <point x="402" y="254"/>
      <point x="333" y="184"/>
      <point x="217" y="184" type="curve"/>
      <point x="217" y="184"/>
      <point x="217" y="184"/>
      <point x="217" y="184" type="curve"/>
      <point x="56" y="184" type="line"/>
    </contour>
    <contour>
      <point x="233" y="349" type="line"/>
      <point x="62" y="186" type="line" smooth="yes"/>
      <point x="56" y="181"/>
      <point x="46" y="198"/>
      <point x="54" y="200" type="curve" smooth="yes"/>
      <point x="226" y="238" type="line"/>
      <point x="230" y="222" type="line"/>
      <point x="58" y="184" type="line" smooth="yes"/>
      <point x="50" y="182"/>
      <point x="45" y="192"/>
      <point x="50" y="198" type="curve" smooth="yes"/>
      <point x="221" y="361" type="line"/>
    </contour>
    <contour>
      <point x="256" y="-8" type="line"/>
      <point x="58" y="-46" type="line" smooth="yes"/>
      <point x="52" y="-47"/>
      <point x="48" y="-43"/>
      <point x="48" y="-38" type="curve" smooth="yes"/>
      <point x="49" y="0" type="line"/>
      <point x="65" y="0" type="line"/>
      <point x="64" y="-38" type="line" smooth="yes"/>
      <point x="64" y="-43"/>
      <point x="49" y="-31"/>
      <point x="54" y="-30" type="curve" smooth="yes"/>
      <point x="252" y="8" type="line"/>
    </contour>
    <contour>
      <point x="65" y="680" type="line"/>
      <point x="64" y="518" type="line" smooth="yes"/>
      <point x="64" y="513"/>
      <point x="49" y="525"/>
      <point x="54" y="526" type="curve" smooth="yes"/>
      <point x="229" y="563" type="line"/>
      <point x="233" y="547" type="line"/>
      <point x="58" y="510" type="line" smooth="yes"/>
      <point x="53" y="509"/>
      <point x="48" y="513"/>
      <point x="48" y="518" type="curve" smooth="yes"/>
      <point x="49" y="680" type="line"/>
    </contour>
  </outline>
</glyph>
<glyph name="Q" format="2">
  <advance width="740"/>
  <unicode hex="0051"/>
  <outline>
    <contour>
      <point x="270" y="-40" type="curve"/>
      <point x="270" y="-40"/>
      <point x="270" y="-40"/>
      <point x="270" y="-40" type="curve"/>
      <point x="309" y="-40"/>
      <point x="345" y="-32"/>
      <point x="376" y="-18" type="curve" smooth="yes"/>
      <point x="376" y="-18"/>
      <point x="376" y="-18"/>
      <point x="376" y="-18" type="curve" smooth="yes"/>
      <point x="463" y="24"/>
      <point x="519" y="117"/>
      <point x="519" y="241" type="curve"/>
      <point x="519" y="241"/>
      <point x="519" y="241"/>
      <point x="519" y="241" type="curve"/>
      <point x="519" y="408"/>
      <point x="416" y="520"/>
      <point x="270" y="520" type="curve"/>
      <point x="270" y="520"/>
      <point x="270" y="520"/>
      <point x="270" y="520" type="curve"/>
      <point x="124" y="520"/>
      <point x="21" y="409"/>
      <point x="21" y="241" type="curve"/>
      <point x="21" y="241"/>
      <point x="21" y="241"/>
      <point x="21" y="241" type="curve"/>
      <point x="21" y="73"/>
      <point x="124" y="-40"/>
    </contour>
    <contour>
      <point x="270" y="-56" type="curve"/>
      <point x="116" y="-56"/>
      <point x="5" y="63"/>
      <point x="5" y="241" type="curve"/>
      <point x="5" y="241"/>
      <point x="5" y="241"/>
      <point x="5" y="241" type="curve"/>
      <point x="5" y="419"/>
      <point x="116" y="536"/>
      <point x="270" y="536" type="curve"/>
      <point x="270" y="536"/>
      <point x="270" y="536"/>
      <point x="270" y="536" type="curve"/>
      <point x="424" y="536"/>
      <point x="535" y="418"/>
      <point x="535" y="241" type="curve"/>
      <point x="535" y="241"/>
      <point x="535" y="241"/>
      <point x="535" y="241" type="curve"/>
      <point x="535" y="110"/>
      <point x="475" y="12"/>
      <point x="382" y="-32" type="curve" smooth="yes"/>
      <point x="382" y="-32"/>
      <point x="382" y="-32"/>
      <point x="382" y="-32" type="curve" smooth="yes"/>
      <point x="349" y="-48"/>
      <point x="311" y="-56"/>
      <point x="270" y="-56" type="curve"/>
      <point x="270" y="-56"/>
      <point x="270" y="-56"/>
    </contour>
    <contour>
      <point x="780" y="-68" type="line"/>
      <point x="640" y="-136"/>
      <point x="487" y="-139"/>
      <point x="373" y="-31" type="curve"/>
      <point x="385" y="-19" type="line"/>
      <point x="493" y="-123"/>
      <point x="640" y="-118"/>
      <point x="774" y="-54" type="curve"/>
    </contour>
    <contour>
      <point x="447" y="-12" type="line"/>
      <point x="381" y="-33" type="line" smooth="yes"/>
      <point x="372" y="-36"/>
      <point x="367" y="-22"/>
      <point x="376" y="-18" type="curve" smooth="yes"/>
      <point x="577" y="68" type="line"/>
      <point x="583" y="54" type="line"/>
      <point x="382" y="-32" type="line" smooth="yes"/>
      <point x="373" y="-36"/>
      <point x="367" y="-20"/>
      <point x="377" y="-17" type="curve" smooth="yes"/>
      <point x="443" y="4" type="line"/>
    </contour>
  </outline>
</glyph>
<glyph name="R" format="2">
  <advance width="643"/>
  <unicode hex="0052"/>
  <outline>
    <contour>
      <point x="48" y="-38" type="line"/>
      <point x="48" y="207" type="line"/>
      <point x="48" y="207"/>
      <point x="48" y="207"/>
      <point x="48" y="207" type="curve"/>
      <point x="48" y="518" type="line" smooth="yes"/>
      <point x="48" y="522"/>
      <point x="52" y="526"/>
      <point x="56" y="526" type="curve" smooth="yes"/>
      <point x="217" y="526" type="line"/>
      <point x="217" y="526"/>
      <point x="217" y="526"/>
      <point x="217" y="526" type="curve"/>
      <point x="326" y="526"/>
      <point x="392" y="460"/>
      <point x="392" y="362" type="curve"/>
      <point x="392" y="362"/>
      <point x="392" y="362"/>
      <point x="392" y="362" type="curve"/>
      <point x="392" y="274"/>
      <point x="335" y="210"/>
      <point x="253" y="199" type="curve" smooth="yes"/>
      <point x="253" y="199"/>
      <point x="252" y="199"/>
      <point x="252" y="199" type="curve" smooth="yes"/>
      <point x="56" y="199" type="line"/>
      <point x="56" y="215" type="line"/>
      <point x="252" y="215" type="line" smooth="yes"/>
      <point x="252" y="215"/>
      <point x="251" y="215"/>
      <point x="251" y="215" type="curve" smooth="yes"/>
      <point x="325" y="224"/>
      <point x="376" y="282"/>
      <point x="376" y="362" type="curve"/>
      <point x="376" y="362"/>
      <point x="376" y="362"/>
      <point x="376" y="362" type="curve"/>
      <point x="376" y="452"/>
      <point x="316" y="510"/>
      <point x="217" y="510" type="curve"/>
      <point x="217" y="510"/>
      <point x="217" y="510"/>
      <point x="217" y="510" type="curve"/>
      <point x="56" y="510" type="line" smooth="yes"/>
      <point x="52" y="510"/>
      <point x="64" y="522"/>
      <point x="64" y="518" type="curve" smooth="yes"/>
      <point x="64" y="207" type="line"/>
      <point x="64" y="207"/>
      <point x="64" y="207"/>
      <point x="64" y="207" type="curve"/>
      <point x="64" y="-38" type="line"/>
    </contour>
    <contour>
      <point x="259" y="211" type="line"/>
      <point x="420" y="-34" type="line"/>
      <point x="406" y="-42" type="line"/>
      <point x="245" y="203" type="line"/>
    </contour>
    <contour>
      <point x="232" y="361" type="line"/>
      <point x="61" y="201" type="line" smooth="yes"/>
      <point x="55" y="196"/>
      <point x="46" y="213"/>
      <point x="54" y="215" type="curve" smooth="yes"/>
      <point x="226" y="255" type="line"/>
      <point x="230" y="239" type="line"/>
      <point x="58" y="199" type="line" smooth="yes"/>
      <point x="50" y="197"/>
      <point x="45" y="207"/>
      <point x="51" y="213" type="curve" smooth="yes"/>
      <point x="222" y="373" type="line"/>
    </contour>
    <contour>
      <point x="256" y="-8" type="line"/>
      <point x="58" y="-46" type="line" smooth="yes"/>
      <point x="52" y="-47"/>
      <point x="48" y="-43"/>
      <point x="48" y="-38" type="curve" smooth="yes"/>
      <point x="49" y="0" type="line"/>
      <point x="65" y="0" type="line"/>
      <point x="64" y="-38" type="line" smooth="yes"/>
      <point x="64" y="-43"/>
      <point x="49" y="-31"/>
      <point x="54" y="-30" type="curve" smooth="yes"/>
      <point x="252" y="8" type="line"/>
    </contour>
    <contour>
      <point x="65" y="680" type="line"/>
      <point x="64" y="518" type="line" smooth="yes"/>
      <point x="64" y="513"/>
      <point x="49" y="525"/>
      <point x="54" y="526" type="curve" smooth="yes"/>
      <point x="229" y="563" type="line"/>
      <point x="233" y="547" type="line"/>
      <point x="58" y="510" type="line" smooth="yes"/>
      <point x="53" y="509"/>
      <point x="48" y="513"/>
      <point x="48" y="518" type="curve" smooth="yes"/>
      <point x="49" y="680" type="line"/>
    </contour>
    <contour>
      <point x="319" y="240" type="line"/>
      <point x="256" y="200" type="line" smooth="yes"/>
      <point x="248" y="195"/>
      <point x="240" y="211"/>
      <point x="249" y="215" type="curve" smooth="yes"/>
      <point x="450" y="285" type="line"/>
      <point x="456" y="269" type="line"/>
      <point x="255" y="199" type="line" smooth="yes"/>
      <point x="246" y="196"/>
      <point x="240" y="209"/>
      <point x="248" y="214" type="curve" smooth="yes"/>
      <point x="311" y="254" type="line"/>
    </contour>
    <contour>
      <point x="664" y="-8" type="line"/>
      <point x="414" y="-46" type="line" smooth="yes"/>
      <point x="407" y="-47"/>
      <point x="402" y="-39"/>
      <point x="407" y="-33" type="curve" smooth="yes"/>
      <point x="436" y="5" type="line"/>
      <point x="448" y="-5" type="line"/>
      <point x="419" y="-43" type="line" smooth="yes"/>
      <point x="415" y="-49"/>
      <point x="405" y="-31"/>
      <point x="412" y="-30" type="curve" smooth="yes"/>
      <point x="662" y="8" type="line"/>
    </contour>
  </outline>
</glyph>
<glyph name="S" format="2">
  <advance width="533"/>
  <unicode hex="0053"/>
  <outline>
    <contour>
      <point x="309" y="500" type="line"/>
      <point x="271" y="513"/>
      <point x="232" y="520"/>
      <point x="196" y="520" type="curve"/>
      <point x="196" y="520"/>
      <point x="196" y="520"/>
      <point x="196" y="520" type="curve"/>
      <point x="94" y="520"/>
      <point x="32" y="471"/>
      <point x="32" y="390" type="curve"/>
      <point x="32" y="390"/>
      <point x="32" y="390"/>
      <point x="32" y="390" type="curve"/>
      <point x="32" y="316"/>
      <point x="107" y="281"/>
      <point x="179" y="247" type="curve"/>
      <point x="179" y="247"/>
      <point x="179" y="247"/>
      <point x="179" y="247" type="curve"/>
      <point x="259" y="209"/>
      <point x="336" y="173"/>
      <point x="336" y="92" type="curve"/>
      <point x="336" y="92"/>
      <point x="336" y="92"/>
      <point x="336" y="92" type="curve"/>
      <point x="336" y="-2"/>
      <point x="263" y="-58"/>
      <point x="148" y="-58" type="curve"/>
      <point x="148" y="-58"/>
      <point x="148" y="-58"/>
      <point x="148" y="-58" type="curve"/>
      <point x="105" y="-58"/>
      <point x="57" y="-51"/>
      <point x="11" y="-36" type="curve"/>
      <point x="17" y="-20" type="line"/>
      <point x="61" y="-35"/>
      <point x="107" y="-42"/>
      <point x="148" y="-42" type="curve"/>
      <point x="148" y="-42"/>
      <point x="148" y="-42"/>
      <point x="148" y="-42" type="curve"/>
      <point x="253" y="-42"/>
      <point x="320" y="6"/>
      <point x="320" y="92" type="curve"/>
      <point x="320" y="92"/>
      <point x="320" y="92"/>
      <point x="320" y="92" type="curve"/>
      <point x="320" y="165"/>
      <point x="245" y="199"/>
      <point x="173" y="233" type="curve"/>
      <point x="173" y="233"/>
      <point x="173" y="233"/>
      <point x="173" y="233" type="curve"/>
      <point x="93" y="271"/>
      <point x="16" y="308"/>
      <point x="16" y="390" type="curve"/>
      <point x="16" y="390"/>
      <point x="16" y="390"/>
      <point x="16" y="390" type="curve"/>
      <point x="16" y="479"/>
      <point x="84" y="536"/>
      <point x="196" y="536" type="curve"/>
      <point x="196" y="536"/>
      <point x="196" y="536"/>
      <point x="196" y="536" type="curve"/>
      <point x="234" y="536"/>
      <point x="275" y="529"/>
      <point x="315" y="516" type="curve"/>
    </contour>
    <contour>
      <point x="480" y="658" type="line"/>
      <point x="318" y="502" type="line" smooth="yes"/>
      <point x="312" y="497"/>
      <point x="305" y="516"/>
      <point x="312" y="516" type="curve" smooth="yes"/>
      <point x="474" y="508" type="line"/>
      <point x="474" y="492" type="line"/>
      <point x="312" y="500" type="line" smooth="yes"/>
      <point x="305" y="500"/>
      <point x="301" y="509"/>
      <point x="306" y="514" type="curve" smooth="yes"/>
      <point x="468" y="670" type="line"/>
    </contour>
    <contour>
      <point x="58" y="10" type="line"/>
      <point x="20" y="-33" type="line" smooth="yes"/>
      <point x="15" y="-39"/>
      <point x="5" y="-35"/>
      <point x="6" y="-27" type="curve" smooth="yes"/>
      <point x="44" y="182" type="line"/>
      <point x="60" y="180" type="line"/>
      <point x="22" y="-29" type="line" smooth="yes"/>
      <point x="20" y="-37"/>
      <point x="3" y="-29"/>
      <point x="8" y="-23" type="curve" smooth="yes"/>
      <point x="46" y="20" type="line"/>
    </contour>
  </outline>
</glyph>
<glyph name="U" format="2">
  <advance width="684"/>
  <unicode hex="0055"/>
  <outline>
    <contour>
      <point x="446" y="518" type="line"/>
      <point x="446" y="134" type="line"/>
      <point x="446" y="134"/>
      <point x="446" y="134"/>
      <point x="446" y="134" type="curve"/>
      <point x="446" y="16"/>
      <point x="364" y="-60"/>
      <point x="242" y="-60" type="curve"/>
      <point x="242" y="-60"/>
      <point x="242" y="-60"/>
      <point x="242" y="-60" type="curve"/>
      <point x="120" y="-60"/>
      <point x="38" y="16"/>
      <point x="38" y="134" type="curve"/>
      <point x="38" y="134"/>
      <point x="38" y="134"/>
      <point x="38" y="134" type="curve"/>
      <point x="38" y="518" type="line"/>
      <point x="54" y="518" type="line"/>
      <point x="54" y="134" type="line"/>
      <point x="54" y="134"/>
      <point x="54" y="134"/>
      <point x="54" y="134" type="curve"/>
      <point x="54" y="24"/>
      <point x="130" y="-44"/>
      <point x="242" y="-44" type="curve"/>
      <point x="242" y="-44"/>
      <point x="242" y="-44"/>
      <point x="242" y="-44" type="curve"/>
      <point x="354" y="-44"/>
      <point x="430" y="24"/>
      <point x="430" y="134" type="curve"/>
      <point x="430" y="134"/>
      <point x="430" y="134"/>
      <point x="430" y="134" type="curve"/>
      <point x="430" y="518" type="line"/>
    </contour>
    <contour>
      <point x="55" y="680" type="line"/>
      <point x="54" y="518" type="line" smooth="yes"/>
      <point x="54" y="511"/>
      <point x="36" y="520"/>
      <point x="41" y="524" type="curve" smooth="yes"/>
      <point x="239" y="686" type="line"/>
      <point x="249" y="674" type="line"/>
      <point x="51" y="512" type="line" smooth="yes"/>
      <point x="46" y="508"/>
      <point x="38" y="511"/>
      <point x="38" y="518" type="curve" smooth="yes"/>
      <point x="39" y="680" type="line"/>
    </contour>
    <contour>
      <point x="448" y="680" type="line"/>
      <point x="446" y="518" type="line" smooth="yes"/>
      <point x="446" y="511"/>
      <point x="428" y="520"/>
      <point x="433" y="524" type="curve" smooth="yes"/>
      <point x="632" y="686" type="line"/>
      <point x="642" y="674" type="line"/>
      <point x="443" y="512" type="line" smooth="yes"/>
      <point x="438" y="508"/>
      <point x="430" y="511"/>
      <point x="430" y="518" type="curve" smooth="yes"/>
      <point x="432" y="680" type="line"/>
    </contour>
  </outline>
</glyph>
<glyph name="W" format="2">
  <advance width="934"/>
  <unicode hex="0057"/>
  <outline>
    <contour>
      <point x="355" y="-8" type="line"/>
      <point x="204" y="-36" type="line" smooth="yes"/>
      <point x="196" y="-37"/>
      <point x="191" y="-26"/>
      <point x="198" y="-22" type="curve" smooth="yes"/>
      <point x="237" y="6" type="line"/>
      <point x="247" y="-6" type="line"/>
      <point x="208" y="-34" type="line" smooth="yes"/>
      <point x="201" y="-39"/>
      <point x="193" y="-22"/>
      <point x="202" y="-20" type="curve" smooth="yes"/>
      <point x="353" y="8" type="line"/>
    </contour>
    <contour>
      <point x="23" y="681" type="line"/>
      <point x="42" y="519" type="line" smooth="yes"/>
      <point x="43" y="513"/>
      <point x="24" y="520"/>
      <point x="29" y="524" type="curve" smooth="yes"/>
      <point x="229" y="686" type="line"/>
      <point x="239" y="674" type="line"/>
      <point x="39" y="512" type="line" smooth="yes"/>
      <point x="34" y="508"/>
      <point x="27" y="511"/>
      <point x="26" y="517" type="curve" smooth="yes"/>
      <point x="7" y="679" type="line"/>
    </contour>
    <contour>
      <point x="693" y="-8" type="line"/>
      <point x="536" y="-36" type="line" smooth="yes"/>
      <point x="528" y="-37"/>
      <point x="523" y="-26"/>
      <point x="531" y="-21" type="curve" smooth="yes"/>
      <point x="574" y="7" type="line"/>
      <point x="582" y="-7" type="line"/>
      <point x="539" y="-35" type="line" smooth="yes"/>
      <point x="532" y="-39"/>
      <point x="525" y="-22"/>
      <point x="534" y="-20" type="curve" smooth="yes"/>
      <point x="691" y="8" type="line"/>
    </contour>
    <contour>
      <point x="411" y="679" type="line"/>
      <point x="380" y="507" type="line" smooth="yes"/>
      <point x="378" y="499"/>
      <point x="361" y="508"/>
      <point x="366" y="514" type="curve" smooth="yes"/>
      <point x="541" y="686" type="line"/>
      <point x="553" y="674" type="line"/>
      <point x="378" y="502" type="line" smooth="yes"/>
      <point x="372" y="497"/>
      <point x="363" y="502"/>
      <point x="364" y="509" type="curve" smooth="yes"/>
      <point x="395" y="681" type="line"/>
    </contour>
    <contour>
      <point x="720" y="680" type="line"/>
      <point x="715" y="518" type="line" smooth="yes"/>
      <point x="715" y="511"/>
      <point x="697" y="520"/>
      <point x="702" y="524" type="curve" smooth="yes"/>
      <point x="914" y="686" type="line"/>
      <point x="924" y="674" type="line"/>
      <point x="712" y="512" type="line" smooth="yes"/>
      <point x="707" y="508"/>
      <point x="699" y="512"/>
      <point x="699" y="518" type="curve" smooth="yes"/>
      <point x="704" y="680" type="line"/>
    </contour>
    <contour>
      <point x="715" y="516" type="line"/>
      <point x="543" y="-30" type="line" smooth="yes"/>
      <point x="540" y="-38"/>
      <point x="530" y="-38"/>
      <point x="527" y="-30" type="curve" smooth="yes"/>
      <point x="364" y="506" type="line" smooth="yes"/>
      <point x="362" y="513"/>
      <point x="382" y="513"/>
      <point x="380" y="506" type="curve" smooth="yes"/>
      <point x="211" y="-30" type="line" smooth="yes"/>
      <point x="208" y="-38"/>
      <point x="198" y="-38"/>
      <point x="195" y="-30" type="curve" smooth="yes"/>
      <point x="26" y="516" type="line"/>
      <point x="42" y="520" type="line"/>
      <point x="211" y="-26" type="line" smooth="yes"/>
      <point x="213" y="-33"/>
      <point x="193" y="-33"/>
      <point x="195" y="-26" type="curve" smooth="yes"/>
      <point x="364" y="510" type="line" smooth="yes"/>
      <point x="367" y="518"/>
      <point x="377" y="518"/>
      <point x="380" y="510" type="curve" smooth="yes"/>
      <point x="543" y="-26" type="line" smooth="yes"/>
      <point x="545" y="-33"/>
      <point x="525" y="-33"/>
      <point x="527" y="-26" type="curve" smooth="yes"/>
      <point x="699" y="520" type="line"/>
    </contour>
    <contour>
      <point x="317" y="283" type="line"/>
      <point x="211" y="-31" type="line"/>
      <point x="195" y="-25" type="line"/>
      <point x="301" y="289" type="line"/>
    </contour>
    <contour>
      <point x="646" y="286" type="line"/>
      <point x="543" y="-30" type="line"/>
      <point x="527" y="-26" type="line"/>
      <point x="630" y="290" type="line"/>
    </contour>
    <contour>
      <point x="378" y="513" type="line"/>
      <point x="473" y="395" type="line"/>
      <point x="461" y="385" type="line"/>
      <point x="366" y="503" type="line"/>
    </contour>
  </outline>
</glyph>
<glyph name="X" format="2">
  <advance width="657"/>
  <unicode hex="0058"/>
  <outline>
    <contour>
      <point x="401" y="-42" type="line"/>
      <point x="221" y="245" type="line" smooth="yes"/>
      <point x="221" y="245"/>
      <point x="221" y="245"/>
      <point x="221" y="245" type="curve" smooth="yes"/>
      <point x="55" y="514" type="line"/>
      <point x="69" y="522" type="line"/>
      <point x="235" y="253" type="line" smooth="yes"/>
      <point x="235" y="253"/>
      <point x="235" y="253"/>
      <point x="235" y="253" type="curve" smooth="yes"/>
      <point x="415" y="-34" type="line"/>
    </contour>
    <contour>
      <point x="32" y="-34" type="line"/>
      <point x="221" y="253" type="line" smooth="yes"/>
      <point x="221" y="253"/>
      <point x="221" y="253"/>
      <point x="221" y="253" type="curve" smooth="yes"/>
      <point x="398" y="522" type="line"/>
      <point x="412" y="514" type="line"/>
      <point x="235" y="245" type="line" smooth="yes"/>
      <point x="235" y="245"/>
      <point x="235" y="245"/>
      <point x="235" y="245" type="curve" smooth="yes"/>
      <point x="46" y="-42" type="line"/>
    </contour>
    <contour>
      <point x="212" y="-8" type="line"/>
      <point x="41" y="-46" type="line" smooth="yes"/>
      <point x="38" y="-46"/>
      <point x="35" y="-46"/>
      <point x="33" y="-44" type="curve" smooth="yes"/>
      <point x="-6" y="-6" type="line"/>
      <point x="6" y="6" type="line"/>
      <point x="45" y="-32" type="line" smooth="yes"/>
      <point x="47" y="-34"/>
      <point x="35" y="-31"/>
      <point x="37" y="-30" type="curve" smooth="yes"/>
      <point x="208" y="8" type="line"/>
    </contour>
    <contour>
      <point x="18" y="682" type="line"/>
      <point x="70" y="520" type="line" smooth="yes"/>
      <point x="71" y="515"/>
      <point x="52" y="520"/>
      <point x="57" y="524" type="curve" smooth="yes"/>
      <point x="235" y="686" type="line"/>
      <point x="245" y="674" type="line"/>
      <point x="67" y="512" type="line" smooth="yes"/>
      <point x="63" y="508"/>
      <point x="56" y="510"/>
      <point x="54" y="516" type="curve" smooth="yes"/>
      <point x="2" y="678" type="line"/>
    </contour>
    <contour>
      <point x="658" y="-8" type="line"/>
      <point x="409" y="-46" type="line" smooth="yes"/>
      <point x="403" y="-47"/>
      <point x="398" y="-40"/>
      <point x="401" y="-34" type="curve" smooth="yes"/>
      <point x="420" y="4" type="line"/>
      <point x="434" y="-4" type="line"/>
      <point x="415" y="-42" type="line" smooth="yes"/>
      <point x="412" y="-47"/>
      <point x="400" y="-31"/>
      <point x="407" y="-30" type="curve" smooth="yes"/>
      <point x="656" y="8" type="line"/>
    </contour>
    <contour>
      <point x="442" y="679" type="line"/>
      <point x="413" y="517" type="line" smooth="yes"/>
      <point x="412" y="510"/>
      <point x="395" y="521"/>
      <point x="401" y="525" type="curve" smooth="yes"/>
      <point x="640" y="687" type="line"/>
      <point x="648" y="673" type="line"/>
      <point x="409" y="511" type="line" smooth="yes"/>
      <point x="404" y="507"/>
      <point x="396" y="512"/>
      <point x="397" y="519" type="curve" smooth="yes"/>
      <point x="426" y="681" type="line"/>
    </contour>
    <contour>
      <point x="256" y="340" type="line"/>
      <point x="236" y="247" type="line" smooth="yes"/>
      <point x="234" y="240"/>
      <point x="218" y="252"/>
      <point x="224" y="256" type="curve" smooth="yes"/>
      <point x="403" y="363" type="line"/>
      <point x="411" y="349" type="line"/>
      <point x="232" y="242" type="line" smooth="yes"/>
      <point x="226" y="239"/>
      <point x="219" y="244"/>
      <point x="220" y="251" type="curve" smooth="yes"/>
      <point x="240" y="344" type="line"/>
    </contour>
    <contour>
      <point x="343" y="468" type="line"/>
      <point x="235" y="246" type="line" smooth="yes"/>
      <point x="233" y="241"/>
      <point x="225" y="258"/>
      <point x="230" y="257" type="curve" smooth="yes"/>
      <point x="322" y="235" type="line"/>
      <point x="318" y="219" type="line"/>
      <point x="226" y="241" type="line" smooth="yes"/>
      <point x="221" y="242"/>
      <point x="219" y="248"/>
      <point x="221" y="252" type="curve" smooth="yes"/>
      <point x="329" y="474" type="line"/>
    </contour>
  </outline>
</glyph>
<glyph name="Y" format="2">
  <advance width="623"/>
  <unicode hex="0059"/>
  <outline>
    <contour>
      <point x="32" y="521" type="line"/>
      <point x="57" y="464"/>
      <point x="106" y="371"/>
      <point x="219" y="168" type="curve" smooth="yes"/>
      <point x="222" y="162"/>
      <point x="202" y="162"/>
      <point x="205" y="168" type="curve" smooth="yes"/>
      <point x="318" y="371"/>
      <point x="370" y="465"/>
      <point x="395" y="521" type="curve"/>
      <point x="409" y="515" type="line"/>
      <point x="384" y="459"/>
      <point x="332" y="364"/>
      <point x="219" y="160" type="curve" smooth="yes"/>
      <point x="216" y="155"/>
      <point x="208" y="155"/>
      <point x="205" y="160" type="curve" smooth="yes"/>
      <point x="92" y="364"/>
      <point x="43" y="458"/>
      <point x="18" y="515" type="curve"/>
    </contour>
    <contour>
      <point x="319" y="394" type="line"/>
      <point x="219" y="161" type="line" smooth="yes"/>
      <point x="219" y="160"/>
      <point x="220" y="165"/>
      <point x="220" y="164" type="curve" smooth="yes"/>
      <point x="220" y="-38" type="line"/>
      <point x="204" y="-38" type="line"/>
      <point x="204" y="164" type="line" smooth="yes"/>
      <point x="204" y="165"/>
      <point x="204" y="166"/>
      <point x="205" y="167" type="curve" smooth="yes"/>
      <point x="305" y="400" type="line"/>
    </contour>
    <contour>
      <point x="413" y="-8" type="line"/>
      <point x="214" y="-46" type="line" smooth="yes"/>
      <point x="208" y="-47"/>
      <point x="204" y="-43"/>
      <point x="204" y="-38" type="curve" smooth="yes"/>
      <point x="206" y="0" type="line"/>
      <point x="222" y="0" type="line"/>
      <point x="220" y="-38" type="line" smooth="yes"/>
      <point x="220" y="-44"/>
      <point x="205" y="-31"/>
      <point x="210" y="-30" type="curve" smooth="yes"/>
      <point x="409" y="8" type="line"/>
    </contour>
    <contour>
      <point x="3" y="681" type="line"/>
      <point x="33" y="519" type="line" smooth="yes"/>
      <point x="34" y="513"/>
      <point x="15" y="520"/>
      <point x="20" y="524" type="curve" smooth="yes"/>
      <point x="203" y="686" type="line"/>
      <point x="213" y="674" type="line"/>
      <point x="30" y="512" type="line" smooth="yes"/>
      <point x="26" y="508"/>
      <point x="18" y="510"/>
      <point x="17" y="517" type="curve" smooth="yes"/>
      <point x="-13" y="679" type="line"/>
    </contour>
    <contour>
      <point x="430" y="679" type="line"/>
      <point x="410" y="517" type="line" smooth="yes"/>
      <point x="409" y="510"/>
      <point x="392" y="520"/>
      <point x="397" y="525" type="curve" smooth="yes"/>
      <point x="623" y="687" type="line"/>
      <point x="633" y="673" type="line"/>
      <point x="407" y="511" type="line" smooth="yes"/>
      <point x="401" y="507"/>
      <point x="393" y="512"/>
      <point x="394" y="519" type="curve" smooth="yes"/>
      <point x="414" y="681" type="line"/>
    </contour>
    <contour>
      <point x="249" y="256" type="line"/>
      <point x="220" y="162" type="line" smooth="yes"/>
      <point x="218" y="155"/>
      <point x="202" y="168"/>
      <point x="208" y="171" type="curve" smooth="yes"/>
      <point x="380" y="265" type="line"/>
      <point x="388" y="251" type="line"/>
      <point x="216" y="157" type="line" smooth="yes"/>
      <point x="210" y="154"/>
      <point x="202" y="159"/>
      <point x="204" y="166" type="curve" smooth="yes"/>
      <point x="233" y="260" type="line"/>
    </contour>
  </outline>
</glyph>
<glyph name="bracketright" format="2">
  <advance width="457"/>
  <unicode hex="005D"/>
  <outline>
    <contour>
      <point x="23" y="816" type="line"/>
      <point x="28" y="712"/>
      <point x="83" y="646"/>
      <point x="174" y="634" type="curve" smooth="yes"/>
      <point x="178" y="633"/>
      <point x="181" y="630"/>
      <point x="181" y="626" type="curve" smooth="yes"/>
      <point x="181" y="-144" type="line" smooth="yes"/>
      <point x="181" y="-148"/>
      <point x="177" y="-152"/>
      <point x="173" y="-152" type="curve" smooth="yes"/>
      <point x="50" y="-152"/>
      <point x="15" y="-147"/>
      <point x="9" y="-139" type="curve"/>
      <point x="21" y="-129" type="line"/>
      <point x="24" y="-133"/>
      <point x="110" y="-136"/>
      <point x="173" y="-136" type="curve" smooth="yes"/>
      <point x="177" y="-136"/>
      <point x="165" y="-148"/>
      <point x="165" y="-144" type="curve" smooth="yes"/>
      <point x="165" y="626" type="line" smooth="yes"/>
      <point x="165" y="630"/>
      <point x="176" y="618"/>
      <point x="172" y="618" type="curve" smooth="yes"/>
      <point x="73" y="632"/>
      <point x="12" y="704"/>
      <point x="7" y="816" type="curve"/>
    </contour>
    <contour>
      <point x="373" y="-122" type="line"/>
      <point x="174" y="-152" type="line" smooth="yes"/>
      <point x="169" y="-153"/>
      <point x="164" y="-148"/>
      <point x="165" y="-143" type="curve" smooth="yes"/>
      <point x="190" y="19" type="line"/>
      <point x="206" y="17" type="line"/>
      <point x="181" y="-145" type="line" smooth="yes"/>
      <point x="180" y="-151"/>
      <point x="166" y="-137"/>
      <point x="172" y="-136" type="curve" smooth="yes"/>
      <point x="371" y="-106" type="line"/>
    </contour>
    <contour>
      <point x="205" y="660" type="line"/>
      <point x="180" y="622" type="line" smooth="yes"/>
      <point x="175" y="614"/>
      <point x="161" y="626"/>
      <point x="168" y="632" type="curve" smooth="yes"/>
      <point x="367" y="802" type="line"/>
      <point x="377" y="790" type="line"/>
      <point x="178" y="620" type="line" smooth="yes"/>
      <point x="171" y="614"/>
      <point x="161" y="623"/>
      <point x="166" y="630" type="curve" smooth="yes"/>
      <point x="191" y="668" type="line"/>
    </contour>
  </outline>
</glyph>
<glyph name="underscore" format="2">
  <advance width="615"/>
  <unicode hex="005F"/>
  <outline>
    <contour>
      <point x="443" y="-171" type="line"/>
      <point x="-28" y="-171" type="line"/>
      <point x="-28" y="-155" type="line"/>
      <point x="443" y="-155" type="line"/>
    </contour>
    <contour>
      <point x="16" y="-131" type="line"/>
      <point x="-22" y="-169" type="line" smooth="yes"/>
      <point x="-28" y="-174"/>
      <point x="-38" y="-169"/>
      <point x="-36" y="-161" type="curve" smooth="yes"/>
      <point x="2" y="2" type="line"/>
      <point x="18" y="-2" type="line"/>
      <point x="-20" y="-165" type="line" smooth="yes"/>
      <point x="-22" y="-173"/>
      <point x="-39" y="-163"/>
      <point x="-34" y="-157" type="curve" smooth="yes"/>
      <point x="4" y="-119" type="line"/>
    </contour>
    <contour>
      <point x="611" y="-6" type="line"/>
      <point x="449" y="-169" type="line" smooth="yes"/>
      <point x="443" y="-174"/>
      <point x="433" y="-157"/>
      <point x="441" y="-155" type="curve" smooth="yes"/>
      <point x="603" y="-117" type="line"/>
      <point x="607" y="-133" type="line"/>
      <point x="445" y="-171" type="line" smooth="yes"/>
      <point x="437" y="-173"/>
      <point x="432" y="-163"/>
      <point x="437" y="-157" type="curve" smooth="yes"/>
      <point x="599" y="6" type="line"/>
    </contour>
  </outline>
</glyph>
<glyph name="braceleft" format="2">
  <advance width="461"/>
  <unicode hex="007B"/>
  <outline>
    <contour>
      <point x="267" y="649" type="line"/>
      <point x="153" y="675"/>
      <point x="84" y="638"/>
      <point x="84" y="558" type="curve"/>
      <point x="84" y="558"/>
      <point x="84" y="558"/>
      <point x="84" y="558" type="curve"/>
      <point x="84" y="489"/>
      <point x="137" y="394"/>
      <point x="137" y="336" type="curve"/>
      <point x="137" y="336"/>
      <point x="137" y="336"/>
      <point x="137" y="336" type="curve"/>
      <point x="137" y="269"/>
      <point x="102" y="233"/>
      <point x="12" y="233" type="curve" smooth="yes"/>
      <point x="1" y="233"/>
      <point x="1" y="249"/>
      <point x="12" y="249" type="curve" smooth="yes"/>
      <point x="102" y="249"/>
      <point x="137" y="214"/>
      <point x="137" y="146" type="curve"/>
      <point x="137" y="146"/>
      <point x="137" y="146"/>
      <point x="137" y="146" type="curve"/>
      <point x="137" y="89"/>
      <point x="84" y="-6"/>
      <point x="84" y="-74" type="curve"/>
      <point x="84" y="-74"/>
      <point x="84" y="-74"/>
      <point x="84" y="-74" type="curve"/>
      <point x="84" y="-155"/>
      <point x="154" y="-192"/>
      <point x="267" y="-166" type="curve"/>
      <point x="271" y="-182" type="line"/>
      <point x="145" y="-210"/>
      <point x="68" y="-164"/>
      <point x="68" y="-74" type="curve"/>
      <point x="68" y="-74"/>
      <point x="68" y="-74"/>
      <point x="68" y="-74" type="curve"/>
      <point x="68" y="-2"/>
      <point x="121" y="91"/>
      <point x="121" y="146" type="curve"/>
      <point x="121" y="146"/>
      <point x="121" y="146"/>
      <point x="121" y="146" type="curve"/>
      <point x="121" y="206"/>
      <point x="92" y="233"/>
      <point x="12" y="233" type="curve" smooth="yes"/>
      <point x="1" y="233"/>
      <point x="1" y="249"/>
      <point x="12" y="249" type="curve" smooth="yes"/>
      <point x="92" y="249"/>
      <point x="121" y="277"/>
      <point x="121" y="336" type="curve"/>
      <point x="121" y="336"/>
      <point x="121" y="336"/>
      <point x="121" y="336" type="curve"/>
      <point x="121" y="392"/>
      <point x="68" y="485"/>
      <point x="68" y="558" type="curve"/>
      <point x="68" y="558"/>
      <point x="68" y="558"/>
      <point x="68" y="558" type="curve"/>
      <point x="68" y="646"/>
      <point x="143" y="693"/>
      <point x="271" y="665" type="curve"/>
    </contour>
    <contour>
      <point x="9" y="248" type="line"/>
      <point x="221" y="348" type="line"/>
      <point x="227" y="334" type="line"/>
      <point x="15" y="234" type="line"/>
    </contour>
    <contour>
      <point x="58" y="397" type="line"/>
      <point x="20" y="239" type="line" smooth="yes"/>
      <point x="18" y="231"/>
      <point x="0" y="240"/>
      <point x="6" y="246" type="curve" smooth="yes"/>
      <point x="44" y="289" type="line"/>
      <point x="56" y="279" type="line"/>
      <point x="18" y="236" type="line" smooth="yes"/>
      <point x="12" y="229"/>
      <point x="2" y="235"/>
      <point x="4" y="243" type="curve" smooth="yes"/>
      <point x="42" y="401" type="line"/>
    </contour>
    <contour>
      <point x="437" y="806" type="line"/>
      <point x="275" y="651" type="line" smooth="yes"/>
      <point x="269" y="646"/>
      <point x="261" y="665"/>
      <point x="269" y="665" type="curve" smooth="yes"/>
      <point x="431" y="674" type="line"/>
      <point x="431" y="658" type="line"/>
      <point x="269" y="649" type="line" smooth="yes"/>
      <point x="262" y="649"/>
      <point x="258" y="658"/>
      <point x="263" y="663" type="curve" smooth="yes"/>
      <point x="425" y="818" type="line"/>
    </contour>
    <contour>
      <point x="437" y="12" type="line"/>
      <point x="275" y="-179" type="line" smooth="yes"/>
      <point x="270" y="-185"/>
      <point x="259" y="-168"/>
      <point x="267" y="-166" type="curve" smooth="yes"/>
      <point x="429" y="-121" type="line"/>
      <point x="433" y="-137" type="line"/>
      <point x="271" y="-182" type="line" smooth="yes"/>
      <point x="264" y="-184"/>
      <point x="258" y="-175"/>
      <point x="263" y="-169" type="curve" smooth="yes"/>
      <point x="425" y="22" type="line"/>
    </contour>
  </outline>
</glyph>
<glyph name="asciitilde" format="2">
  <advance width="639"/>
  <unicode hex="007E"/>
  <outline>
    <contour>
      <point x="1" y="134" type="line"/>
      <point x="9" y="226"/>
      <point x="56" y="272"/>
      <point x="119" y="272" type="curve"/>
      <point x="119" y="272"/>
      <point x="119" y="272"/>
      <point x="119" y="272" type="curve"/>
      <point x="168" y="272"/>
      <point x="197" y="238"/>
      <point x="227" y="204" type="curve" smooth="yes"/>
      <point x="227" y="204"/>
      <point x="227" y="204"/>
      <point x="227" y="204" type="curve" smooth="yes"/>
      <point x="252" y="175"/>
      <point x="278" y="146"/>
      <point x="320" y="146" type="curve"/>
      <point x="320" y="146"/>
      <point x="320" y="146"/>
      <point x="320" y="146" type="curve"/>
      <point x="376" y="146"/>
      <point x="414" y="189"/>
      <point x="422" y="271" type="curve"/>
      <point x="438" y="269" type="line"/>
      <point x="428" y="177"/>
      <point x="382" y="130"/>
      <point x="320" y="130" type="curve"/>
      <point x="320" y="130"/>
      <point x="320" y="130"/>
      <point x="320" y="130" type="curve"/>
      <point x="272" y="130"/>
      <point x="244" y="161"/>
      <point x="215" y="194" type="curve" smooth="yes"/>
      <point x="215" y="194"/>
      <point x="215" y="194"/>
      <point x="215" y="194" type="curve" smooth="yes"/>
      <point x="189" y="224"/>
      <point x="162" y="256"/>
      <point x="119" y="256" type="curve"/>
      <point x="119" y="256"/>
      <point x="119" y="256"/>
      <point x="119" y="256" type="curve"/>
      <point x="63" y="256"/>
      <point x="24" y="214"/>
      <point x="17" y="132" type="curve"/>
    </contour>
    <contour>
      <point x="162" y="163" type="line"/>
      <point x="11" y="125" type="line" smooth="yes"/>
      <point x="3" y="123"/>
      <point x="-3" y="134"/>
      <point x="4" y="139" type="curve" smooth="yes"/>
      <point x="50" y="177" type="line"/>
      <point x="60" y="165" type="line"/>
      <point x="14" y="127" type="line" smooth="yes"/>
      <point x="8" y="121"/>
      <point x="-1" y="139"/>
      <point x="7" y="141" type="curve" smooth="yes"/>
      <point x="158" y="179" type="line"/>
    </contour>
    <contour>
      <point x="487" y="430" type="line"/>
      <point x="438" y="268" type="line" smooth="yes"/>
      <point x="435" y="260"/>
      <point x="418" y="269"/>
      <point x="424" y="276" type="curve" smooth="yes"/>
      <point x="578" y="438" type="line"/>
      <point x="590" y="426" type="line"/>
      <point x="436" y="264" type="line" smooth="yes"/>
      <point x="430" y="258"/>
      <point x="420" y="264"/>
      <point x="422" y="272" type="curve" smooth="yes"/>
      <point x="471" y="434" type="line"/>
    </contour>
  </outline>
</glyph>
<glyph name="exclamdown" format="2">
  <advance width="289"/>
  <unicode hex="00A1"/>
  <outline>
    <contour>
      <point x="226" y="511" type="line"/>
      <point x="46" y="491" type="line" smooth="yes"/>
      <point x="41" y="490"/>
      <point x="37" y="495"/>
      <point x="37" y="500" type="curve" smooth="yes"/>
      <point x="56" y="681" type="line"/>
      <point x="72" y="679" type="line"/>
      <point x="53" y="498" type="line" smooth="yes"/>
      <point x="52" y="493"/>
      <point x="39" y="506"/>
      <point x="44" y="507" type="curve" smooth="yes"/>
      <point x="224" y="527" type="line"/>
    </contour>
    <contour>
      <point x="231" y="674" type="line"/>
      <point x="51" y="493" type="line" smooth="yes"/>
      <point x="43" y="486"/>
      <point x="32" y="497"/>
      <point x="39" y="505" type="curve" smooth="yes"/>
      <point x="58" y="525" type="line"/>
      <point x="70" y="513" type="line"/>
      <point x="51" y="493" type="line" smooth="yes"/>
      <point x="44" y="486"/>
      <point x="32" y="497"/>
      <point x="39" y="505" type="curve" smooth="yes"/>
      <point x="219" y="686" type="line"/>
    </contour>
    <contour>
      <point x="53" y="277" type="line"/>
      <point x="53" y="-38" type="line"/>
      <point x="37" y="-38" type="line"/>
      <point x="37" y="277" type="line"/>
    </contour>
    <contour>
      <point x="99" y="421" type="line"/>
      <point x="53" y="275" type="line" smooth="yes"/>
      <point x="50" y="267"/>
      <point x="33" y="277"/>
      <point x="39" y="283" type="curve" smooth="yes"/>
      <point x="192" y="429" type="line"/>
      <point x="204" y="417" type="line"/>
      <point x="51" y="271" type="line" smooth="yes"/>
      <point x="45" y="266"/>
      <point x="35" y="272"/>
      <point x="37" y="279" type="curve" smooth="yes"/>
      <point x="83" y="425" type="line"/>
    </contour>
    <contour>
      <point x="240" y="-8" type="line"/>
      <point x="47" y="-46" type="line" smooth="yes"/>
      <point x="41" y="-47"/>
      <point x="36" y="-42"/>
      <point x="37" y="-37" type="curve" smooth="yes"/>
      <point x="43" y="1" type="line"/>
      <point x="59" y="-1" type="line"/>
      <point x="53" y="-39" type="line" smooth="yes"/>
      <point x="52" y="-45"/>
      <point x="38" y="-31"/>
      <point x="43" y="-30" type="curve" smooth="yes"/>
      <point x="236" y="8" type="line"/>
    </contour>
  </outline>
</glyph>
<glyph name="cent" format="2">
  <advance width="469"/>
  <unicode hex="00A2"/>
  <outline>
    <contour>
      <point x="178" y="523" type="line"/>
      <point x="171" y="409" type="line"/>
      <point x="155" y="409" type="line"/>
      <point x="162" y="523" type="line"/>
    </contour>
    <contour>
      <point x="255" y="391" type="line"/>
      <point x="225" y="401"/>
      <point x="191" y="404"/>
      <point x="164" y="401" type="curve" smooth="yes"/>
      <point x="164" y="401"/>
      <point x="164" y="401"/>
      <point x="164" y="401" type="curve" smooth="yes"/>
      <point x="70" y="390"/>
      <point x="9" y="319"/>
      <point x="9" y="213" type="curve"/>
      <point x="9" y="213"/>
      <point x="9" y="213"/>
      <point x="9" y="213" type="curve"/>
      <point x="9" y="115"/>
      <point x="61" y="47"/>
      <point x="144" y="29" type="curve" smooth="yes"/>
      <point x="144" y="29"/>
      <point x="144" y="29"/>
      <point x="144" y="29" type="curve" smooth="yes"/>
      <point x="178" y="21"/>
      <point x="219" y="23"/>
      <point x="255" y="35" type="curve"/>
      <point x="259" y="19" type="line"/>
      <point x="221" y="7"/>
      <point x="178" y="5"/>
      <point x="140" y="13" type="curve" smooth="yes"/>
      <point x="140" y="13"/>
      <point x="140" y="13"/>
      <point x="140" y="13" type="curve" smooth="yes"/>
      <point x="51" y="33"/>
      <point x="-7" y="107"/>
      <point x="-7" y="213" type="curve"/>
      <point x="-7" y="213"/>
      <point x="-7" y="213"/>
      <point x="-7" y="213" type="curve"/>
      <point x="-7" y="327"/>
      <point x="60" y="404"/>
      <point x="162" y="417" type="curve" smooth="yes"/>
      <point x="162" y="417"/>
      <point x="162" y="417"/>
      <point x="162" y="417" type="curve" smooth="yes"/>
      <point x="191" y="420"/>
      <point x="227" y="417"/>
      <point x="259" y="407" type="curve"/>
    </contour>
    <contour>
      <point x="150" y="21" type="line"/>
      <point x="143" y="-93" type="line"/>
      <point x="127" y="-93" type="line"/>
      <point x="134" y="21" type="line"/>
    </contour>
    <contour>
      <point x="424" y="536" type="line"/>
      <point x="262" y="393" type="line" smooth="yes"/>
      <point x="257" y="388"/>
      <point x="250" y="407"/>
      <point x="257" y="407" type="curve" smooth="yes"/>
      <point x="419" y="408" type="line"/>
      <point x="419" y="392" type="line"/>
      <point x="257" y="391" type="line" smooth="yes"/>
      <point x="250" y="391"/>
      <point x="246" y="400"/>
      <point x="252" y="405" type="curve" smooth="yes"/>
      <point x="414" y="548" type="line"/>
    </contour>
    <contour>
      <point x="425" y="221" type="line"/>
      <point x="263" y="22" type="line" smooth="yes"/>
      <point x="258" y="16"/>
      <point x="247" y="32"/>
      <point x="254" y="35" type="curve" smooth="yes"/>
      <point x="416" y="92" type="line"/>
      <point x="422" y="76" type="line"/>
      <point x="260" y="19" type="line" smooth="yes"/>
      <point x="252" y="17"/>
      <point x="246" y="26"/>
      <point x="251" y="32" type="curve" smooth="yes"/>
      <point x="413" y="231" type="line"/>
    </contour>
    <contour>
      <point x="219" y="678" type="line"/>
      <point x="178" y="521" type="line" smooth="yes"/>
      <point x="176" y="513"/>
      <point x="159" y="523"/>
      <point x="165" y="529" type="curve" smooth="yes"/>
      <point x="331" y="686" type="line"/>
      <point x="341" y="674" type="line"/>
      <point x="175" y="517" type="line" smooth="yes"/>
      <point x="170" y="512"/>
      <point x="160" y="517"/>
      <point x="162" y="525" type="curve" smooth="yes"/>
      <point x="203" y="682" type="line"/>
    </contour>
    <contour>
      <point x="211" y="554" type="line"/>
      <point x="171" y="407" type="line" smooth="yes"/>
      <point x="169" y="399"/>
      <point x="152" y="409"/>
      <point x="158" y="415" type="curve" smooth="yes"/>
      <point x="324" y="571" type="line"/>
      <point x="334" y="559" type="line"/>
      <point x="168" y="403" type="line" smooth="yes"/>
      <point x="163" y="398"/>
      <point x="153" y="403"/>
      <point x="155" y="411" type="curve" smooth="yes"/>
      <point x="195" y="558" type="line"/>
    </contour>
    <contour>
      <point x="296" y="-58" type="line"/>
      <point x="137" y="-101" type="line" smooth="yes"/>
      <point x="130" y="-103"/>
      <point x="124" y="-94"/>
      <point x="129" y="-88" type="curve" smooth="yes"/>
      <point x="163" y="-45" type="line"/>
      <point x="175" y="-55" type="line"/>
      <point x="141" y="-98" type="line" smooth="yes"/>
      <point x="136" y="-104"/>
      <point x="125" y="-87"/>
      <point x="133" y="-85" type="curve" smooth="yes"/>
      <point x="292" y="-42" type="line"/>
    </contour>
    <contour>
      <point x="303" y="51" type="line"/>
      <point x="144" y="13" type="line" smooth="yes"/>
      <point x="137" y="12"/>
      <point x="132" y="19"/>
      <point x="135" y="25" type="curve" smooth="yes"/>
      <point x="170" y="84" type="line"/>
      <point x="184" y="76" type="line"/>
      <point x="149" y="17" type="line" smooth="yes"/>
      <point x="145" y="11"/>
      <point x="133" y="27"/>
      <point x="140" y="29" type="curve" smooth="yes"/>
      <point x="299" y="67" type="line"/>
    </contour>
  </outline>
</glyph>
<glyph name="sterling" format="2">
  <advance width="566"/>
  <unicode hex="00A3"/>
  <outline>
    <contour>
      <point x="345" y="-36" type="line"/>
      <point x="289" y="-42"/>
      <point x="215" y="-44"/>
      <point x="102" y="-44" type="curve"/>
      <point x="102" y="-44"/>
      <point x="102" y="-44"/>
      <point x="102" y="-44" type="curve"/>
      <point x="22" y="-44" type="line" smooth="yes"/>
      <point x="12" y="-44"/>
      <point x="11" y="-30"/>
      <point x="21" y="-28" type="curve" smooth="yes"/>
      <point x="78" y="-19"/>
      <point x="111" y="5"/>
      <point x="111" y="96" type="curve"/>
      <point x="111" y="96"/>
      <point x="111" y="96"/>
      <point x="111" y="96" type="curve"/>
      <point x="111" y="134"/>
      <point x="101" y="183"/>
      <point x="90" y="231" type="curve" smooth="yes"/>
      <point x="90" y="231"/>
      <point x="90" y="231"/>
      <point x="90" y="231" type="curve" smooth="yes"/>
      <point x="80" y="281"/>
      <point x="70" y="331"/>
      <point x="70" y="375" type="curve"/>
      <point x="70" y="375"/>
      <point x="70" y="375"/>
      <point x="70" y="375" type="curve"/>
      <point x="70" y="486"/>
      <point x="152" y="539"/>
      <point x="252" y="538" type="curve" smooth="yes"/>
      <point x="252" y="538"/>
      <point x="252" y="538"/>
      <point x="252" y="538" type="curve" smooth="yes"/>
      <point x="282" y="538"/>
      <point x="298" y="538"/>
      <point x="342" y="520" type="curve"/>
      <point x="336" y="506" type="line"/>
      <point x="294" y="522"/>
      <point x="280" y="522"/>
      <point x="252" y="522" type="curve" smooth="yes"/>
      <point x="252" y="522"/>
      <point x="252" y="522"/>
      <point x="252" y="522" type="curve" smooth="yes"/>
      <point x="160" y="523"/>
      <point x="86" y="476"/>
      <point x="86" y="375" type="curve"/>
      <point x="86" y="375"/>
      <point x="86" y="375"/>
      <point x="86" y="375" type="curve"/>
      <point x="86" y="333"/>
      <point x="96" y="283"/>
      <point x="106" y="235" type="curve" smooth="yes"/>
      <point x="106" y="235"/>
      <point x="106" y="235"/>
      <point x="106" y="235" type="curve" smooth="yes"/>
      <point x="117" y="185"/>
      <point x="127" y="136"/>
      <point x="127" y="96" type="curve"/>
      <point x="127" y="96"/>
      <point x="127" y="96"/>
      <point x="127" y="96" type="curve"/>
      <point x="127" y="-5"/>
      <point x="86" y="-33"/>
      <point x="23" y="-44" type="curve" smooth="yes"/>
      <point x="14" y="-46"/>
      <point x="12" y="-28"/>
      <point x="22" y="-28" type="curve" smooth="yes"/>
      <point x="102" y="-28" type="line"/>
      <point x="102" y="-28"/>
      <point x="102" y="-28"/>
      <point x="102" y="-28" type="curve"/>
      <point x="215" y="-28"/>
      <point x="287" y="-26"/>
      <point x="343" y="-20" type="curve"/>
    </contour>
    <contour>
      <point x="12" y="241" type="line"/>
      <point x="98" y="241" type="line"/>
      <point x="98" y="241"/>
      <point x="98" y="241"/>
      <point x="98" y="241" type="curve"/>
      <point x="314" y="241" type="line"/>
      <point x="314" y="225" type="line"/>
      <point x="98" y="225" type="line"/>
      <point x="98" y="225"/>
      <point x="98" y="225"/>
      <point x="98" y="225" type="curve"/>
      <point x="12" y="225" type="line"/>
    </contour>
    <contour>
      <point x="506" y="660" type="line"/>
      <point x="344" y="507" type="line" smooth="yes"/>
      <point x="339" y="502"/>
      <point x="333" y="522"/>
      <point x="340" y="521" type="curve" smooth="yes"/>
      <point x="502" y="508" type="line"/>
      <point x="500" y="492" type="line"/>
      <point x="338" y="505" type="line" smooth="yes"/>
      <point x="331" y="506"/>
      <point x="328" y="514"/>
      <point x="334" y="519" type="curve" smooth="yes"/>
      <point x="496" y="672" type="line"/>
    </contour>
    <contour>
      <point x="532" y="166" type="line"/>
      <point x="350" y="-33" type="line" smooth="yes"/>
      <point x="345" y="-39"/>
      <point x="335" y="-21"/>
      <point x="343" y="-20" type="curve" smooth="yes"/>
      <point x="505" y="8" type="line"/>
      <point x="507" y="-8" type="line"/>
      <point x="345" y="-36" type="line" smooth="yes"/>
      <point x="338" y="-37"/>
      <point x="333" y="-28"/>
      <point x="338" y="-23" type="curve" smooth="yes"/>
      <point x="520" y="176" type="line"/>
    </contour>
    <contour>
      <point x="66" y="-6" type="line"/>
      <point x="28" y="-42" type="line" smooth="yes"/>
      <point x="22" y="-47"/>
      <point x="12" y="-42"/>
      <point x="14" y="-34" type="curve" smooth="yes"/>
      <point x="52" y="129" type="line"/>
      <point x="68" y="125" type="line"/>
      <point x="30" y="-38" type="line" smooth="yes"/>
      <point x="28" y="-46"/>
      <point x="11" y="-36"/>
      <point x="16" y="-30" type="curve" smooth="yes"/>
      <point x="54" y="6" type="line"/>
    </contour>
    <contour>
      <point x="65" y="271" type="line"/>
      <point x="17" y="227" type="line" smooth="yes"/>
      <point x="11" y="222"/>
      <point x="2" y="228"/>
      <point x="4" y="235" type="curve" smooth="yes"/>
      <point x="52" y="391" type="line"/>
      <point x="68" y="387" type="line"/>
      <point x="20" y="231" type="line" smooth="yes"/>
      <point x="17" y="223"/>
      <point x="1" y="233"/>
      <point x="7" y="239" type="curve" smooth="yes"/>
      <point x="55" y="283" type="line"/>
    </contour>
    <contour>
      <point x="482" y="383" type="line"/>
      <point x="320" y="227" type="line" smooth="yes"/>
      <point x="314" y="221"/>
      <point x="304" y="238"/>
      <point x="312" y="241" type="curve" smooth="yes"/>
      <point x="464" y="285" type="line"/>
      <point x="468" y="269" type="line"/>
      <point x="316" y="225" type="line" smooth="yes"/>
      <point x="308" y="223"/>
      <point x="302" y="233"/>
      <point x="308" y="239" type="curve" smooth="yes"/>
      <point x="470" y="395" type="line"/>
    </contour>
    <contour>
      <point x="267" y="383" type="line"/>
      <point x="104" y="227" type="line" smooth="yes"/>
      <point x="96" y="220"/>
      <point x="85" y="230"/>
      <point x="92" y="238" type="curve" smooth="yes"/>
      <point x="129" y="282" type="line"/>
      <point x="141" y="272" type="line"/>
      <point x="104" y="228" type="line" smooth="yes"/>
      <point x="98" y="220"/>
      <point x="85" y="232"/>
      <point x="92" y="239" type="curve" smooth="yes"/>
      <point x="255" y="395" type="line"/>
    </contour>
    <contour>
      <point x="121" y="388" type="line"/>
      <point x="106" y="232" type="line" smooth="yes"/>
      <point x="105" y="227"/>
      <point x="91" y="240"/>
      <point x="96" y="241" type="curve" smooth="yes"/>
      <point x="282" y="285" type="line"/>
      <point x="286" y="269" type="line"/>
      <point x="100" y="225" type="line" smooth="yes"/>
      <point x="95" y="224"/>
      <point x="90" y="228"/>
      <point x="90" y="234" type="curve" smooth="yes"/>
      <point x="105" y="390" type="line"/>
    </contour>
    <contour>
      <point x="22" y="-28" type="line"/>
      <point x="89" y="-28"/>
      <point x="181" y="19"/>
      <point x="272" y="132" type="curve"/>
      <point x="284" y="122" type="line"/>
      <point x="189" y="3"/>
      <point x="93" y="-44"/>
      <point x="22" y="-44" type="curve"/>
    </contour>
  </outline>
</glyph>
<glyph name="currency" format="2">
  <advance width="646"/>
  <unicode hex="00A4"/>
  <outline>
    <contour>
      <point x="350" y="370" type="curve"/>
      <point x="350" y="370"/>
      <point x="350" y="370"/>
      <point x="350" y="370" type="curve"/>
      <point x="411" y="309"/>
      <point x="411" y="181"/>
      <point x="351" y="118" type="curve" smooth="yes"/>
      <point x="351" y="118"/>
      <point x="351" y="118"/>
      <point x="351" y="118" type="curve" smooth="yes"/>
      <point x="289" y="54"/>
      <point x="161" y="55"/>
      <point x="97" y="118" type="curve"/>
      <point x="97" y="118"/>
      <point x="97" y="118"/>
      <point x="97" y="118" type="curve"/>
      <point x="36" y="179"/>
      <point x="36" y="307"/>
      <point x="96" y="370" type="curve" smooth="yes"/>
      <point x="96" y="370"/>
      <point x="96" y="370"/>
      <point x="96" y="370" type="curve" smooth="yes"/>
      <point x="158" y="434"/>
      <point x="286" y="433"/>
    </contour>
    <contour>
      <point x="23" y="455" type="line"/>
      <point x="108" y="370" type="line"/>
      <point x="96" y="358" type="line"/>
      <point x="11" y="443" type="line"/>
    </contour>
    <contour>
      <point x="338" y="370" type="line"/>
      <point x="423" y="455" type="line"/>
      <point x="435" y="443" type="line"/>
      <point x="350" y="358" type="line"/>
    </contour>
    <contour>
      <point x="30" y="548" type="line"/>
      <point x="25" y="449" type="line" smooth="yes"/>
      <point x="25" y="440"/>
      <point x="6" y="445"/>
      <point x="10" y="453" type="curve" smooth="yes"/>
      <point x="111" y="648" type="line"/>
      <point x="125" y="640" type="line"/>
      <point x="24" y="445" type="line" smooth="yes"/>
      <point x="20" y="438"/>
      <point x="9" y="441"/>
      <point x="9" y="449" type="curve" smooth="yes"/>
      <point x="14" y="548" type="line"/>
    </contour>
    <contour>
      <point x="535" y="640" type="line"/>
      <point x="436" y="445" type="line" smooth="yes"/>
      <point x="433" y="438"/>
      <point x="418" y="453"/>
      <point x="425" y="456" type="curve" smooth="yes"/>
      <point x="620" y="555" type="line"/>
      <point x="628" y="541" type="line"/>
      <point x="433" y="442" type="line" smooth="yes"/>
      <point x="426" y="438"/>
      <point x="418" y="446"/>
      <point x="422" y="453" type="curve" smooth="yes"/>
      <point x="521" y="648" type="line"/>
    </contour>
    <contour>
      <point x="124" y="452" type="line"/>
      <point x="110" y="363" type="line" smooth="yes"/>
      <point x="109" y="354"/>
      <point x="91" y="361"/>
      <point x="95" y="368" type="curve" smooth="yes"/>
      <point x="206" y="554" type="line"/>
      <point x="220" y="546" type="line"/>
      <point x="109" y="360" type="line" smooth="yes"/>
      <point x="104" y="352"/>
      <point x="93" y="357"/>
      <point x="94" y="365" type="curve" smooth="yes"/>
      <point x="108" y="454" type="line"/>
    </contour>
    <contour>
      <point x="440" y="546" type="line"/>
      <point x="351" y="361" type="line" smooth="yes"/>
      <point x="348" y="354"/>
      <point x="334" y="368"/>
      <point x="341" y="371" type="curve" smooth="yes"/>
      <point x="526" y="460" type="line"/>
      <point x="532" y="446" type="line"/>
      <point x="347" y="357" type="line" smooth="yes"/>
      <point x="341" y="354"/>
      <point x="334" y="361"/>
      <point x="337" y="367" type="curve" smooth="yes"/>
      <point x="426" y="552" type="line"/>
    </contour>
    <contour>
      <point x="338" y="358" type="curve"/>
      <point x="282" y="415"/>
      <point x="164" y="416"/>
      <point x="108" y="358" type="curve" smooth="yes"/>
      <point x="108" y="358"/>
      <point x="108" y="358"/>
      <point x="108" y="358" type="curve" smooth="yes"/>
      <point x="54" y="303"/>
      <point x="54" y="185"/>
      <point x="109" y="130" type="curve"/>
      <point x="109" y="130"/>
      <point x="109" y="130"/>
      <point x="109" y="130" type="curve"/>
      <point x="165" y="73"/>
      <point x="283" y="72"/>
      <point x="339" y="130" type="curve" smooth="yes"/>
      <point x="339" y="130"/>
      <point x="339" y="130"/>
      <point x="339" y="130" type="curve" smooth="yes"/>
      <point x="393" y="185"/>
      <point x="393" y="303"/>
      <point x="338" y="358" type="curve"/>
      <point x="338" y="358"/>
      <point x="338" y="358"/>
    </contour>
    <contour>
      <point x="424" y="33" type="line"/>
      <point x="339" y="118" type="line"/>
      <point x="351" y="130" type="line"/>
      <point x="436" y="45" type="line"/>
    </contour>
    <contour>
      <point x="109" y="118" type="line"/>
      <point x="24" y="33" type="line"/>
      <point x="12" y="45" type="line"/>
      <point x="97" y="130" type="line"/>
    </contour>
    <contour>
      <point x="629" y="133" type="line"/>
      <point x="434" y="32" type="line" smooth="yes"/>
      <point x="426" y="28"/>
      <point x="421" y="47"/>
      <point x="430" y="47" type="curve" smooth="yes"/>
      <point x="529" y="52" type="line"/>
      <point x="529" y="36" type="line"/>
      <point x="430" y="31" type="line" smooth="yes"/>
      <point x="422" y="31"/>
      <point x="419" y="42"/>
      <point x="426" y="46" type="curve" smooth="yes"/>
      <point x="621" y="147" type="line"/>
    </contour>
    <contour>
      <point x="119" y="36" type="line"/>
      <point x="18" y="31" type="line" smooth="yes"/>
      <point x="14" y="31"/>
      <point x="10" y="35"/>
      <point x="10" y="39" type="curve" smooth="yes"/>
      <point x="15" y="140" type="line"/>
      <point x="31" y="140" type="line"/>
      <point x="26" y="39" type="line" smooth="yes"/>
      <point x="26" y="34"/>
      <point x="13" y="47"/>
      <point x="18" y="47" type="curve" smooth="yes"/>
      <point x="119" y="52" type="line"/>
    </contour>
    <contour>
      <point x="535" y="228" type="line"/>
      <point x="349" y="117" type="line" smooth="yes"/>
      <point x="342" y="113"/>
      <point x="335" y="131"/>
      <point x="344" y="132" type="curve" smooth="yes"/>
      <point x="433" y="146" type="line"/>
      <point x="435" y="130" type="line"/>
      <point x="346" y="116" type="line" smooth="yes"/>
      <point x="338" y="115"/>
      <point x="333" y="126"/>
      <point x="341" y="131" type="curve" smooth="yes"/>
      <point x="527" y="242" type="line"/>
    </contour>
    <contour>
      <point x="215" y="131" type="line"/>
      <point x="104" y="116" type="line" smooth="yes"/>
      <point x="99" y="115"/>
      <point x="94" y="120"/>
      <point x="95" y="125" type="curve" smooth="yes"/>
      <point x="110" y="236" type="line"/>
      <point x="126" y="234" type="line"/>
      <point x="111" y="123" type="line" smooth="yes"/>
      <point x="110" y="118"/>
      <point x="97" y="131"/>
      <point x="102" y="132" type="curve" smooth="yes"/>
      <point x="213" y="147" type="line"/>
    </contour>
  </outline>
</glyph>
<glyph name="yen" format="2">
  <advance width="633"/>
  <unicode hex="00A5"/>
  <outline>
    <contour>
      <point x="210" y="-38" type="line"/>
      <point x="210" y="190" type="line" smooth="yes"/>
      <point x="210" y="191"/>
      <point x="210" y="192"/>
      <point x="211" y="193" type="curve" smooth="yes"/>
      <point x="311" y="430" type="line"/>
      <point x="325" y="424" type="line"/>
      <point x="225" y="187" type="line" smooth="yes"/>
      <point x="225" y="186"/>
      <point x="226" y="191"/>
      <point x="226" y="190" type="curve" smooth="yes"/>
      <point x="226" y="-38" type="line"/>
    </contour>
    <contour>
      <point x="48" y="522" type="line"/>
      <point x="210" y="222" type="line" smooth="yes"/>
      <point x="210" y="222"/>
      <point x="210" y="222"/>
      <point x="210" y="222" type="curve" smooth="yes"/>
      <point x="225" y="194" type="line" smooth="yes"/>
      <point x="228" y="188"/>
      <point x="208" y="188"/>
      <point x="211" y="194" type="curve" smooth="yes"/>
      <point x="226" y="222" type="line" smooth="yes"/>
      <point x="226" y="222"/>
      <point x="226" y="222"/>
      <point x="226" y="222" type="curve" smooth="yes"/>
      <point x="388" y="522" type="line"/>
      <point x="402" y="514" type="line"/>
      <point x="240" y="214" type="line" smooth="yes"/>
      <point x="240" y="214"/>
      <point x="240" y="214"/>
      <point x="240" y="214" type="curve" smooth="yes"/>
      <point x="225" y="186" type="line" smooth="yes"/>
      <point x="222" y="181"/>
      <point x="214" y="181"/>
      <point x="211" y="186" type="curve" smooth="yes"/>
      <point x="196" y="214" type="line" smooth="yes"/>
      <point x="196" y="214"/>
      <point x="196" y="214"/>
      <point x="196" y="214" type="curve" smooth="yes"/>
      <point x="34" y="514" type="line"/>
    </contour>
    <contour>
      <point x="405" y="50" type="line"/>
      <point x="30" y="50" type="line"/>
      <point x="30" y="66" type="line"/>
      <point x="405" y="66" type="line"/>
    </contour>
    <contour>
      <point x="418" y="-8" type="line"/>
      <point x="220" y="-46" type="line" smooth="yes"/>
      <point x="214" y="-47"/>
      <point x="210" y="-43"/>
      <point x="210" y="-38" type="curve" smooth="yes"/>
      <point x="211" y="0" type="line"/>
      <point x="227" y="0" type="line"/>
      <point x="226" y="-38" type="line" smooth="yes"/>
      <point x="226" y="-43"/>
      <point x="211" y="-31"/>
      <point x="216" y="-30" type="curve" smooth="yes"/>
      <point x="414" y="8" type="line"/>
    </contour>
    <contour>
      <point x="18" y="682" type="line"/>
      <point x="49" y="520" type="line" smooth="yes"/>
      <point x="50" y="513"/>
      <point x="31" y="520"/>
      <point x="36" y="524" type="curve" smooth="yes"/>
      <point x="218" y="686" type="line"/>
      <point x="228" y="674" type="line"/>
      <point x="46" y="512" type="line" smooth="yes"/>
      <point x="42" y="508"/>
      <point x="34" y="510"/>
      <point x="33" y="516" type="curve" smooth="yes"/>
      <point x="2" y="678" type="line"/>
    </contour>
    <contour>
      <point x="425" y="679" type="line"/>
      <point x="403" y="517" type="line" smooth="yes"/>
      <point x="402" y="510"/>
      <point x="385" y="520"/>
      <point x="390" y="525" type="curve" smooth="yes"/>
      <point x="618" y="687" type="line"/>
      <point x="628" y="673" type="line"/>
      <point x="400" y="511" type="line" smooth="yes"/>
      <point x="394" y="507"/>
      <point x="386" y="512"/>
      <point x="387" y="519" type="curve" smooth="yes"/>
      <point x="409" y="681" type="line"/>
    </contour>
    <contour>
      <point x="563" y="365" type="line"/>
      <point x="411" y="212" type="line" smooth="yes"/>
      <point x="405" y="206"/>
      <point x="395" y="223"/>
      <point x="403" y="226" type="curve" smooth="yes"/>
      <point x="555" y="274" type="line"/>
      <point x="559" y="258" type="line"/>
      <point x="407" y="210" type="line" smooth="yes"/>
      <point x="399" y="208"/>
      <point x="393" y="218"/>
      <point x="399" y="224" type="curve" smooth="yes"/>
      <point x="551" y="377" type="line"/>
    </contour>
    <contour>
      <point x="563" y="205" type="line"/>
      <point x="411" y="52" type="line" smooth="yes"/>
      <point x="405" y="46"/>
      <point x="395" y="63"/>
      <point x="403" y="66" type="curve" smooth="yes"/>
      <point x="555" y="114" type="line"/>
      <point x="559" y="98" type="line"/>
      <point x="407" y="50" type="line" smooth="yes"/>
      <point x="399" y="48"/>
      <point x="393" y="58"/>
      <point x="399" y="64" type="curve" smooth="yes"/>
      <point x="551" y="217" type="line"/>
    </contour>
    <contour>
      <point x="84" y="260" type="line"/>
      <point x="36" y="212" type="line" smooth="yes"/>
      <point x="30" y="206"/>
      <point x="20" y="212"/>
      <point x="22" y="220" type="curve" smooth="yes"/>
      <point x="70" y="373" type="line"/>
      <point x="86" y="369" type="line"/>
      <point x="38" y="216" type="line" smooth="yes"/>
      <point x="35" y="208"/>
      <point x="18" y="218"/>
      <point x="24" y="224" type="curve" smooth="yes"/>
      <point x="72" y="272" type="line"/>
    </contour>
    <contour>
      <point x="84" y="100" type="line"/>
      <point x="36" y="52" type="line" smooth="yes"/>
      <point x="30" y="46"/>
      <point x="20" y="52"/>
      <point x="22" y="60" type="curve" smooth="yes"/>
      <point x="70" y="213" type="line"/>
      <point x="86" y="209" type="line"/>
      <point x="38" y="56" type="line" smooth="yes"/>
      <point x="35" y="48"/>
      <point x="18" y="58"/>
      <point x="24" y="64" type="curve" smooth="yes"/>
      <point x="72" y="112" type="line"/>
    </contour>
    <contour>
      <point x="203" y="210" type="line"/>
      <point x="30" y="210" type="line"/>
      <point x="30" y="226" type="line"/>
      <point x="203" y="226" type="line"/>
    </contour>
    <contour>
      <point x="405" y="210" type="line"/>
      <point x="233" y="210" type="line"/>
      <point x="233" y="226" type="line"/>
      <point x="405" y="226" type="line"/>
    </contour>
    <contour>
      <point x="209" y="371" type="line"/>
      <point x="211" y="218" type="line" smooth="yes"/>
      <point x="211" y="211"/>
      <point x="192" y="218"/>
      <point x="197" y="223" type="curve" smooth="yes"/>
      <point x="240" y="271" type="line"/>
      <point x="252" y="261" type="line"/>
      <point x="209" y="213" type="line" smooth="yes"/>
      <point x="204" y="207"/>
      <point x="195" y="211"/>
      <point x="195" y="218" type="curve" smooth="yes"/>
      <point x="193" y="371" type="line"/>
    </contour>
    <contour>
      <point x="391" y="258" type="line"/>
      <point x="235" y="210" type="line" smooth="yes"/>
      <point x="227" y="208"/>
      <point x="221" y="219"/>
      <point x="228" y="224" type="curve" smooth="yes"/>
      <point x="428" y="377" type="line"/>
      <point x="438" y="365" type="line"/>
      <point x="238" y="212" type="line" smooth="yes"/>
      <point x="231" y="206"/>
      <point x="222" y="223"/>
      <point x="231" y="226" type="curve" smooth="yes"/>
      <point x="387" y="274" type="line"/>
    </contour>
    <contour>
      <point x="253" y="210" type="line"/>
      <point x="226" y="57" type="line" smooth="yes"/>
      <point x="225" y="51"/>
      <point x="210" y="64"/>
      <point x="216" y="66" type="curve" smooth="yes"/>
      <point x="392" y="114" type="line"/>
      <point x="396" y="98" type="line"/>
      <point x="220" y="50" type="line" smooth="yes"/>
      <point x="214" y="49"/>
      <point x="209" y="54"/>
      <point x="210" y="59" type="curve" smooth="yes"/>
      <point x="237" y="212" type="line"/>
    </contour>
    <contour>
      <point x="248" y="103" type="line"/>
      <point x="225" y="55" type="line" smooth="yes"/>
      <point x="221" y="47"/>
      <point x="206" y="58"/>
      <point x="213" y="64" type="curve" smooth="yes"/>
      <point x="385" y="217" type="line"/>
      <point x="395" y="205" type="line"/>
      <point x="223" y="52" type="line" smooth="yes"/>
      <point x="217" y="46"/>
      <point x="207" y="54"/>
      <point x="211" y="61" type="curve" smooth="yes"/>
      <point x="234" y="109" type="line"/>
    </contour>
  </outline>
</glyph>
<glyph name="section" format="2">
  <advance width="505"/>
  <unicode hex="00A7"/>
  <outline>
    <contour>
      <point x="290" y="195" type="curve"/>
      <point x="290" y="195"/>
      <point x="290" y="195"/>
      <point x="290" y="195" type="curve"/>
      <point x="290" y="252"/>
      <point x="241" y="294"/>
      <point x="160" y="294" type="curve"/>
      <point x="160" y="294"/>
      <point x="160" y="294"/>
      <point x="160" y="294" type="curve"/>
      <point x="73" y="294"/>
      <point x="14" y="246"/>
      <point x="14" y="186" type="curve"/>
      <point x="14" y="186"/>
      <point x="14" y="186"/>
      <point x="14" y="186" type="curve"/>
      <point x="14" y="130"/>
      <point x="63" y="86"/>
      <point x="144" y="86" type="curve"/>
      <point x="144" y="86"/>
      <point x="144" y="86"/>
      <point x="144" y="86" type="curve"/>
      <point x="231" y="86"/>
      <point x="290" y="134"/>
    </contour>
    <contour>
      <point x="265" y="511" type="line"/>
      <point x="239" y="519"/>
      <point x="213" y="523"/>
      <point x="189" y="523" type="curve"/>
      <point x="189" y="523"/>
      <point x="189" y="523"/>
      <point x="189" y="523" type="curve"/>
      <point x="105" y="523"/>
      <point x="46" y="486"/>
      <point x="46" y="430" type="curve"/>
      <point x="46" y="430"/>
      <point x="46" y="430"/>
      <point x="46" y="430" type="curve"/>
      <point x="46" y="375"/>
      <point x="105" y="354"/>
      <point x="163" y="331" type="curve" smooth="yes"/>
      <point x="163" y="331"/>
      <point x="163" y="331"/>
      <point x="163" y="331" type="curve" smooth="yes"/>
      <point x="235" y="303"/>
      <point x="306" y="275"/>
      <point x="306" y="195" type="curve"/>
      <point x="290" y="195" type="line"/>
      <point x="290" y="267"/>
      <point x="221" y="291"/>
      <point x="157" y="317" type="curve" smooth="yes"/>
      <point x="157" y="317"/>
      <point x="157" y="317"/>
      <point x="157" y="317" type="curve" smooth="yes"/>
      <point x="91" y="342"/>
      <point x="30" y="367"/>
      <point x="30" y="430" type="curve"/>
      <point x="30" y="430"/>
      <point x="30" y="430"/>
      <point x="30" y="430" type="curve"/>
      <point x="30" y="494"/>
      <point x="93" y="539"/>
      <point x="189" y="539" type="curve"/>
      <point x="189" y="539"/>
      <point x="189" y="539"/>
      <point x="189" y="539" type="curve"/>
      <point x="215" y="539"/>
      <point x="241" y="535"/>
      <point x="269" y="527" type="curve"/>
    </contour>
    <contour>
      <point x="306" y="195" type="curve"/>
      <point x="306" y="126"/>
      <point x="241" y="70"/>
      <point x="144" y="70" type="curve"/>
      <point x="144" y="70"/>
      <point x="144" y="70"/>
      <point x="144" y="70" type="curve"/>
      <point x="53" y="70"/>
      <point x="-2" y="122"/>
      <point x="-2" y="186" type="curve"/>
      <point x="-2" y="186"/>
      <point x="-2" y="186"/>
      <point x="-2" y="186" type="curve"/>
      <point x="-2" y="254"/>
      <point x="63" y="310"/>
      <point x="160" y="310" type="curve"/>
      <point x="160" y="310"/>
      <point x="160" y="310"/>
      <point x="160" y="310" type="curve"/>
      <point x="251" y="310"/>
      <point x="306" y="260"/>
      <point x="306" y="195" type="curve"/>
      <point x="306" y="195"/>
      <point x="306" y="195"/>
    </contour>
    <contour>
      <point x="14" y="186" type="line"/>
      <point x="14" y="113"/>
      <point x="84" y="84"/>
      <point x="149" y="59" type="curve" smooth="yes"/>
      <point x="149" y="59"/>
      <point x="149" y="59"/>
      <point x="149" y="59" type="curve" smooth="yes"/>
      <point x="221" y="31"/>
      <point x="286" y="8"/>
      <point x="286" y="-52" type="curve"/>
      <point x="286" y="-52"/>
      <point x="286" y="-52"/>
      <point x="286" y="-52" type="curve"/>
      <point x="286" y="-114"/>
      <point x="220" y="-160"/>
      <point x="119" y="-160" type="curve"/>
      <point x="119" y="-160"/>
      <point x="119" y="-160"/>
      <point x="119" y="-160" type="curve"/>
      <point x="90" y="-160"/>
      <point x="59" y="-155"/>
      <point x="27" y="-146" type="curve"/>
      <point x="31" y="-130" type="line"/>
      <point x="61" y="-139"/>
      <point x="92" y="-144"/>
      <point x="119" y="-144" type="curve"/>
      <point x="119" y="-144"/>
      <point x="119" y="-144"/>
      <point x="119" y="-144" type="curve"/>
      <point x="208" y="-144"/>
      <point x="270" y="-106"/>
      <point x="270" y="-52" type="curve"/>
      <point x="270" y="-52"/>
      <point x="270" y="-52"/>
      <point x="270" y="-52" type="curve"/>
      <point x="270" y="-1"/>
      <point x="205" y="21"/>
      <point x="143" y="45" type="curve" smooth="yes"/>
      <point x="143" y="45"/>
      <point x="143" y="45"/>
      <point x="143" y="45" type="curve" smooth="yes"/>
      <point x="70" y="72"/>
      <point x="-2" y="105"/>
      <point x="-2" y="186" type="curve"/>
    </contour>
    <contour>
      <point x="434" y="664" type="line"/>
      <point x="272" y="513" type="line" smooth="yes"/>
      <point x="267" y="508"/>
      <point x="260" y="527"/>
      <point x="267" y="527" type="curve" smooth="yes"/>
      <point x="429" y="530" type="line"/>
      <point x="429" y="514" type="line"/>
      <point x="267" y="511" type="line" smooth="yes"/>
      <point x="260" y="511"/>
      <point x="256" y="520"/>
      <point x="262" y="525" type="curve" smooth="yes"/>
      <point x="424" y="676" type="line"/>
    </contour>
    <contour>
      <point x="73" y="-94" type="line"/>
      <point x="35" y="-143" type="line" smooth="yes"/>
      <point x="30" y="-150"/>
      <point x="20" y="-145"/>
      <point x="21" y="-136" type="curve" smooth="yes"/>
      <point x="59" y="62" type="line"/>
      <point x="75" y="58" type="line"/>
      <point x="37" y="-140" type="line" smooth="yes"/>
      <point x="35" y="-148"/>
      <point x="18" y="-140"/>
      <point x="23" y="-133" type="curve" smooth="yes"/>
      <point x="61" y="-84" type="line"/>
    </contour>
    <contour>
      <point x="14" y="186" type="line"/>
      <point x="14" y="68"/>
      <point x="322" y="149"/>
      <point x="381" y="181" type="curve"/>
      <point x="389" y="167" type="line"/>
      <point x="320" y="129"/>
      <point x="-2" y="48"/>
      <point x="-2" y="186" type="curve"/>
    </contour>
    <contour>
      <point x="290" y="195" type="line"/>
      <point x="290" y="312"/>
      <point x="172" y="430"/>
      <point x="122" y="398" type="curve"/>
      <point x="114" y="412" type="line"/>
      <point x="172" y="449"/>
      <point x="306" y="332"/>
      <point x="306" y="195" type="curve"/>
    </contour>
  </outline>
</glyph>
<glyph name="copyright" format="2">
  <advance width="812"/>
  <unicode hex="00A9"/>
  <outline>
    <contour>
      <point x="326" y="-53" type="curve"/>
      <point x="326" y="-53"/>
      <point x="326" y="-53"/>
      <point x="326" y="-53" type="curve"/>
      <point x="144" y="-53"/>
      <point x="12" y="80"/>
      <point x="12" y="260" type="curve"/>
      <point x="12" y="260"/>
      <point x="12" y="260"/>
      <point x="12" y="260" type="curve"/>
      <point x="12" y="440"/>
      <point x="144" y="573"/>
      <point x="326" y="573" type="curve"/>
      <point x="326" y="573"/>
      <point x="326" y="573"/>
      <point x="326" y="573" type="curve"/>
      <point x="508" y="573"/>
      <point x="640" y="440"/>
      <point x="640" y="260" type="curve"/>
      <point x="640" y="260"/>
      <point x="640" y="260"/>
      <point x="640" y="260" type="curve"/>
      <point x="640" y="80"/>
      <point x="508" y="-53"/>
    </contour>
    <contour>
      <point x="389" y="124" type="line"/>
      <point x="294" y="106"/>
      <point x="216" y="162"/>
      <point x="216" y="260" type="curve"/>
      <point x="216" y="260"/>
      <point x="216" y="260"/>
      <point x="216" y="260" type="curve"/>
      <point x="216" y="358"/>
      <point x="299" y="417"/>
      <point x="390" y="396" type="curve"/>
      <point x="386" y="380" type="line"/>
      <point x="305" y="399"/>
      <point x="232" y="348"/>
      <point x="232" y="260" type="curve"/>
      <point x="232" y="260"/>
      <point x="232" y="260"/>
      <point x="232" y="260" type="curve"/>
      <point x="232" y="172"/>
      <point x="300" y="124"/>
      <point x="387" y="140" type="curve"/>
    </contour>
    <contour>
      <point x="326" y="-37" type="curve"/>
      <point x="500" y="-37"/>
      <point x="624" y="88"/>
      <point x="624" y="260" type="curve"/>
      <point x="624" y="260"/>
      <point x="624" y="260"/>
      <point x="624" y="260" type="curve"/>
      <point x="624" y="432"/>
      <point x="500" y="557"/>
      <point x="326" y="557" type="curve"/>
      <point x="326" y="557"/>
      <point x="326" y="557"/>
      <point x="326" y="557" type="curve"/>
      <point x="152" y="557"/>
      <point x="28" y="432"/>
      <point x="28" y="260" type="curve"/>
      <point x="28" y="260"/>
      <point x="28" y="260"/>
      <point x="28" y="260" type="curve"/>
      <point x="28" y="88"/>
      <point x="152" y="-37"/>
      <point x="326" y="-37" type="curve"/>
      <point x="326" y="-37"/>
      <point x="326" y="-37"/>
    </contour>
    <contour>
      <point x="525" y="494" type="line"/>
      <point x="393" y="382" type="line" smooth="yes"/>
      <point x="387" y="377"/>
      <point x="380" y="396"/>
      <point x="388" y="396" type="curve" smooth="yes"/>
      <point x="520" y="404" type="line"/>
      <point x="520" y="388" type="line"/>
      <point x="388" y="380" type="line" smooth="yes"/>
      <point x="381" y="380"/>
      <point x="377" y="389"/>
      <point x="383" y="394" type="curve" smooth="yes"/>
      <point x="515" y="506" type="line"/>
    </contour>
    <contour>
      <point x="526" y="280" type="line"/>
      <point x="394" y="127" type="line" smooth="yes"/>
      <point x="389" y="121"/>
      <point x="378" y="137"/>
      <point x="385" y="140" type="curve" smooth="yes"/>
      <point x="517" y="188" type="line"/>
      <point x="523" y="172" type="line"/>
      <point x="391" y="124" type="line" smooth="yes"/>
      <point x="383" y="122"/>
      <point x="377" y="131"/>
      <point x="382" y="137" type="curve" smooth="yes"/>
      <point x="514" y="290" type="line"/>
    </contour>
  </outline>
</glyph>
<glyph name="ordfeminine" format="2">
  <advance width="495"/>
  <unicode hex="00AA"/>
  <outline>
    <contour>
      <point x="288" y="386" type="curve"/>
      <point x="288" y="386"/>
      <point x="288" y="386"/>
      <point x="288" y="386" type="curve"/>
      <point x="288" y="291"/>
      <point x="223" y="224"/>
      <point x="141" y="224" type="curve"/>
      <point x="141" y="224"/>
      <point x="141" y="224"/>
      <point x="141" y="224" type="curve"/>
      <point x="59" y="224"/>
      <point x="-2" y="290"/>
      <point x="-2" y="388" type="curve"/>
      <point x="-2" y="388"/>
      <point x="-2" y="388"/>
      <point x="-2" y="388" type="curve"/>
      <point x="-2" y="487"/>
      <point x="60" y="552"/>
      <point x="144" y="552" type="curve"/>
      <point x="144" y="552"/>
      <point x="144" y="552"/>
      <point x="144" y="552" type="curve"/>
      <point x="224" y="552"/>
      <point x="288" y="485"/>
    </contour>
    <contour>
      <point x="287" y="60" type="line"/>
      <point x="18" y="60" type="line"/>
      <point x="18" y="76" type="line"/>
      <point x="287" y="76" type="line"/>
    </contour>
    <contour>
      <point x="71" y="107" type="line"/>
      <point x="23" y="62" type="line" smooth="yes"/>
      <point x="17" y="57"/>
      <point x="8" y="63"/>
      <point x="10" y="70" type="curve" smooth="yes"/>
      <point x="58" y="224" type="line"/>
      <point x="74" y="220" type="line"/>
      <point x="26" y="66" type="line" smooth="yes"/>
      <point x="23" y="58"/>
      <point x="7" y="68"/>
      <point x="13" y="74" type="curve" smooth="yes"/>
      <point x="61" y="119" type="line"/>
    </contour>
    <contour>
      <point x="445" y="216" type="line"/>
      <point x="293" y="62" type="line" smooth="yes"/>
      <point x="287" y="56"/>
      <point x="277" y="73"/>
      <point x="285" y="76" type="curve" smooth="yes"/>
      <point x="437" y="121" type="line"/>
      <point x="441" y="105" type="line"/>
      <point x="289" y="60" type="line" smooth="yes"/>
      <point x="281" y="58"/>
      <point x="275" y="68"/>
      <point x="281" y="74" type="curve" smooth="yes"/>
      <point x="433" y="228" type="line"/>
    </contour>
    <contour>
      <point x="272" y="386" type="curve"/>
      <point x="272" y="475"/>
      <point x="216" y="536"/>
      <point x="144" y="536" type="curve"/>
      <point x="144" y="536"/>
      <point x="144" y="536"/>
      <point x="144" y="536" type="curve"/>
      <point x="68" y="536"/>
      <point x="14" y="477"/>
      <point x="14" y="388" type="curve"/>
      <point x="14" y="388"/>
      <point x="14" y="388"/>
      <point x="14" y="388" type="curve"/>
      <point x="14" y="300"/>
      <point x="67" y="240"/>
      <point x="141" y="240" type="curve"/>
      <point x="141" y="240"/>
      <point x="141" y="240"/>
      <point x="141" y="240" type="curve"/>
      <point x="215" y="240"/>
      <point x="272" y="301"/>
      <point x="272" y="386" type="curve"/>
      <point x="272" y="386"/>
      <point x="272" y="386"/>
    </contour>
    <contour>
      <point x="288" y="538" type="line"/>
      <point x="288" y="237" type="line"/>
      <point x="272" y="237" type="line"/>
      <point x="272" y="538" type="line"/>
    </contour>
    <contour>
      <point x="442" y="287" type="line"/>
      <point x="283" y="229" type="line" smooth="yes"/>
      <point x="275" y="227"/>
      <point x="269" y="235"/>
      <point x="273" y="242" type="curve" smooth="yes"/>
      <point x="313" y="300" type="line"/>
      <point x="327" y="290" type="line"/>
      <point x="287" y="232" type="line" smooth="yes"/>
      <point x="282" y="226"/>
      <point x="270" y="242"/>
      <point x="277" y="245" type="curve" smooth="yes"/>
      <point x="436" y="303" type="line"/>
    </contour>
    <contour>
      <point x="328" y="678" type="line"/>
      <point x="288" y="536" type="line" smooth="yes"/>
      <point x="286" y="528"/>
      <point x="269" y="539"/>
      <point x="275" y="544" type="curve" smooth="yes"/>
      <point x="434" y="686" type="line"/>
      <point x="444" y="674" type="line"/>
      <point x="285" y="532" type="line" smooth="yes"/>
      <point x="279" y="527"/>
      <point x="270" y="532"/>
      <point x="272" y="540" type="curve" smooth="yes"/>
      <point x="312" y="682" type="line"/>
    </contour>
  </outline>
</glyph>
<glyph name="guillemetleft" format="2">
  <advance width="752"/>
  <unicode hex="00AB"/>
  <outline>
    <contour>
      <point x="398" y="575" type="line"/>
      <point x="280" y="423"/>
      <point x="163" y="302"/>
      <point x="35" y="197" type="curve" smooth="yes"/>
      <point x="30" y="193"/>
      <point x="27" y="213"/>
      <point x="33" y="210" type="curve" smooth="yes"/>
      <point x="159" y="160"/>
      <point x="278" y="105"/>
      <point x="396" y="33" type="curve"/>
      <point x="388" y="19" type="line"/>
      <point x="270" y="91"/>
      <point x="153" y="146"/>
      <point x="27" y="196" type="curve" smooth="yes"/>
      <point x="21" y="198"/>
      <point x="20" y="205"/>
      <point x="25" y="209" type="curve" smooth="yes"/>
      <point x="151" y="314"/>
      <point x="268" y="433"/>
      <point x="386" y="585" type="curve"/>
    </contour>
    <contour>
      <point x="13" y="305" type="line"/>
      <point x="38" y="205" type="line" smooth="yes"/>
      <point x="39" y="200"/>
      <point x="22" y="208"/>
      <point x="27" y="210" type="curve" smooth="yes"/>
      <point x="252" y="310" type="line"/>
      <point x="258" y="296" type="line"/>
      <point x="33" y="196" type="line" smooth="yes"/>
      <point x="29" y="194"/>
      <point x="23" y="196"/>
      <point x="22" y="201" type="curve" smooth="yes"/>
      <point x="-3" y="301" type="line"/>
    </contour>
    <contour>
      <point x="718" y="575" type="line"/>
      <point x="600" y="423"/>
      <point x="483" y="302"/>
      <point x="355" y="197" type="curve" smooth="yes"/>
      <point x="350" y="193"/>
      <point x="347" y="213"/>
      <point x="353" y="210" type="curve" smooth="yes"/>
      <point x="479" y="160"/>
      <point x="598" y="105"/>
      <point x="716" y="33" type="curve"/>
      <point x="708" y="19" type="line"/>
      <point x="590" y="91"/>
      <point x="473" y="146"/>
      <point x="347" y="196" type="curve" smooth="yes"/>
      <point x="341" y="198"/>
      <point x="340" y="205"/>
      <point x="345" y="209" type="curve" smooth="yes"/>
      <point x="471" y="314"/>
      <point x="588" y="433"/>
      <point x="706" y="585" type="curve"/>
    </contour>
    <contour>
      <point x="333" y="305" type="line"/>
      <point x="358" y="205" type="line" smooth="yes"/>
      <point x="359" y="200"/>
      <point x="342" y="208"/>
      <point x="347" y="210" type="curve" smooth="yes"/>
      <point x="572" y="310" type="line"/>
      <point x="578" y="296" type="line"/>
      <point x="353" y="196" type="line" smooth="yes"/>
      <point x="349" y="194"/>
      <point x="343" y="196"/>
      <point x="342" y="201" type="curve" smooth="yes"/>
      <point x="317" y="301" type="line"/>
    </contour>
  </outline>
</glyph>
<glyph name="logicalnot" format="2">
  <advance width="490"/>
  <unicode hex="00AC"/>
  <outline>
    <contour>
      <point x="2" y="290" type="line"/>
      <point x="286" y="290" type="line" smooth="yes"/>
      <point x="290" y="290"/>
      <point x="294" y="286"/>
      <point x="294" y="282" type="curve" smooth="yes"/>
      <point x="294" y="136" type="line"/>
      <point x="278" y="136" type="line"/>
      <point x="278" y="282" type="line" smooth="yes"/>
      <point x="278" y="286"/>
      <point x="290" y="274"/>
      <point x="286" y="274" type="curve" smooth="yes"/>
      <point x="2" y="274" type="line"/>
    </contour>
    <contour>
      <point x="46" y="313" type="line"/>
      <point x="8" y="276" type="line" smooth="yes"/>
      <point x="2" y="271"/>
      <point x="-8" y="276"/>
      <point x="-6" y="284" type="curve" smooth="yes"/>
      <point x="32" y="448" type="line"/>
      <point x="48" y="444" type="line"/>
      <point x="10" y="280" type="line" smooth="yes"/>
      <point x="8" y="272"/>
      <point x="-9" y="282"/>
      <point x="-4" y="288" type="curve" smooth="yes"/>
      <point x="34" y="325" type="line"/>
    </contour>
    <contour>
      <point x="452" y="166" type="line"/>
      <point x="288" y="128" type="line" smooth="yes"/>
      <point x="280" y="126"/>
      <point x="275" y="136"/>
      <point x="280" y="141" type="curve" smooth="yes"/>
      <point x="315" y="179" type="line"/>
      <point x="327" y="169" type="line"/>
      <point x="292" y="131" type="line" smooth="yes"/>
      <point x="287" y="125"/>
      <point x="277" y="142"/>
      <point x="284" y="144" type="curve" smooth="yes"/>
      <point x="448" y="182" type="line"/>
    </contour>
    <contour>
      <point x="327" y="314" type="line"/>
      <point x="292" y="277" type="line" smooth="yes"/>
      <point x="285" y="269"/>
      <point x="273" y="280"/>
      <point x="280" y="288" type="curve" smooth="yes"/>
      <point x="444" y="452" type="line"/>
      <point x="456" y="440" type="line"/>
      <point x="292" y="276" type="line" smooth="yes"/>
      <point x="284" y="269"/>
      <point x="273" y="280"/>
      <point x="280" y="287" type="curve" smooth="yes"/>
      <point x="315" y="324" type="line"/>
    </contour>
  </outline>
</glyph>
<glyph name="registered" format="2">
  <advance width="614"/>
  <unicode hex="00AE"/>
  <outline>
    <contour>
      <point x="181" y="305" type="line"/>
      <point x="181" y="508" type="line" smooth="yes"/>
      <point x="181" y="512"/>
      <point x="185" y="516"/>
      <point x="189" y="516" type="curve" smooth="yes"/>
      <point x="257" y="516" type="line"/>
      <point x="257" y="516"/>
      <point x="257" y="516"/>
      <point x="257" y="516" type="curve"/>
      <point x="309" y="516"/>
      <point x="340" y="487"/>
      <point x="340" y="444" type="curve"/>
      <point x="340" y="444"/>
      <point x="340" y="444"/>
      <point x="340" y="444" type="curve"/>
      <point x="340" y="402"/>
      <point x="309" y="373"/>
      <point x="262" y="373" type="curve"/>
      <point x="262" y="373"/>
      <point x="262" y="373"/>
      <point x="262" y="373" type="curve"/>
      <point x="189" y="373" type="line"/>
      <point x="189" y="389" type="line"/>
      <point x="262" y="389" type="line"/>
      <point x="262" y="389"/>
      <point x="262" y="389"/>
      <point x="262" y="389" type="curve"/>
      <point x="299" y="389"/>
      <point x="324" y="410"/>
      <point x="324" y="444" type="curve"/>
      <point x="324" y="444"/>
      <point x="324" y="444"/>
      <point x="324" y="444" type="curve"/>
      <point x="324" y="479"/>
      <point x="299" y="500"/>
      <point x="257" y="500" type="curve"/>
      <point x="257" y="500"/>
      <point x="257" y="500"/>
      <point x="257" y="500" type="curve"/>
      <point x="189" y="500" type="line" smooth="yes"/>
      <point x="185" y="500"/>
      <point x="197" y="512"/>
      <point x="197" y="508" type="curve" smooth="yes"/>
      <point x="197" y="305" type="line"/>
    </contour>
    <contour>
      <point x="288" y="387" type="line"/>
      <point x="338" y="309" type="line"/>
      <point x="324" y="301" type="line"/>
      <point x="274" y="379" type="line"/>
    </contour>
    <contour>
      <point x="288" y="305" type="line"/>
      <point x="190" y="297" type="line" smooth="yes"/>
      <point x="185" y="297"/>
      <point x="180" y="301"/>
      <point x="181" y="306" type="curve" smooth="yes"/>
      <point x="182" y="314" type="line"/>
      <point x="198" y="312" type="line"/>
      <point x="197" y="304" type="line" smooth="yes"/>
      <point x="196" y="299"/>
      <point x="183" y="313"/>
      <point x="188" y="313" type="curve" smooth="yes"/>
      <point x="286" y="321" type="line"/>
    </contour>
    <contour>
      <point x="463" y="305" type="line"/>
      <point x="331" y="297" type="line" smooth="yes"/>
      <point x="322" y="296"/>
      <point x="320" y="310"/>
      <point x="328" y="313" type="curve" smooth="yes"/>
      <point x="351" y="321" type="line"/>
      <point x="357" y="305" type="line"/>
      <point x="334" y="297" type="line" smooth="yes"/>
      <point x="325" y="294"/>
      <point x="321" y="312"/>
      <point x="331" y="313" type="curve" smooth="yes"/>
      <point x="463" y="321" type="line"/>
    </contour>
    <contour>
      <point x="281" y="455" type="line"/>
      <point x="194" y="375" type="line" smooth="yes"/>
      <point x="188" y="370"/>
      <point x="179" y="387"/>
      <point x="187" y="389" type="curve" smooth="yes"/>
      <point x="274" y="409" type="line"/>
      <point x="278" y="393" type="line"/>
      <point x="191" y="373" type="line" smooth="yes"/>
      <point x="183" y="371"/>
      <point x="178" y="381"/>
      <point x="184" y="387" type="curve" smooth="yes"/>
      <point x="271" y="467" type="line"/>
    </contour>
    <contour>
      <point x="317" y="394" type="line"/>
      <point x="285" y="376" type="line" smooth="yes"/>
      <point x="276" y="371"/>
      <point x="269" y="387"/>
      <point x="278" y="391" type="curve" smooth="yes"/>
      <point x="377" y="426" type="line"/>
      <point x="383" y="410" type="line"/>
      <point x="284" y="375" type="line" smooth="yes"/>
      <point x="274" y="372"/>
      <point x="269" y="385"/>
      <point x="277" y="390" type="curve" smooth="yes"/>
      <point x="309" y="408" type="line"/>
    </contour>
    <contour>
      <point x="198" y="589" type="line"/>
      <point x="197" y="508" type="line" smooth="yes"/>
      <point x="197" y="503"/>
      <point x="182" y="515"/>
      <point x="187" y="516" type="curve" smooth="yes"/>
      <point x="275" y="535" type="line"/>
      <point x="279" y="519" type="line"/>
      <point x="191" y="500" type="line" smooth="yes"/>
      <point x="186" y="499"/>
      <point x="181" y="503"/>
      <point x="181" y="508" type="curve" smooth="yes"/>
      <point x="182" y="589" type="line"/>
    </contour>
  </outline>
</glyph>
<glyph name="degree" format="2">
  <advance width="532"/>
  <unicode hex="00B0"/>
  <outline>
    <contour>
      <point x="165" y="212" type="curve"/>
      <point x="165" y="212"/>
      <point x="165" y="212"/>
      <point x="165" y="212" type="curve"/>
      <point x="254" y="212"/>
      <point x="316" y="277"/>
      <point x="316" y="371" type="curve"/>
      <point x="316" y="371"/>
      <point x="316" y="371"/>
      <point x="316" y="371" type="curve"/>
      <point x="316" y="465"/>
      <point x="254" y="530"/>
      <point x="165" y="530" type="curve"/>
      <point x="165" y="530"/>
      <point x="165" y="530"/>
      <point x="165" y="530" type="curve"/>
      <point x="76" y="530"/>
      <point x="17" y="465"/>
      <point x="17" y="371" type="curve"/>
      <point x="17" y="371"/>
      <point x="17" y="371"/>
      <point x="17" y="371" type="curve"/>
      <point x="17" y="277"/>
      <point x="76" y="212"/>
    </contour>
    <contour>
      <point x="165" y="196" type="curve"/>
      <point x="68" y="196"/>
      <point x="1" y="267"/>
      <point x="1" y="371" type="curve"/>
      <point x="1" y="371"/>
      <point x="1" y="371"/>
      <point x="1" y="371" type="curve"/>
      <point x="1" y="475"/>
      <point x="68" y="546"/>
      <point x="165" y="546" type="curve"/>
      <point x="165" y="546"/>
      <point x="165" y="546"/>
      <point x="165" y="546" type="curve"/>
      <point x="262" y="546"/>
      <point x="332" y="475"/>
      <point x="332" y="371" type="curve"/>
      <point x="332" y="371"/>
      <point x="332" y="371"/>
      <point x="332" y="371" type="curve"/>
      <point x="332" y="267"/>
      <point x="262" y="196"/>
      <point x="165" y="196" type="curve"/>
      <point x="165" y="196"/>
      <point x="165" y="196"/>
    </contour>
  </outline>
</glyph>
<glyph name="twosuperior" format="2">
  <advance width="409"/>
  <unicode hex="00B2"/>
  <outline>
    <contour>
      <point x="196" y="215" type="line"/>
      <point x="156" y="211"/>
      <point x="99" y="210"/>
      <point x="16" y="212" type="curve" smooth="yes"/>
      <point x="10" y="212"/>
      <point x="6" y="218"/>
      <point x="9" y="223" type="curve" smooth="yes"/>
      <point x="63" y="339"/>
      <point x="183" y="370"/>
      <point x="183" y="462" type="curve"/>
      <point x="183" y="462"/>
      <point x="183" y="462"/>
      <point x="183" y="462" type="curve"/>
      <point x="183" y="512"/>
      <point x="140" y="534"/>
      <point x="75" y="534" type="curve"/>
      <point x="75" y="534"/>
      <point x="75" y="534"/>
      <point x="75" y="534" type="curve"/>
      <point x="54" y="534"/>
      <point x="31" y="531"/>
      <point x="10" y="526" type="curve"/>
      <point x="6" y="542" type="line"/>
      <point x="29" y="547"/>
      <point x="52" y="550"/>
      <point x="75" y="550" type="curve"/>
      <point x="75" y="550"/>
      <point x="75" y="550"/>
      <point x="75" y="550" type="curve"/>
      <point x="151" y="550"/>
      <point x="199" y="520"/>
      <point x="199" y="462" type="curve"/>
      <point x="199" y="462"/>
      <point x="199" y="462"/>
      <point x="199" y="462" type="curve"/>
      <point x="199" y="364"/>
      <point x="73" y="325"/>
      <point x="23" y="217" type="curve" smooth="yes"/>
      <point x="21" y="211"/>
      <point x="10" y="228"/>
      <point x="16" y="228" type="curve" smooth="yes"/>
      <point x="99" y="226"/>
      <point x="154" y="227"/>
      <point x="194" y="231" type="curve"/>
    </contour>
    <contour>
      <point x="61" y="549" type="line"/>
      <point x="11" y="527" type="line" smooth="yes"/>
      <point x="5" y="524"/>
      <point x="-2" y="530"/>
      <point x="0" y="537" type="curve" smooth="yes"/>
      <point x="50" y="679" type="line"/>
      <point x="66" y="673" type="line"/>
      <point x="16" y="531" type="line" smooth="yes"/>
      <point x="13" y="525"/>
      <point x="-2" y="539"/>
      <point x="5" y="541" type="curve" smooth="yes"/>
      <point x="55" y="563" type="line"/>
    </contour>
    <contour>
      <point x="365" y="386" type="line"/>
      <point x="201" y="217" type="line" smooth="yes"/>
      <point x="195" y="211"/>
      <point x="185" y="228"/>
      <point x="193" y="231" type="curve" smooth="yes"/>
      <point x="343" y="279" type="line"/>
      <point x="347" y="263" type="line"/>
      <point x="197" y="215" type="line" smooth="yes"/>
      <point x="190" y="213"/>
      <point x="183" y="223"/>
      <point x="189" y="229" type="curve" smooth="yes"/>
      <point x="353" y="398" type="line"/>
    </contour>
    <contour>
      <point x="213" y="361" type="line"/>
      <point x="21" y="214" type="line" smooth="yes"/>
      <point x="14" y="208"/>
      <point x="5" y="216"/>
      <point x="9" y="224" type="curve" smooth="yes"/>
      <point x="35" y="275" type="line"/>
      <point x="49" y="267" type="line"/>
      <point x="23" y="216" type="line" smooth="yes"/>
      <point x="19" y="209"/>
      <point x="4" y="221"/>
      <point x="11" y="226" type="curve" smooth="yes"/>
      <point x="203" y="373" type="line"/>
    </contour>
  </outline>
</glyph>
<glyph name="threesuperior" format="2">
  <advance width="420"/>
  <unicode hex="00B3"/>
  <outline>
    <contour>
      <point x="23" y="225" type="line"/>
      <point x="43" y="218"/>
      <point x="64" y="215"/>
      <point x="84" y="215" type="curve"/>
      <point x="84" y="215"/>
      <point x="84" y="215"/>
      <point x="84" y="215" type="curve"/>
      <point x="152" y="215"/>
      <point x="204" y="245"/>
      <point x="204" y="300" type="curve"/>
      <point x="204" y="300"/>
      <point x="204" y="300"/>
      <point x="204" y="300" type="curve"/>
      <point x="204" y="344"/>
      <point x="160" y="372"/>
      <point x="75" y="377" type="curve" smooth="yes"/>
      <point x="68" y="377"/>
      <point x="65" y="385"/>
      <point x="69" y="390" type="curve" smooth="yes"/>
      <point x="175" y="534" type="line" smooth="yes"/>
      <point x="178" y="539"/>
      <point x="188" y="521"/>
      <point x="181" y="521" type="curve" smooth="yes"/>
      <point x="112" y="521"/>
      <point x="64" y="520"/>
      <point x="27" y="517" type="curve"/>
      <point x="25" y="533" type="line"/>
      <point x="64" y="536"/>
      <point x="112" y="537"/>
      <point x="181" y="537" type="curve" smooth="yes"/>
      <point x="188" y="537"/>
      <point x="191" y="530"/>
      <point x="187" y="524" type="curve" smooth="yes"/>
      <point x="81" y="380" type="line" smooth="yes"/>
      <point x="78" y="375"/>
      <point x="69" y="393"/>
      <point x="75" y="393" type="curve" smooth="yes"/>
      <point x="174" y="388"/>
      <point x="220" y="350"/>
      <point x="220" y="300" type="curve"/>
      <point x="220" y="300"/>
      <point x="220" y="300"/>
      <point x="220" y="300" type="curve"/>
      <point x="220" y="237"/>
      <point x="162" y="199"/>
      <point x="84" y="199" type="curve"/>
      <point x="84" y="199"/>
      <point x="84" y="199"/>
      <point x="84" y="199" type="curve"/>
      <point x="62" y="199"/>
      <point x="39" y="202"/>
      <point x="17" y="209" type="curve"/>
    </contour>
    <contour>
      <point x="81" y="553" type="line"/>
      <point x="31" y="518" type="line" smooth="yes"/>
      <point x="24" y="514"/>
      <point x="16" y="520"/>
      <point x="18" y="527" type="curve" smooth="yes"/>
      <point x="68" y="682" type="line"/>
      <point x="84" y="678" type="line"/>
      <point x="34" y="523" type="line" smooth="yes"/>
      <point x="31" y="515"/>
      <point x="15" y="527"/>
      <point x="21" y="532" type="curve" smooth="yes"/>
      <point x="71" y="567" type="line"/>
    </contour>
    <contour>
      <point x="76" y="271" type="line"/>
      <point x="26" y="212" type="line" smooth="yes"/>
      <point x="21" y="205"/>
      <point x="10" y="211"/>
      <point x="12" y="219" type="curve" smooth="yes"/>
      <point x="62" y="397" type="line"/>
      <point x="78" y="393" type="line"/>
      <point x="28" y="215" type="line" smooth="yes"/>
      <point x="25" y="207"/>
      <point x="8" y="216"/>
      <point x="14" y="222" type="curve" smooth="yes"/>
      <point x="64" y="281" type="line"/>
    </contour>
    <contour>
      <point x="103" y="444" type="line"/>
      <point x="83" y="383" type="line" smooth="yes"/>
      <point x="80" y="375"/>
      <point x="64" y="387"/>
      <point x="70" y="391" type="curve" smooth="yes"/>
      <point x="248" y="526" type="line"/>
      <point x="258" y="514" type="line"/>
      <point x="80" y="379" type="line" smooth="yes"/>
      <point x="74" y="374"/>
      <point x="65" y="380"/>
      <point x="67" y="387" type="curve" smooth="yes"/>
      <point x="87" y="448" type="line"/>
    </contour>
    <contour>
      <point x="198" y="576" type="line"/>
      <point x="189" y="528" type="line" smooth="yes"/>
      <point x="188" y="520"/>
      <point x="170" y="531"/>
      <point x="176" y="535" type="curve" smooth="yes"/>
      <point x="368" y="686" type="line"/>
      <point x="378" y="674" type="line"/>
      <point x="186" y="523" type="line" smooth="yes"/>
      <point x="180" y="518"/>
      <point x="172" y="523"/>
      <point x="173" y="530" type="curve" smooth="yes"/>
      <point x="182" y="578" type="line"/>
    </contour>
  </outline>
</glyph>
<glyph name="periodcentered" format="2">
  <advance width="291"/>
  <unicode hex="00B7"/>
  <outline>
    <contour>
      <point x="73" y="409" type="line"/>
      <point x="53" y="229" type="line" smooth="yes"/>
      <point x="52" y="224"/>
      <point x="39" y="237"/>
      <point x="44" y="238" type="curve" smooth="yes"/>
      <point x="225" y="257" type="line"/>
      <point x="227" y="241" type="line"/>
      <point x="46" y="222" type="line" smooth="yes"/>
      <point x="41" y="222"/>
      <point x="36" y="226"/>
      <point x="37" y="231" type="curve" smooth="yes"/>
      <point x="57" y="411" type="line"/>
    </contour>
    <contour>
      <point x="71" y="243" type="line"/>
      <point x="51" y="224" type="line" smooth="yes"/>
      <point x="43" y="217"/>
      <point x="32" y="228"/>
      <point x="39" y="236" type="curve" smooth="yes"/>
      <point x="220" y="416" type="line"/>
      <point x="232" y="404" type="line"/>
      <point x="51" y="224" type="line" smooth="yes"/>
      <point x="43" y="217"/>
      <point x="32" y="229"/>
      <point x="39" y="236" type="curve" smooth="yes"/>
      <point x="59" y="255" type="line"/>
    </contour>
  </outline>
</glyph>
<glyph name="ordmasculine" format="2">
  <advance width="492"/>
  <unicode hex="00BA"/>
  <outline>
    <contour>
      <point x="146" y="240" type="curve"/>
      <point x="146" y="240"/>
      <point x="146" y="240"/>
      <point x="146" y="240" type="curve"/>
      <point x="224" y="240"/>
      <point x="278" y="303"/>
      <point x="278" y="388" type="curve"/>
      <point x="278" y="388"/>
      <point x="278" y="388"/>
      <point x="278" y="388" type="curve"/>
      <point x="278" y="474"/>
      <point x="224" y="536"/>
      <point x="146" y="536" type="curve"/>
      <point x="146" y="536"/>
      <point x="146" y="536"/>
      <point x="146" y="536" type="curve"/>
      <point x="68" y="536"/>
      <point x="14" y="474"/>
      <point x="14" y="388" type="curve"/>
      <point x="14" y="388"/>
      <point x="14" y="388"/>
      <point x="14" y="388" type="curve"/>
      <point x="14" y="303"/>
      <point x="68" y="240"/>
    </contour>
    <contour>
      <point x="146" y="224" type="curve"/>
      <point x="60" y="224"/>
      <point x="-2" y="293"/>
      <point x="-2" y="388" type="curve"/>
      <point x="-2" y="388"/>
      <point x="-2" y="388"/>
      <point x="-2" y="388" type="curve"/>
      <point x="-2" y="484"/>
      <point x="60" y="552"/>
      <point x="146" y="552" type="curve"/>
      <point x="146" y="552"/>
      <point x="146" y="552"/>
      <point x="146" y="552" type="curve"/>
      <point x="232" y="552"/>
      <point x="294" y="484"/>
      <point x="294" y="388" type="curve"/>
      <point x="294" y="388"/>
      <point x="294" y="388"/>
      <point x="294" y="388" type="curve"/>
      <point x="294" y="293"/>
      <point x="232" y="224"/>
      <point x="146" y="224" type="curve"/>
      <point x="146" y="224"/>
      <point x="146" y="224"/>
    </contour>
    <contour>
      <point x="274" y="60" type="line"/>
      <point x="18" y="60" type="line"/>
      <point x="18" y="76" type="line"/>
      <point x="274" y="76" type="line"/>
    </contour>
    <contour>
      <point x="71" y="107" type="line"/>
      <point x="23" y="62" type="line" smooth="yes"/>
      <point x="17" y="57"/>
      <point x="8" y="63"/>
      <point x="10" y="70" type="curve" smooth="yes"/>
      <point x="58" y="224" type="line"/>
      <point x="74" y="220" type="line"/>
      <point x="26" y="66" type="line" smooth="yes"/>
      <point x="23" y="58"/>
      <point x="7" y="68"/>
      <point x="13" y="74" type="curve" smooth="yes"/>
      <point x="61" y="119" type="line"/>
    </contour>
    <contour>
      <point x="432" y="216" type="line"/>
      <point x="280" y="62" type="line" smooth="yes"/>
      <point x="274" y="56"/>
      <point x="264" y="73"/>
      <point x="272" y="76" type="curve" smooth="yes"/>
      <point x="424" y="121" type="line"/>
      <point x="428" y="105" type="line"/>
      <point x="276" y="60" type="line" smooth="yes"/>
      <point x="268" y="58"/>
      <point x="262" y="68"/>
      <point x="268" y="74" type="curve" smooth="yes"/>
      <point x="420" y="228" type="line"/>
    </contour>
  </outline>
</glyph>
